<svg width="11" height="10" viewBox="0 0 11 10" fill="none" xmlns="http://www.w3.org/2000/svg">
<path d="M6.21651 5.00002L10.5496 0.66686C10.7022 0.514301 10.7022 0.266958 10.5496 0.114419C10.3971 -0.0381201 10.1497 -0.0381396 9.9972 0.114419L5.66405 4.44758L1.33092 0.114419C1.17836 -0.0381396 0.93102 -0.0381396 0.778481 0.114419C0.625942 0.266977 0.625923 0.514321 0.778481 0.66686L5.11161 5L0.778481 9.33316C0.625923 9.48572 0.625923 9.73307 0.778481 9.88561C0.85475 9.96187 0.954731 10 1.05471 10C1.15469 10 1.25465 9.96187 1.33094 9.88561L5.66405 5.55246L9.99718 9.88561C10.0735 9.96187 10.1734 10 10.2734 10C10.3734 10 10.4734 9.96187 10.5496 9.88561C10.7022 9.73305 10.7022 9.4857 10.5496 9.33316L6.21651 5.00002Z" fill="#929292"/>
</svg>
