<svg width="29" height="21" fill="none" xmlns="http://www.w3.org/2000/svg"><path d="M12.515 8.006l.515 2.329h3.688v-2.33h-4.203zM18.744 8.006l-.013 2.329h3.518l.613-2.33h-4.118zM13.205 15.951a2.336 2.336 0 00-2.335 2.335 2.341 2.341 0 002.335 2.341 2.333 2.333 0 002.335-2.34 2.328 2.328 0 00-2.335-2.336zM22.005 15.951a2.341 2.341 0 00-2.34 2.335 2.342 2.342 0 002.34 2.341 2.333 2.333 0 002.335-2.34 2.332 2.332 0 00-2.335-2.336z" fill="#fff"/><path d="M27.932 2.414a1.159 1.159 0 00-1.443.776l-.158.522H9.228l-.613-2.48A1.147 1.147 0 007.5.345H1.526a1.158 1.158 0 100 2.316H6.59l2.735 11.093c.127.515.594.88 1.122.88h14.167c.51 0 .965-.34 1.11-.825l2.984-9.959a1.151 1.151 0 00-.776-1.437zm-4.112 9.673l-.073.237h-12.39L9.804 6.022h15.835l-1.82 6.065z" fill="#fff"/></svg>