<svg width="71" height="30" fill="none" xmlns="http://www.w3.org/2000/svg"><g clip-path="url(#clip0)"><path d="M33.426 14.646v8.76h-2.593V1.773h6.878a5.852 5.852 0 012.402.459 6.188 6.188 0 012.052 1.414 6.024 6.024 0 011.391 2.066c.321.788.481 1.64.47 2.499a6.366 6.366 0 01-.462 2.513 5.997 5.997 0 01-1.4 2.078c-1.202 1.229-2.687 1.842-4.453 1.841h-4.285v.002zm0-10.209v7.551h4.35c.476.015.95-.076 1.392-.27a3.426 3.426 0 001.173-.848c.33-.344.592-.755.771-1.209a3.915 3.915 0 000-2.87 3.707 3.707 0 00-.77-1.208 3.389 3.389 0 00-1.169-.87 3.185 3.185 0 00-1.398-.278h-4.349v.002zm16.575 3.685c1.917 0 3.43.549 4.54 1.646 1.109 1.098 1.663 2.603 1.662 4.516v9.121h-2.48v-2.054h-.113c-1.075 1.691-2.503 2.537-4.285 2.537-1.522 0-2.795-.483-3.82-1.45a4.61 4.61 0 01-1.15-1.626 4.912 4.912 0 01-.386-1.998c0-1.531.54-2.75 1.62-3.654 1.08-.904 2.523-1.358 4.327-1.36 1.54 0 2.808.302 3.805.906v-.635a3.354 3.354 0 00-.277-1.359 3.144 3.144 0 00-.795-1.1 3.536 3.536 0 00-2.503-1.013c-1.448 0-2.595.654-3.439 1.964l-2.284-1.541c1.257-1.934 3.116-2.9 5.578-2.9zm-3.355 10.753a2.35 2.35 0 00.225 1.017c.15.316.367.588.635.795a3.03 3.03 0 002.015.725c1.095-.002 2.143-.469 2.917-1.298.86-.867 1.289-1.883 1.289-3.05-.809-.69-1.936-1.035-3.383-1.035-1.053 0-1.932.272-2.635.816-.71.552-1.063 1.223-1.063 2.03zm23.796-10.27l-8.66 21.324h-2.677l3.214-7.461-5.694-13.863h2.819l4.115 10.632h.056l4.003-10.632h2.824z" fill="#5F6368"/><path d="M22.947 12.757a15.846 15.846 0 00-.2-2.527H11.81v4.787h6.264a5.995 5.995 0 01-.798 2.142 5.577 5.577 0 01-1.518 1.634V21.9h3.738c2.19-2.163 3.45-5.361 3.45-9.143z" fill="#4285F4"/><path d="M11.809 24.902c3.13 0 5.765-1.101 7.687-3l-3.739-3.107c-1.04.756-2.38 1.188-3.948 1.188-3.025 0-5.592-2.185-6.51-5.13H1.446v3.202c.966 2.058 2.446 3.788 4.275 4.997a11.03 11.03 0 006.087 1.85z" fill="#34A853"/><path d="M5.298 14.853a7.951 7.951 0 010-4.757V6.895H1.447a13.157 13.157 0 00-1.235 5.58c0 1.937.423 3.848 1.235 5.58l3.85-3.202h.001z" fill="#FBBC04"/><path d="M11.81 4.967c1.653-.03 3.252.64 4.448 1.864l3.31-3.547C17.47 1.17 14.689.012 11.81.048c-2.15 0-4.257.64-6.087 1.85-1.83 1.208-3.31 2.939-4.275 4.997l3.851 3.201c.919-2.944 3.486-5.13 6.511-5.13z" fill="#EA4335"/></g><defs><clipPath id="clip0"><path fill="#fff" transform="translate(.212)" d="M0 0h70.269v30H0z"/></clipPath></defs></svg>