<svg width="25" height="24" fill="none" xmlns="http://www.w3.org/2000/svg"><path d="M14.716 16.486l1.867-1.714 3.376 3.22-1.866 1.713-3.377-3.22z" fill="#0F5628"/><rect width="2.778" height="11.524" rx="1.389" transform="matrix(.7439 -.66828 .71626 .69783 14.145 15.82)" fill="#0F5628"/><path d="M9.55 1.061c5.066.072 9.118 3.973 9.05 8.712-.067 4.74-4.229 8.523-9.294 8.45C4.24 18.152.188 14.252.256 9.513.323 4.772 4.485.989 9.55 1.06zm-.214 15.05c3.818.054 6.955-2.798 7.005-6.37.051-3.572-3.003-6.512-6.82-6.567-3.819-.054-6.956 2.798-7.006 6.37-.051 3.572 3.003 6.512 6.82 6.566z" fill="#0F5628"/></svg>