<svg width="28" height="25" viewBox="0 0 28 25" fill="none" xmlns="http://www.w3.org/2000/svg">
<path d="M18.0202 11.9792C18.6615 12.3066 20.6727 13.3462 23.5872 14.8854C26.5018 16.4245 26.6164 17.3053 26.6164 17.9668V24.4923H1.41541V17.9668C1.85281 15.5526 7.20957 12.9691 9.83328 11.9792M18.0202 11.9792C17.3573 13.3469 15.5232 14.8854 14.2133 14.8854C12.9034 14.8854 10.989 13.9035 9.83328 11.9792M18.0202 11.9792C19.4286 9.07311 19.4255 6.37072 19.2245 4.5281C19.0637 3.054 16.8471 0.939621 14.2133 0.876612C12.8131 0.843114 9.7715 1.41257 8.80677 3.95838C7.60087 7.14063 9.21842 10.9555 9.83328 11.9792M3.12611 21.3978V22.12V22.8421" stroke="#0F5628"/>
<path d="M4.74237 21.3931V22.8516" stroke="#0F5628"/>
<path d="M6.57159 21.3931V22.8516" stroke="#0F5628"/>
<path d="M8.40082 21.3931V22.8516" stroke="#0F5628"/>
<path d="M10.2301 21.3931V22.8516" stroke="#0F5628"/>
<path d="M12.0593 21.3931V22.8516" stroke="#0F5628"/>
<path d="M13.8947 21.3931V22.8516" stroke="#0F5628"/>
<path d="M15.73 21.3931V22.8516" stroke="#0F5628"/>
<path d="M17.5654 21.3901V22.8487" stroke="#0F5628"/>
<path d="M19.4006 21.3931V22.8516" stroke="#0F5628"/>
<path d="M21.2358 21.3901V22.8487" stroke="#0F5628"/>
<path d="M23.0712 21.3931V22.8516" stroke="#0F5628"/>
<path d="M24.9065 21.3901V22.8487" stroke="#0F5628"/>
</svg>
