<svg width="25" height="24" viewBox="0 0 25 24" fill="none" xmlns="http://www.w3.org/2000/svg">
<path d="M14.7162 16.4856L16.5827 14.772L19.9593 17.9911L18.0929 19.7047L14.7162 16.4856Z" fill="#0F5628"/>
<rect width="2.77846" height="11.5237" rx="1.38923" transform="matrix(0.743906 -0.668284 0.71626 0.697834 14.1454 15.8191)" fill="#0F5628"/>
<path d="M9.55028 1.06095C14.6159 1.1331 18.6677 5.03359 18.6002 9.77294C18.5327 14.5123 14.3715 18.2958 9.30584 18.2237C4.24019 18.1515 0.188387 14.251 0.255887 9.51167C0.323387 4.77232 4.48463 0.988803 9.55028 1.06095ZM9.33593 16.1105C13.1541 16.1648 16.2907 13.313 16.3415 9.74077C16.3924 6.16851 13.3384 3.22853 9.52018 3.17415C5.70197 3.11977 2.56546 5.97158 2.51458 9.54384C2.4637 13.1161 5.51773 16.0561 9.33593 16.1105Z" fill="#0F5628"/>
</svg>
