<svg width="28" height="25" fill="none" xmlns="http://www.w3.org/2000/svg"><path d="M18.02 11.98c.642.327 2.653 1.366 5.567 2.905 2.915 1.54 3.03 2.42 3.03 3.082v6.525H1.414v-6.525c.438-2.414 5.795-4.998 8.418-5.988m8.187 0c-.663 1.368-2.497 2.906-3.807 2.906s-3.224-.982-4.38-2.906m8.187 0c1.409-2.906 1.405-5.608 1.204-7.45-.16-1.475-2.377-3.59-5.01-3.652-1.4-.034-4.443.536-5.407 3.081-1.206 3.183.411 6.998 1.026 8.021m-6.707 9.419v1.444M4.742 21.393v1.459M6.572 21.393v1.459M8.4 21.393v1.459M10.23 21.393v1.459M12.06 21.393v1.459M13.895 21.393v1.459M15.73 21.393v1.459M17.565 21.39v1.459M19.4 21.393v1.459M21.236 21.39v1.459M23.071 21.393v1.459M24.907 21.39v1.459" stroke="#0F5628"/></svg>