<svg width="12" height="8" viewBox="0 0 12 8" fill="none" xmlns="http://www.w3.org/2000/svg">
<mask id="path-1-inside-1" fill="white">
<path fill-rule="evenodd" clip-rule="evenodd" d="M4.52165 7.38724C4.39421 7.41853 4.25399 7.38646 4.15153 7.28963L0.767205 4.09101C0.606821 3.93943 0.599687 3.68653 0.75127 3.52615C0.902854 3.36576 1.15575 3.35863 1.31614 3.51021L4.42357 6.44712L10.3841 0.140557C10.5357 -0.0198273 10.7886 -0.0269612 10.9489 0.124622C11.1093 0.276206 11.1165 0.529106 10.9649 0.689491L4.74805 7.26726C4.68534 7.33361 4.6053 7.37373 4.52165 7.38724Z"/>
</mask>
<path fill-rule="evenodd" clip-rule="evenodd" d="M4.52165 7.38724C4.39421 7.41853 4.25399 7.38646 4.15153 7.28963L0.767205 4.09101C0.606821 3.93943 0.599687 3.68653 0.75127 3.52615C0.902854 3.36576 1.15575 3.35863 1.31614 3.51021L4.42357 6.44712L10.3841 0.140557C10.5357 -0.0198273 10.7886 -0.0269612 10.9489 0.124622C11.1093 0.276206 11.1165 0.529106 10.9649 0.689491L4.74805 7.26726C4.68534 7.33361 4.6053 7.37373 4.52165 7.38724Z" fill="black"/>
<path d="M4.52165 7.38724L4.20278 5.41282L4.12312 5.42568L4.04476 5.44492L4.52165 7.38724ZM4.15153 7.28963L2.77776 8.74316L4.15153 7.28963ZM0.767205 4.09101L2.14098 2.63748L2.14098 2.63748L0.767205 4.09101ZM0.75127 3.52615L2.2048 4.89992L2.2048 4.89992L0.75127 3.52615ZM1.31614 3.51021L-0.0576326 4.96374L-0.0576324 4.96374L1.31614 3.51021ZM4.42357 6.44712L3.0498 7.90065L4.50333 9.27443L5.8771 7.82089L4.42357 6.44712ZM10.3841 0.140557L8.93054 -1.23321V-1.23321L10.3841 0.140557ZM10.9489 0.124622L9.57517 1.57815L9.57517 1.57816L10.9489 0.124622ZM10.9649 0.689491L9.51134 -0.684281V-0.68428L10.9649 0.689491ZM4.74805 7.26726L3.29452 5.89349L3.29452 5.89349L4.74805 7.26726ZM4.04476 5.44492C4.54926 5.32106 5.11341 5.4468 5.5253 5.83609L2.77776 8.74316C3.39457 9.32613 4.23916 9.51599 4.99853 9.32955L4.04476 5.44492ZM5.5253 5.83609L2.14098 2.63748L-0.606566 5.54454L2.77776 8.74316L5.5253 5.83609ZM2.14098 2.63748C2.78336 3.24461 2.81193 4.25754 2.2048 4.89992L-0.702261 2.15237C-1.61255 3.11552 -1.56972 4.63425 -0.606565 5.54455L2.14098 2.63748ZM2.2048 4.89992C1.59767 5.5423 0.584746 5.57087 -0.0576326 4.96374L2.68991 2.05668C1.72676 1.14638 0.208035 1.18923 -0.702262 2.15238L2.2048 4.89992ZM-0.0576324 4.96374L3.0498 7.90065L5.79734 4.99359L2.68991 2.05668L-0.0576324 4.96374ZM5.8771 7.82089L11.8376 1.51433L8.93054 -1.23321L2.97004 5.07335L5.8771 7.82089ZM11.8376 1.51433C11.2305 2.15671 10.2175 2.18528 9.57517 1.57815L12.3227 -1.32891C11.3596 -2.2392 9.84084 -2.19636 8.93054 -1.23321L11.8376 1.51433ZM9.57517 1.57816C8.93279 0.971027 8.90421 -0.0419017 9.51134 -0.684281L12.4184 2.06326C13.3287 1.10011 13.2859 -0.418615 12.3227 -1.32891L9.57517 1.57816ZM9.51134 -0.68428L3.29452 5.89349L6.20158 8.64103L12.4184 2.06326L9.51134 -0.68428ZM3.29452 5.89349C3.54415 5.62936 3.86768 5.46694 4.20278 5.41282L4.84051 9.36166C5.34293 9.28051 5.82654 9.03785 6.20158 8.64103L3.29452 5.89349Z" fill="black" mask="url(#path-1-inside-1)"/>
</svg>
