<svg width="83" height="72" viewBox="0 0 83 72" fill="none" xmlns="http://www.w3.org/2000/svg">
<g clip-path="url(#clip0)">
<path d="M46.4929 63.3106C46.4929 63.3106 77.5382 63.3736 80.331 63.3988C83.4231 63.424 81.5903 50.9736 81.4033 46.9285C81.291 44.4082 75.4311 24.3968 73.0746 23.3131C71.6658 22.6704 45.2461 22.9854 45.2461 22.9854L46.4929 63.3106Z" fill="#8BC34A" stroke="black" stroke-miterlimit="10"/>
<path d="M49.9967 63.3104H9.02692C7.0071 63.3104 5.36133 61.647 5.36133 59.6055V17.8689C5.36133 15.8275 7.0071 14.1641 9.02692 14.1641H46.5805C48.6003 14.1641 50.2461 15.8275 50.2461 17.8689V63.0584C50.2336 63.197 50.1339 63.3104 49.9967 63.3104Z" fill="#388E3C" stroke="black" stroke-miterlimit="10"/>
<path d="M66.4419 70.8718C71.2621 70.8718 75.1695 66.9224 75.1695 62.0506C75.1695 57.1789 71.2621 53.2295 66.4419 53.2295C61.6218 53.2295 57.7144 57.1789 57.7144 62.0506C57.7144 66.9224 61.6218 70.8718 66.4419 70.8718Z" fill="#37474F" stroke="black" stroke-miterlimit="10"/>
<path d="M66.3421 65.2256C68.0636 65.2256 69.4591 63.8151 69.4591 62.0752C69.4591 60.3353 68.0636 58.9248 66.3421 58.9248C64.6206 58.9248 63.2251 60.3353 63.2251 62.0752C63.2251 63.8151 64.6206 65.2256 66.3421 65.2256Z" fill="#78909C"/>
<path d="M24.5743 70.8718C29.3944 70.8718 33.3019 66.9224 33.3019 62.0506C33.3019 57.1789 29.3944 53.2295 24.5743 53.2295C19.7542 53.2295 15.8467 57.1789 15.8467 62.0506C15.8467 66.9224 19.7542 70.8718 24.5743 70.8718Z" fill="#37474F" stroke="black" stroke-miterlimit="10"/>
<path d="M24.4622 65.2256C26.1837 65.2256 27.5792 63.8151 27.5792 62.0752C27.5792 60.3353 26.1837 58.9248 24.4622 58.9248C22.7407 58.9248 21.3452 60.3353 21.3452 62.0752C21.3452 63.8151 22.7407 65.2256 24.4622 65.2256Z" fill="#78909C"/>
<path d="M57.178 29.0216L57.2403 42.2912C57.2403 42.833 57.6767 43.2615 58.2004 43.2615L73.5983 43.4001C73.9474 43.4001 74.2342 43.0977 74.1843 42.7322C73.8601 39.7834 72.3391 28.1017 68.8854 28.0009C66.6786 27.9379 60.6191 27.9631 58.2004 27.9757C57.6268 27.9757 57.1655 28.442 57.178 29.0216Z" fill="#37474F" stroke="white" stroke-miterlimit="10"/>
<path d="M18.8515 36.2174C28.2301 36.2174 35.8329 28.5331 35.8329 19.054C35.8329 9.57494 28.2301 1.89062 18.8515 1.89062C9.47295 1.89062 1.87012 9.57494 1.87012 19.054C1.87012 28.5331 9.47295 36.2174 18.8515 36.2174Z" fill="white" stroke="#00ACC1" stroke-width="3" stroke-miterlimit="10"/>
<path d="M25.6466 25.6066L18.8516 19.0537L18.9388 8.15332" stroke="black" stroke-width="2" stroke-miterlimit="10" stroke-linecap="round"/>
<path d="M4.32617 18.8271L10.0116 18.8644" stroke="#2D3738" stroke-miterlimit="10" stroke-linecap="round"/>
<path d="M27.6914 18.7891L33.3643 18.8263" stroke="#2D3738" stroke-miterlimit="10" stroke-linecap="round"/>
<path d="M19.151 33.7971L19.0513 28.0508" stroke="#2D3738" stroke-miterlimit="10" stroke-linecap="round"/>
<path d="M19.1007 21.612C20.3677 21.612 21.3949 20.5739 21.3949 19.2933C21.3949 18.0127 20.3677 16.9746 19.1007 16.9746C17.8337 16.9746 16.8066 18.0127 16.8066 19.2933C16.8066 20.5739 17.8337 21.612 19.1007 21.612Z" fill="#00ACC1"/>
</g>
<defs>
<clipPath id="clip0">
<rect width="82.7376" height="71.5016" fill="white"/>
</clipPath>
</defs>
</svg>
