<svg width="110" height="93" viewBox="0 0 110 93" fill="none" xmlns="http://www.w3.org/2000/svg">
<path d="M102.62 92.6H5.81958L5.39958 92.35C2.34958 90.52 1.15958 87.42 0.289576 85.16C-0.200424 83.88 -0.0604241 82.56 0.679576 81.4V81.35C0.539576 79.71 0.499576 78.09 0.479576 76.72C0.369576 68.45 0.279576 60.98 0.219576 53.9C0.189576 50.84 1.01958 48.08 2.67958 45.69C2.68958 45.61 2.68958 45.48 2.68958 45.41C2.68958 42.85 2.71958 40.26 2.74958 37.75C2.77958 34.75 2.81958 31.65 2.79958 28.62C2.76958 24.76 3.51958 21.24 5.08958 17.84C6.49958 14.77 8.54958 11.89 11.3596 9.03C15.6496 4.65 21.2296 1.92 28.9296 0.41C29.1896 0.36 29.4196 0.34 29.6296 0.32C29.7596 0.31 29.9296 0.29 30.0096 0.27L30.3996 0H35.2196L35.4396 0.09L35.6496 0H37.2396L37.5196 0.1C38.0796 0.3 38.7496 0.36 39.4596 0.42C39.9096 0.46 40.3696 0.5 40.8496 0.58C50.2296 2.09 57.4696 7.03 62.3596 15.26C65.5796 20.69 66.1696 26.71 66.3196 31.35C66.4196 34.28 66.5296 37.26 66.6396 40.14C66.7196 42.15 66.7896 44.23 66.8696 46.27C66.8696 46.29 66.8696 46.29 66.8696 46.3C66.8696 46.3 66.8796 46.31 66.8896 46.34C67.2596 46.91 67.6296 47.51 67.9796 48.16C68.3896 47.76 68.8096 47.37 69.2096 46.98C70.3996 45.84 71.6396 44.66 72.8296 43.48C73.8396 42.48 75.0696 41.97 76.4596 41.97C76.4696 41.97 76.4896 41.97 76.4996 41.97C78.1296 41.98 79.7996 41.98 81.4096 41.98C81.9896 41.98 82.5696 41.98 83.1596 41.98C83.8496 41.98 85.9496 41.98 86.8896 44.07C87.4796 45.38 87.2696 46.73 86.2696 48.08C83.7096 51.55 81.1196 55.08 78.5896 58.53C78.7196 58.52 78.8496 58.52 78.9796 58.52C82.6696 58.52 86.4196 58.52 90.0496 58.52C94.6696 58.52 99.4496 58.52 104.15 58.51H104.16C105.7 58.51 107.78 59.07 109 61.75L109.16 62.1V75.85L109.11 76.05C108.74 77.59 108.01 78.81 106.93 79.67C106.87 79.72 106.81 79.76 106.75 79.81C107.18 80.05 107.54 80.34 107.84 80.69C108.55 81.5 108.9 82.57 108.91 83.98C108.93 86.3 108.22 88.45 106.79 90.37C105.84 91.65 104.42 92.43 102.7 92.62L102.62 92.6ZM6.82958 89.07H102.42C103.35 88.95 103.75 88.54 103.97 88.24C104.93 86.95 105.41 85.51 105.4 83.98C105.4 83.49 105.32 83.12 105.2 82.98C105.14 82.91 104.91 82.72 104.14 82.58C103.59 82.48 102.95 82.37 102.34 82.37H102.33C101.46 82.37 100.91 82 100.6 81.69C100.28 81.37 99.8996 80.8 99.9096 79.88C99.9196 78.52 100.88 77.54 102.25 77.5C102.35 77.5 102.46 77.49 102.56 77.49C102.64 77.49 102.73 77.49 102.81 77.48C104.39 77.43 105.25 76.8 105.65 75.38V62.88C105.24 62.17 104.79 62.02 104.18 62.02H104.17C99.4696 62.03 94.6796 62.03 90.0596 62.03C86.4296 62.03 82.6796 62.03 78.9896 62.03C77.9396 62.03 77.5496 62.43 77.5496 63.49C77.5396 65.04 77.5496 66.62 77.5496 68.14C77.5496 70.25 77.5496 72.43 77.5396 74.58C77.5296 75.21 77.7396 75.69 78.2296 76.19C78.9996 76.97 79.9896 77.31 81.3296 77.24C82.2096 77.2 82.8996 77.44 83.3796 77.98C83.6996 78.34 84.0396 78.96 83.8996 79.95C83.8996 79.97 83.8996 79.99 83.8996 80.01C83.9096 80.35 83.9196 81.15 83.2696 81.8C82.8296 82.25 82.2296 82.47 81.4896 82.47C81.4796 82.47 81.4696 82.47 81.4596 82.47C77.7696 82.44 73.8396 82.44 68.7096 82.47C68.4196 82.47 67.5396 82.48 66.8796 81.81C66.2096 81.14 66.2196 80.28 66.2196 79.96C66.2496 77.26 66.2496 74.4 66.2296 70.69C66.2196 69.56 66.7096 68.77 67.0696 68.27C69.5396 64.92 72.0496 61.51 74.4696 58.21C77.4096 54.2 80.4596 50.06 83.4596 45.99C83.6596 45.72 83.6996 45.59 83.7096 45.55V45.54C83.6396 45.52 83.4796 45.5 83.1796 45.5C82.5996 45.5 82.0196 45.5 81.4396 45.5C79.8196 45.5 78.1496 45.5 76.4996 45.49C76.0096 45.49 75.6896 45.62 75.3296 45.98C74.1196 47.18 72.8696 48.37 71.6696 49.52C70.8496 50.31 69.9996 51.12 69.1696 51.92C68.8896 52.19 68.1496 52.91 67.0696 52.67C66.3496 52.51 65.8196 51.99 65.4996 51.13C65.1196 50.11 64.5296 49.14 63.9496 48.25C63.5996 47.7 63.4096 47.13 63.3696 46.49L61.2396 44.64C59.4196 43.06 57.5896 42.06 55.4696 41.49C55.0496 41.38 53.6796 40.87 53.7996 39.08C53.7996 39.07 53.7996 39.05 53.7996 39.04C53.8096 38.14 53.6796 37.23 53.4096 36.32C52.7796 34.18 51.5396 32.68 49.6296 31.73C46.9496 30.4 43.9996 29.72 40.6196 29.63L36.9296 29.53L39.3196 26.72C40.7496 25.04 41.3296 23.39 41.1296 21.55C40.9196 19.57 40.0296 18.06 38.4096 16.93C35.8896 15.17 32.4696 15.49 30.2696 17.7C28.2296 19.75 27.5496 23.48 30.2096 26.64L32.3296 29.15L29.0696 29.52C28.6496 29.57 28.2296 29.62 27.8096 29.67C26.8996 29.78 26.0396 29.88 25.1496 29.97C18.3396 30.68 16.3996 35.66 15.9796 39.71C15.8396 41.07 15.1296 41.89 13.8796 42.14C11.4796 42.62 9.73958 43.43 8.22958 44.77L6.05958 46.71C5.96958 47.01 5.82958 47.33 5.59958 47.65C4.33958 49.44 3.71958 51.53 3.73958 53.85C3.80958 60.94 3.88958 68.41 3.99958 76.67C4.01958 77.97 4.04958 79.51 4.18958 81.04V81.08C4.22958 81.56 4.30958 82.37 3.68958 83.23C3.48958 83.5 3.49958 83.68 3.57958 83.89C4.42958 86.12 5.22958 87.93 6.82958 89.07ZM74.0196 64.75C72.6496 66.62 71.2696 68.5 69.8996 70.36C69.7396 70.57 69.7396 70.62 69.7396 70.66C69.7596 73.92 69.7596 76.52 69.7396 78.94C72.0196 78.93 74.0696 78.92 75.9696 78.92C75.8796 78.84 75.7896 78.75 75.6996 78.66C74.5596 77.5 73.9896 76.12 74.0096 74.56C74.0296 72.43 74.0196 70.25 74.0196 68.15C74.0196 67.03 74.0196 65.89 74.0196 64.75ZM34.3096 6.22C25.2296 6.22 18.2396 9.6 12.9796 16.5C10.4896 19.78 9.25957 22.87 9.10958 26.23C8.91958 30.61 8.81958 35.16 8.81958 40.14C9.92957 39.58 11.1596 39.15 12.5396 38.83C12.9396 35.79 14.0196 33.12 15.6896 31.08C17.8596 28.43 20.9196 26.88 24.7896 26.47C25.1496 26.43 25.5096 26.39 25.8696 26.35C25.1496 24.8 24.8396 23.14 24.9596 21.44C25.1296 19.11 26.1496 16.84 27.7796 15.21C31.1896 11.79 36.5096 11.29 40.4396 14.04C42.8696 15.74 44.3196 18.2 44.6496 21.16C44.8396 22.95 44.5496 24.68 43.7696 26.33C46.4496 26.68 48.8996 27.42 51.1996 28.56C54.0096 29.95 55.8896 32.22 56.7996 35.32C57.0896 36.32 57.2696 37.34 57.3196 38.35C58.4296 38.71 59.4896 39.19 60.5196 39.78C60.4496 37.7 60.3796 35.72 60.2896 33.73C60.1596 30.8 60.0296 28.36 59.6596 25.86C58.1596 15.55 49.4596 8.54 41.6296 6.96C39.8896 6.61 38.1896 6.38 36.5796 6.29C35.7896 6.24 35.0396 6.22 34.3096 6.22Z" fill="#C1E1D8"/>
<path d="M92.0595 57.1999C92.0395 57.1999 92.0195 57.1999 91.9995 57.1999C91.1795 57.1899 90.4295 56.8599 89.8795 56.2899C89.2695 55.6599 88.9495 54.7699 88.9695 53.7699C89.0395 50.3499 90.3095 48.5299 93.5095 47.2899C93.7095 47.2099 93.9595 47.1199 94.0795 47.0399C94.1095 47.0199 94.1395 46.9999 94.1695 46.9799C94.1595 46.9699 94.1395 46.9599 94.1195 46.9499C93.6995 46.6999 93.2495 46.4699 92.7695 46.2299C92.3595 46.0299 91.9395 45.8199 91.5195 45.5799C89.5195 44.4599 88.2895 42.6999 88.1295 40.7699C87.9695 38.8399 88.8995 36.9099 90.6795 35.4799C91.2795 34.9999 91.8995 34.6099 92.4995 34.2299C92.8795 33.9899 93.2295 33.7699 93.5595 33.5299C93.9795 33.2299 94.1495 32.9899 94.1695 32.8799C94.1895 32.7599 94.1095 32.4699 93.7995 32.0299C93.3095 31.3199 92.5395 30.7399 91.7295 30.1299L91.5095 29.9699C90.3995 29.1299 89.2595 28.1899 88.5895 26.6599C87.8095 24.8599 88.3495 23.1399 89.9395 22.3599C90.8995 21.8899 91.7195 21.9999 92.2295 22.1799C92.7895 22.3799 93.5795 22.8599 94.1495 24.0499C94.2995 24.3599 94.6595 24.6299 95.1195 24.9799L95.2195 25.0499C96.4295 25.9699 97.6795 26.9199 98.6895 28.2799C99.7195 29.6699 100.28 31.1799 100.33 32.7699V32.8299V32.8899C100.26 35.2299 99.1795 37.1399 97.1295 38.5499C96.7495 38.8099 96.3595 39.0599 95.9895 39.2899C95.4995 39.5999 95.0295 39.8999 94.5995 40.2199C94.5895 40.2299 94.5795 40.2399 94.5695 40.2499C94.5795 40.2599 94.5895 40.2599 94.5995 40.2699C94.9495 40.4599 95.3195 40.6499 95.6995 40.8399C96.1895 41.0899 96.6895 41.3399 97.1995 41.6299C99.9995 43.2299 100.51 45.4299 100.46 46.9899C100.37 49.3599 99.1595 51.2699 96.9395 52.5199L96.8895 52.5499C96.5595 52.7399 96.0995 52.9899 95.5295 53.0999C95.2995 53.1399 95.2295 53.1899 95.2295 53.1999C95.2295 53.1999 95.1095 53.3499 95.0995 53.9999C95.0695 55.8599 93.7895 57.1999 92.0595 57.1999Z" fill="#C1E1D8"/>
<path d="M102.3 79.2598C102.49 79.2498 102.67 79.2498 102.86 79.2498C105.3 79.1798 106.85 77.9398 107.41 75.6198C107.41 71.2398 107.41 66.8498 107.41 62.4698C106.78 61.0798 105.79 60.2598 104.17 60.2598C95.7797 60.2798 87.3797 60.2598 78.9897 60.2698C76.9597 60.2698 75.7897 61.4498 75.7897 63.4898C75.7797 67.1898 75.7997 70.8798 75.7697 74.5798C75.7597 75.7298 76.1897 76.6398 76.9597 77.4298C78.1897 78.6798 79.7197 79.0898 81.4097 79.0098C81.9697 78.9798 82.2297 79.1198 82.1397 79.7298C82.0697 80.1698 82.3397 80.7198 81.4697 80.7098C77.2097 80.6698 72.9497 80.6798 68.6897 80.7098C68.0997 80.7098 67.9697 80.5498 67.9697 79.9798C67.9997 76.8798 67.9897 73.7798 67.9797 70.6798C67.9797 70.1398 68.1697 69.7398 68.4797 69.3198C73.9497 61.8998 79.3997 54.4598 84.8697 47.0298C85.3897 46.3198 85.6697 45.6198 85.2997 44.7898C84.8897 43.8798 84.0597 43.7398 83.1797 43.7398C80.9597 43.7398 78.7297 43.7498 76.5097 43.7398C75.5497 43.7298 74.7797 44.0498 74.0897 44.7398C72.0597 46.7398 69.9797 48.6898 67.9397 50.6698C67.5497 51.0498 67.3797 51.1398 67.1497 50.5198C66.7197 49.3798 66.0997 48.3298 65.4297 47.2998C65.2397 46.9998 65.1397 46.6998 65.1197 46.3398C64.9397 41.3598 64.7397 36.3898 64.5697 31.4098C64.3897 26.0598 63.6097 20.8098 60.8497 16.1698C56.2697 8.45977 49.4997 3.75977 40.5697 2.31977C39.3597 2.11977 38.1097 2.17977 36.9397 1.75977C36.6297 1.75977 36.3097 1.75977 35.9997 1.75977C35.6197 1.90977 35.2497 1.90977 34.8697 1.75977C33.5497 1.75977 32.2397 1.75977 30.9197 1.75977C30.4097 2.09977 29.8097 2.01977 29.2497 2.12977C22.9797 3.35977 17.1997 5.54977 12.5997 10.2498C7.5797 15.3698 4.4997 21.1898 4.5497 28.5998C4.5897 34.1998 4.4397 39.7998 4.4397 45.4098C4.4397 45.8498 4.4297 46.2498 4.1497 46.6498C2.6297 48.8198 1.9497 51.2498 1.9697 53.8798C2.0397 61.4898 2.1297 69.0898 2.2297 76.6998C2.2497 78.1998 2.2897 79.6998 2.4197 81.1998C2.4497 81.5998 2.4897 81.8698 2.2497 82.2198C1.7497 82.9198 1.6197 83.7198 1.9297 84.5398C2.8697 86.9998 3.8897 89.4098 6.2997 90.8498C38.3697 90.8498 70.4397 90.8498 102.51 90.8498C103.67 90.7198 104.67 90.2598 105.38 89.3098C106.55 87.7298 107.17 85.9398 107.15 83.9798C107.13 82.0598 106.37 81.2298 104.46 80.8598C103.75 80.7298 103.04 80.6198 102.32 80.6198C101.85 80.6198 101.65 80.3598 101.65 79.9098C101.67 79.4598 101.89 79.2698 102.3 79.2598ZM55.9097 39.7798C55.4397 39.6498 55.5497 39.3498 55.5497 39.0598C55.5597 37.9598 55.3997 36.8698 55.0897 35.8198C54.3397 33.2598 52.8197 31.3398 50.3997 30.1498C47.3797 28.6498 44.1697 27.9598 40.6597 27.8698C42.2997 25.9498 43.1497 23.8198 42.8797 21.3698C42.6097 18.8998 41.4497 16.9198 39.4197 15.4998C36.1897 13.2398 31.8097 13.6798 29.0197 16.4698C26.4697 19.0298 25.4697 23.7598 28.8597 27.7898C27.5297 27.9398 26.2497 28.0998 24.9597 28.2398C17.6197 28.9998 14.7697 34.2798 14.2197 39.5398C14.1697 40.0498 14.0697 40.3198 13.5297 40.4198C11.2097 40.8798 9.0297 41.6998 7.0497 43.4598C7.0497 42.2598 7.0497 41.2498 7.0497 40.2398C7.0497 35.5398 7.1297 30.8498 7.3397 26.1598C7.5197 22.0598 9.1697 18.5998 11.5697 15.4398C17.8897 7.13976 26.4497 3.93977 36.6497 4.52977C38.4297 4.62977 40.1997 4.87977 41.9497 5.23977C49.7897 6.82977 59.6697 13.8998 61.3797 25.6198C61.7697 28.2898 61.8997 30.9798 62.0197 33.6598C62.1597 36.7898 62.2597 39.9098 62.3797 43.3098C60.3597 41.5398 58.2597 40.4098 55.9097 39.7798Z" fill="#1E1E1C"/>
<path d="M35.9996 1.75977C35.6196 2.08977 35.2496 2.00977 34.8696 1.75977C35.2496 1.75977 35.6196 1.75977 35.9996 1.75977Z" fill="#4B4A49"/>
<path d="M98.5695 32.8297C98.5095 34.7197 97.6095 36.0797 96.1295 37.0997C95.2795 37.6897 94.3795 38.1897 93.5495 38.8097C92.0795 39.9097 92.1595 40.9298 93.7495 41.8097C94.5995 42.2797 95.4795 42.6797 96.3195 43.1597C97.7695 43.9897 98.7595 45.1897 98.6895 46.9297C98.6195 48.7597 97.6495 50.0998 96.0595 50.9897C95.7895 51.1397 95.4995 51.3097 95.2095 51.3597C93.7295 51.6197 93.3595 52.6297 93.3295 53.9497C93.3095 54.9097 92.7795 55.4597 92.0195 55.4497C91.2095 55.4397 90.6995 54.7997 90.7195 53.8197C90.7695 51.1197 91.6095 49.9297 94.1395 48.9497C94.4595 48.8297 94.7895 48.6997 95.0695 48.5097C96.4195 47.5897 96.4195 46.2897 95.0295 45.4497C94.1795 44.9397 93.2495 44.5397 92.3795 44.0497C89.2895 42.3097 89.0095 39.0797 91.7795 36.8597C92.6495 36.1597 93.6595 35.6197 94.5795 34.9697C96.1395 33.8597 96.3495 32.6097 95.2595 31.0297C94.5495 30.0097 93.5495 29.2997 92.5795 28.5597C91.6195 27.8397 90.7095 27.0797 90.2095 25.9497C89.8095 25.0297 89.9895 24.2897 90.7195 23.9397C91.4695 23.5697 92.1195 23.8597 92.5695 24.8097C92.9095 25.5197 93.5095 25.9697 94.1095 26.4197C95.2595 27.2897 96.4095 28.1597 97.2795 29.3297C98.0595 30.3897 98.5295 31.5597 98.5695 32.8297Z" fill="#1E1E1C"/>
<path d="M58.9195 80.6604C50.5595 80.6704 42.1995 80.6704 33.8395 80.6804C33.7495 80.6804 33.6695 80.6404 33.5395 80.6204C34.0695 79.1104 34.5695 77.6004 35.1295 76.1204C35.3095 75.6504 35.8095 75.6504 36.2495 75.5904C41.4695 74.8504 46.0495 72.8304 49.5395 68.7504C52.7595 64.9804 54.3295 60.5204 54.7695 55.6404C54.8995 54.1504 54.0495 53.5104 52.5795 53.9504C45.7395 55.9804 40.2695 59.8304 36.6095 66.0604C36.5195 66.2104 36.4895 66.4204 36.2195 66.4904C35.7795 62.4304 34.2695 58.8304 31.5695 55.7704C29.2595 53.1404 26.4695 51.1704 23.2395 49.8304C21.6795 49.1804 21.0295 49.4104 20.4695 50.9504C18.4195 56.5104 17.8795 62.1804 19.9095 67.8404C21.5195 72.3204 24.8995 75.1504 29.2295 76.9404C29.8895 77.2104 30.5695 77.4604 31.2595 77.6604C31.6695 77.7804 31.7895 77.9404 31.5795 78.3204C31.5595 78.3504 31.5495 78.3804 31.5395 78.4104C30.7295 80.7004 30.7295 80.7004 28.2995 80.7004C22.6595 80.7004 17.0295 80.6904 11.3895 80.6904C11.0595 80.3304 11.0995 79.8804 11.0995 79.4404C11.0995 70.0904 11.0295 60.7304 11.1295 51.3804C11.1695 47.7104 13.3395 45.2504 16.4795 43.6104C17.5695 43.0404 18.7495 42.8104 20.0095 42.8104C28.9295 42.8404 37.8395 42.8004 46.7595 42.8404C47.0395 42.8404 47.3195 42.8504 47.5995 42.7604C47.7495 42.7304 47.9195 42.7004 48.0595 42.7504C51.9295 43.9504 55.6395 45.4004 57.8195 49.1804C58.4095 50.2004 58.7495 51.3004 58.8995 52.4504C59.0495 53.5904 59.1995 54.7404 59.1995 55.9004C59.1995 63.6504 59.1995 71.4004 59.1895 79.1604C59.1995 79.6604 59.3195 80.2104 58.9195 80.6604Z" fill="#C0DFD6"/>
<path d="M47.6595 42.8997C47.3595 43.2397 46.9495 43.0897 46.5995 43.0897C37.8295 43.0997 29.0695 43.1197 20.2995 43.0897C16.6295 43.0797 14.1395 44.8897 12.3495 47.9197C11.6095 49.1697 11.3695 50.4797 11.3695 51.9297C11.4095 61.5097 11.3895 71.0897 11.3895 80.6697C9.46951 80.6797 7.53951 80.6897 5.61951 80.6897C5.36951 80.6897 5.02951 80.7797 4.97951 80.3497C4.89951 79.0897 4.79951 77.8297 5.05951 76.5697C5.21951 75.7897 4.93951 75.0497 4.83951 74.2897C4.76951 69.8497 4.69951 65.4097 4.62951 60.9697C4.59951 58.9697 4.71951 56.9597 4.53951 54.9697C3.98951 49.1097 8.45951 43.9197 14.0695 42.8797C16.7195 42.3897 19.3795 42.1097 22.0795 42.1297C22.3795 42.0097 22.6995 42.0697 23.0095 42.0697C29.8595 42.0697 36.7195 42.0697 43.5695 42.0697C44.4795 42.0697 45.3795 42.1597 46.2795 42.1897C46.8095 42.2097 47.4295 42.2297 47.6595 42.8997Z" fill="#DCEEE7"/>
<path d="M47.6593 42.9002C46.1693 42.0702 44.4993 42.2101 42.8993 42.2001C36.3593 42.1401 29.8193 42.1801 23.2793 42.1801C22.8793 42.1801 22.4693 42.1501 22.0693 42.1301C22.8393 41.9001 23.6193 42.0001 24.3993 42.0001C33.9193 42.0001 43.4293 42.0001 52.9493 42.0201C56.6493 42.0301 59.5493 43.7301 61.8093 46.5501C62.6093 47.5401 63.2393 48.6701 63.9093 49.7601C64.9293 51.4201 65.4093 53.2101 65.3693 55.2001C65.2893 59.2101 65.3293 63.2101 65.3493 67.2201C65.3693 71.3202 65.3993 75.4202 65.4693 79.5102C65.4893 80.4402 65.2393 80.7901 64.2593 80.7401C62.4793 80.6501 60.6993 80.6802 58.9093 80.6602C58.9093 72.2402 58.9293 63.8101 58.8893 55.3901C58.8793 53.8701 58.7293 52.3401 58.2693 50.8701C57.6793 48.9901 56.4493 47.5201 54.9893 46.2801C52.8793 44.4801 50.2393 43.7401 47.6593 42.9002Z" fill="#92C3B3"/>
<path d="M91.9995 76.33C89.3095 76.33 86.6095 76.34 83.9195 76.34C83.6095 76.01 83.6195 75.6 83.6195 75.19C83.6095 71.85 83.5995 68.5 83.6195 65.16C83.6295 63.89 83.8495 63.66 85.0895 63.66C89.6495 63.64 94.2095 63.65 98.7695 63.66C99.1395 63.66 99.5195 63.66 99.8495 63.89C100.069 64.57 99.7995 65.24 99.8095 65.91C99.8395 68.91 99.8295 71.9 99.8195 74.9C99.8095 76.23 99.7595 76.25 98.4595 76.27C96.2995 76.3 94.1495 76.19 91.9995 76.33Z" fill="#C0DFD6"/>
<path d="M33.7094 68.6501C33.6194 70.7101 33.3194 72.7401 32.7894 74.7401C32.6794 75.1701 32.4794 75.2801 32.0494 75.1501C26.0894 73.3501 21.8094 69.2801 21.3194 62.2601C21.0994 59.1301 21.5694 56.1101 22.4494 53.1301C22.6294 52.5201 22.8394 52.4701 23.3594 52.7401C28.8294 55.5901 32.5394 59.7701 33.5194 66.0401C33.6394 66.9001 33.6394 67.7801 33.7094 68.6501Z" fill="#778E35"/>
<path d="M33.1796 39.4996C29.4896 39.5096 25.7896 39.5096 22.0996 39.5196C21.8896 39.2996 21.8496 39.0197 21.8296 38.7397C21.6196 36.3597 23.1696 33.6796 25.3296 32.6796C26.4896 32.1496 27.6996 31.9096 28.9696 31.9096C34.4796 31.9096 39.9896 31.9396 45.4996 31.8896C46.3896 32.0496 46.9296 32.6596 47.2796 33.4096C48.0896 35.1196 48.4996 36.9396 48.5296 38.8396C48.5396 39.2896 48.3596 39.4396 47.9196 39.4396C47.4596 39.4296 46.9896 39.3596 46.5296 39.4996C44.2096 39.4996 41.8996 39.4996 39.5796 39.4996C39.5696 39.2796 39.7296 39.2596 39.8896 39.2596C41.1196 39.2496 42.3596 39.2496 43.5896 39.2596C40.5396 39.1996 37.4996 39.4196 34.4596 39.3496C34.0896 39.3396 33.6996 39.4097 33.3396 39.3097C32.9996 39.2097 33.1596 39.3896 33.1796 39.4996Z" fill="#C0DFD6"/>
<path d="M104.209 83.7197C104.909 85.5097 103.219 88.2097 101.379 88.2497C101.189 88.2497 100.999 88.2497 100.819 88.2497C69.9093 88.2497 38.9993 88.2497 8.08934 88.2697C7.12934 88.2697 6.44934 88.0197 6.06934 87.1197C6.42934 86.7097 6.91934 86.7897 7.37934 86.7897C9.43934 86.7697 11.4893 86.7797 13.5493 86.7797C14.0193 86.7797 14.4793 86.7197 14.9493 86.6497C15.5693 86.5597 16.1993 86.5897 16.8293 86.5897C40.1893 86.5897 63.5493 86.5797 86.9093 86.6097C88.2693 86.6097 89.3893 86.4797 89.9293 85.0297C90.0393 84.7397 90.3293 84.5497 90.5493 84.3297C91.0593 83.9297 91.6693 83.9697 92.2593 83.9697C95.6993 83.9597 99.1493 83.9797 102.589 83.9597C103.129 83.9497 103.709 84.0997 104.209 83.7197Z" fill="#93C3B3"/>
<path d="M104.21 83.7199C104.25 84.4099 103.73 84.2399 103.37 84.2399C99.5597 84.2499 95.7596 84.2399 91.9496 84.2399C91.5096 84.2399 91.0696 84.2099 90.6696 84.4299C90.1096 84.8199 89.4697 84.7399 88.8496 84.7399C77.4896 84.7399 66.1297 84.7399 54.7696 84.7399C42.0296 84.7399 29.2996 84.7399 16.5596 84.7399C16.3096 84.7399 16.0596 84.7399 15.8096 84.7399C14.7896 84.7599 14.7696 84.7799 15.0396 85.7199C15.1596 86.1199 15.2396 86.5099 14.9396 86.8799C14.5696 87.1099 14.1596 87.0699 13.7496 87.0699C11.1896 87.0799 8.61965 87.0899 6.05965 87.1099C5.32965 86.2299 4.97965 85.1499 4.52965 84.1299C4.17965 83.3299 4.91965 83.5899 5.19965 83.5899C8.26965 83.5399 11.3296 83.5299 14.3996 83.5099C30.4796 83.4499 46.5696 83.2999 62.6497 83.2899C74.6696 83.2799 86.6796 83.2799 98.6996 83.3499C100.54 83.3699 102.4 83.3199 104.21 83.7199Z" fill="#DCEEE7"/>
<path d="M51.9797 56.8799C51.4197 60.5299 50.1497 63.7399 47.9397 66.5599C45.2497 69.9999 41.6097 71.8399 37.4197 72.7399C36.7397 72.8899 36.7697 72.6199 36.9197 72.1099C38.0697 68.1399 40.1497 64.7399 43.2297 61.9799C45.7397 59.7199 48.6197 58.0499 51.9797 56.8799Z" fill="#778E35"/>
<path d="M99.9097 63.9803C94.8697 63.9803 89.8296 63.9903 84.7796 63.9503C84.0396 63.9403 83.8997 64.2103 83.8997 64.8803C83.9297 68.7003 83.9097 72.5203 83.9097 76.3403C82.7597 76.4403 81.5996 76.4903 80.4496 76.3803C78.9696 76.2403 78.3096 75.4703 78.3096 73.9803C78.3096 70.6003 78.3297 67.2203 78.2997 63.8503C78.2897 63.0903 78.4997 62.8203 79.2997 62.8303C87.4897 62.8603 95.6896 62.8503 103.88 62.8403C104.59 62.8403 104.98 62.9903 104.78 63.7903C104.58 63.9603 104.35 64.0603 104.09 64.0503C102.7 64.0103 101.3 64.2103 99.9097 63.9803Z" fill="#DCEEE7"/>
<path d="M45.5897 32.01C45.2797 32.34 44.8797 32.19 44.5197 32.19C39.1997 32.2 33.8797 32.19 28.5597 32.2C27.2897 32.2 26.1097 32.5801 24.9897 33.1501C22.9297 34.2101 22.4397 36.16 22.1097 38.2C22.0397 38.63 22.0997 39.07 22.0997 39.51C20.5397 39.63 18.9797 39.71 17.4197 39.87C16.7297 39.94 16.7897 39.55 16.8597 39.14C17.4597 35.21 19.5797 31.63 24.5197 30.86C28.4397 30.25 32.3697 30.24 36.3197 30.29C38.2297 30.31 40.1297 30.42 42.0397 30.51C42.4697 30.53 42.8997 30.63 43.3397 30.69C43.8797 30.83 44.4197 30.97 44.9197 31.23C45.2197 31.41 45.6497 31.5 45.5897 32.01Z" fill="#DCEEE7"/>
<path d="M99.9098 63.9799C101.52 63.5699 103.16 63.8899 104.79 63.7799C104.8 67.4099 104.82 71.0399 104.81 74.6699C104.8 75.7799 103.99 76.4599 102.71 76.4199C99.7998 76.3199 96.8898 76.3599 93.9798 76.3699C93.3198 76.3699 92.6698 76.3499 92.0098 76.3399C92.2798 76.0999 92.6098 76.1999 92.9098 76.1999C94.7198 76.1899 96.5398 76.1399 98.3498 76.1999C99.2598 76.2299 99.5898 76.0399 99.5598 75.0299C99.4898 71.7799 99.5398 68.5299 99.5198 65.2799C99.5098 64.7799 99.5498 64.3399 99.9098 63.9799Z" fill="#92C3B3"/>
<path d="M68.1296 61.8996C68.0796 59.4896 68.0296 57.0896 67.9796 54.6796C67.9796 54.4996 67.9396 54.2995 68.1296 54.1695C68.5696 54.7195 68.3196 55.3695 68.3696 55.9795C68.4096 56.4995 68.3396 57.0395 68.4096 57.6796C69.3996 56.5795 70.1896 55.4396 71.0296 54.3396C72.5196 52.4096 74.0996 50.5395 75.4696 48.5295C76.2596 47.3595 77.2196 46.8096 78.6196 46.9896C79.0496 47.0496 79.4996 46.9295 79.9096 47.1395C80.1996 47.5495 79.8196 47.7695 79.6396 48.0095C76.0696 52.5095 72.4696 56.9896 68.8796 61.4696C68.6796 61.6996 68.5196 62.0196 68.1296 61.8996Z" fill="#C0DFD6"/>
<path d="M68.1294 61.9003C69.3394 60.7203 70.2794 59.3303 71.3394 58.0303C74.2294 54.4403 77.0894 50.8303 79.9594 47.2303C79.9594 46.8203 79.7294 46.7303 79.3594 46.7403C78.6494 46.7703 77.9294 46.7603 77.2194 46.7403C76.8594 46.7303 76.4594 46.8003 76.1894 46.4603C78.0494 46.2303 79.9194 46.3903 81.9094 46.4303C81.1994 47.7503 80.2994 48.7703 79.4994 49.8603C75.9294 54.7503 72.3294 59.6103 68.7394 64.4903C68.5794 64.7103 68.4294 65.1103 68.1694 65.0303C67.7894 64.9203 67.9794 64.4903 67.9894 64.2203C68.0294 63.4503 67.8394 62.6603 68.1294 61.9003Z" fill="#92C3B3"/>
<path d="M45.5896 32.01C44.9796 31.32 44.0596 31.18 43.3296 30.71C46.0196 30.97 48.5696 31.71 50.6896 33.42C52.4496 34.83 52.9396 36.87 52.9596 39.05C52.9596 39.5 52.6996 39.54 52.3496 39.53C50.4096 39.51 48.4696 39.51 46.5296 39.49C46.6096 39.45 46.6896 39.38 46.7696 39.36C47.2796 39.25 47.9896 39.6 48.2496 39.15C48.4696 38.77 48.2596 38.13 48.1996 37.61C48.0596 36.21 47.6296 34.88 47.0996 33.58C46.8196 32.88 46.1996 32.44 45.5896 32.01Z" fill="#92C3B3"/>
<path d="M32.0495 26.95C29.3995 25.38 28.4895 22.24 29.9095 19.57C31.2795 16.99 34.3895 15.92 36.9595 17.14C37.1795 17.44 37.6695 17.55 37.6395 18.04C37.5695 18.44 37.2595 18.5 36.9395 18.53C36.5395 18.57 36.1295 18.63 35.7295 18.71C32.8395 19.28 31.3895 21.36 31.7795 24.29C31.8895 25.13 32.2995 25.89 32.3595 26.73C32.3195 26.88 32.2395 27 32.0495 26.95Z" fill="#DCEEE7"/>
<path d="M76.1894 46.46C77.5694 46.46 78.9594 46.46 80.3794 46.46C80.3794 46.88 80.0694 47 79.9594 47.23C76.0994 47.33 77.2594 46.68 74.9394 49.72C72.8194 52.49 70.6794 55.23 68.5494 57.99C68.4794 58.08 68.3694 58.13 68.1294 58.31C68.1294 56.83 68.1294 55.5 68.1294 54.17C70.7694 51.56 73.3994 48.93 76.1894 46.46Z" fill="#DCEEE7"/>
<path d="M32.0498 26.9499C32.1198 26.8899 32.1898 26.8199 32.2498 26.7599C32.6398 26.2699 33.2298 26.2499 33.7698 26.1399C37.3598 25.3899 38.9798 22.5899 37.8298 19.0799C37.6998 18.6999 37.6498 18.2999 37.4998 17.9199C37.3198 17.6599 37.1398 17.3999 36.9498 17.1299C40.1998 18.2099 41.4198 22.7199 39.2198 25.5199C37.4498 27.7899 34.4898 28.3799 32.0498 26.9499Z" fill="#92C3B3"/>
<path d="M84.6998 80.13C84.4998 79.27 84.7498 78.96 85.7098 78.97C89.7098 79.03 93.7198 78.99 97.7198 78.99C99.0498 78.99 99.2098 79.26 98.7398 80.63C98.3998 80.31 97.9798 80.4 97.5798 80.4C93.6998 80.39 89.8198 80.4 85.9398 80.39C85.5198 80.4 85.0598 80.48 84.6998 80.13Z" fill="#93C3B3"/>
<path d="M84.6997 80.13C89.0897 80.13 93.4897 80.12 97.8797 80.13C98.2397 80.13 98.7597 79.95 98.7497 80.63C95.0897 80.65 91.4297 80.66 87.7697 80.68C86.9197 80.68 86.0797 80.67 85.2297 80.69C84.8097 80.71 84.5597 80.63 84.6997 80.13Z" fill="#BADCD3"/>
<path d="M33.1795 39.5002C32.9995 39.2602 32.6595 39.4102 32.2695 39.2002C36.3295 39.2002 40.1995 39.2002 44.0695 39.2002C42.5795 39.5102 41.0595 39.1202 39.5795 39.5002C37.4395 39.5002 35.3095 39.5002 33.1795 39.5002Z" fill="#CFE4DE"/>
<path d="M4.83971 74.2998C5.26971 75.2298 5.48971 76.0898 5.08971 77.1998C4.74971 78.1398 4.98971 79.2998 4.96971 80.3598C4.64971 79.5798 4.83971 78.7598 4.81971 77.9598C4.77971 76.7398 4.82971 75.5198 4.83971 74.2998Z" fill="#B6D0C7"/>
<path d="M14.9494 86.89C15.0494 86.26 14.7494 85.74 14.4894 85.2C14.2594 84.73 14.2194 84.35 14.9494 84.44C15.1694 84.47 15.3894 84.44 15.6094 84.44C40.6294 84.44 65.6494 84.44 90.6694 84.43C90.4894 84.68 90.2194 84.91 90.1294 85.19C89.6394 86.72 88.5694 86.92 87.0894 86.92C63.0494 86.88 38.9994 86.89 14.9494 86.89Z" fill="#C0DFD6"/>
<path d="M37.4996 17.9199C39.1396 20.2599 38.5596 24.0199 36.2596 25.6199C35.5896 26.0899 34.7496 26.1599 33.9696 26.3599C33.3996 26.5099 32.8196 26.6299 32.2496 26.7599C31.6496 25.4299 31.2596 24.0299 31.5496 22.5899C32.1896 19.4699 33.4096 18.7299 36.6796 18.2899C36.9996 18.2599 37.4196 18.4499 37.4996 17.9199Z" fill="#C0DFD6"/>
</svg>
