<svg width="30" height="21" viewBox="0 0 30 21" fill="none" xmlns="http://www.w3.org/2000/svg">
<path d="M13.0435 7.96094L13.559 10.2898H17.2464V7.96094H13.0435Z" fill="#0F5628"/>
<path d="M19.2721 7.96094L19.26 10.2898H22.7776L23.3901 7.96094H19.2721Z" fill="#0F5628"/>
<path d="M13.7344 15.9062C12.4426 15.9062 11.3994 16.9555 11.3994 18.2412C11.3994 19.533 12.4486 20.5822 13.7344 20.5822C15.0262 20.5822 16.0693 19.5391 16.0693 18.2412C16.0754 16.9494 15.0262 15.9062 13.7344 15.9062Z" fill="#0F5628"/>
<path d="M22.5344 15.9062C21.2426 15.9062 20.1934 16.9555 20.1934 18.2412C20.1934 19.533 21.2426 20.5822 22.5344 20.5822C23.8262 20.5822 24.8693 19.5391 24.8693 18.2412C24.8693 16.9494 23.8262 15.9062 22.5344 15.9062Z" fill="#0F5628"/>
<path d="M28.4605 2.36888C28.3513 2.33249 28.2361 2.32036 28.1269 2.32036C27.6296 2.32036 27.1687 2.64179 27.0171 3.14517L26.8594 3.66674H9.75667L9.14412 1.18624C9.02283 0.664669 8.55584 0.300781 8.0282 0.300781H2.05437C1.41757 0.300781 0.895996 0.816289 0.895996 1.45916C0.895996 2.09596 1.41757 2.61753 2.05437 2.61753H7.11848L9.8537 13.7101C9.98106 14.2256 10.4481 14.5894 10.9757 14.5894H25.1431C25.6525 14.5894 26.1074 14.2498 26.2529 13.7646L29.2368 3.80623C29.2732 3.691 29.2853 3.58184 29.2853 3.47267C29.2853 2.98142 28.9639 2.51443 28.4605 2.36888ZM24.3486 12.0422L24.2758 12.2788H11.8854L10.3328 5.97743H26.168L24.3486 12.0422Z" fill="#0F5628"/>
</svg>
