<svg width="86" height="93" viewBox="0 0 86 93" fill="none" xmlns="http://www.w3.org/2000/svg">
<g clip-path="url(#clip0)">
<path d="M43.9905 92.52C34.8505 92.52 25.5405 92.31 19.1205 91.89H19.0605L19.0005 91.87C17.6405 91.69 16.4505 91.11 15.4505 90.14C13.5205 88.27 11.7705 86.07 9.78046 83.01C5.33046 76.13 2.53046 69.28 1.21046 62.04C0.480463 58.02 0.410463 53.63 1.00046 48.62C1.27046 46.29 1.56046 44.34 1.90046 42.53C-0.869537 39.45 -0.0595374 35.83 0.830463 33.33C1.71046 30.84 3.19046 28.74 4.62046 26.72L4.87046 26.37C6.37046 24.23 7.97046 22.13 9.52046 20.1L9.55046 20.06C9.54046 18.07 9.54046 16.39 9.55046 14.8C5.95046 12.98 5.12046 10.23 5.07046 8.2C5.04046 6.47 5.44046 4.93 6.26046 3.6C6.98046 2.44 8.02046 1.47 9.35046 0.7L9.49046 0H74.0505L74.3705 0.13C75.5905 0.62 76.9805 1.18 78.1905 2.28C80.2205 4.13 81.0205 6.71 80.4005 9.36C79.7905 11.96 77.8705 14.26 75.6405 15.11C75.6405 15.57 75.6505 16.04 75.6705 16.53C75.7105 17.82 75.7505 19.14 75.5305 20.51C76.4905 21.88 77.4505 23.25 78.4005 24.62C80.1405 27.11 81.9305 29.68 83.7005 32.2C86.1905 35.76 86.1505 38.99 83.5505 42.33C83.5705 42.4 83.5805 42.48 83.6005 42.57C84.0605 45.25 84.4205 48 84.7105 50.98C85.3405 57.6 84.3805 64.18 81.7605 71.09C79.3505 77.44 76.0405 83.19 71.9005 88.16C71.6905 88.41 71.4905 88.63 71.2905 88.84C71.1105 89.04 70.9305 89.22 70.7805 89.4C69.4405 91.04 67.5705 91.92 65.2205 92.03C59.5905 92.36 51.8605 92.52 43.9905 92.52ZM19.4105 88.37C31.2705 89.14 52.9805 89.21 65.0305 88.51H65.0505C66.4105 88.45 67.3405 88.04 68.0505 87.17C68.2705 86.9 68.4905 86.66 68.7105 86.43C68.8805 86.24 69.0505 86.07 69.1905 85.9C73.0805 81.23 76.2005 75.83 78.4605 69.84C80.8805 63.44 81.7805 57.38 81.1905 51.32C80.9105 48.43 80.5605 45.77 80.1205 43.17C80.1205 43.15 80.1005 43.09 80.0905 43.05C79.9805 42.63 79.6805 41.5 80.5605 40.43C82.4205 38.18 82.4805 36.61 80.8105 34.23C79.0405 31.7 77.2405 29.13 75.5105 26.64C74.5005 25.19 73.4905 23.75 72.4805 22.3C72.4705 22.29 72.4605 22.28 72.4605 22.27C72.2905 22.04 71.7605 21.35 71.9805 20.35C72.2305 19.19 72.1905 17.95 72.1505 16.64C72.1305 15.98 72.1105 15.29 72.1205 14.6C72.1505 13.16 72.8305 12.27 74.2005 11.87C75.2505 11.57 76.5705 10.25 76.9705 8.55C77.2005 7.57 77.1905 6.13 75.8205 4.88C75.1505 4.27 74.2905 3.89 73.3705 3.52H11.5705C11.5005 3.56 11.4205 3.59 11.3405 3.62C9.45046 4.62 8.55046 6.09 8.60046 8.1C8.62046 9.15 8.96046 10.68 11.5505 11.83C12.5805 12.29 13.1005 13.12 13.0905 14.3C13.0805 16.04 13.0805 17.88 13.0905 20.1C13.0905 20.85 12.8705 21.51 12.4205 22.1L12.3405 22.21C10.8105 24.22 9.24046 26.3 7.77046 28.38L7.52046 28.73C6.17046 30.64 4.89046 32.45 4.17046 34.49C3.15046 37.37 3.34046 39.04 4.82046 40.45C5.74046 41.33 5.53046 42.36 5.46046 42.71L5.45046 42.75C5.09046 44.6 4.79046 46.59 4.51046 49.02C3.95046 53.75 4.01046 57.68 4.69046 61.4C5.92046 68.17 8.56046 74.6 12.7505 81.08C14.5805 83.91 16.1705 85.92 17.9105 87.59C18.3505 88.04 18.8205 88.28 19.4105 88.37Z" fill="#FFCF4A"/>
<path d="M73.7102 1.75977C74.8802 2.22977 76.0302 2.69977 77.0002 3.57977C80.8702 7.09977 77.9402 12.6398 74.6802 13.5598C74.0402 13.7398 73.8902 13.9898 73.8802 14.6298C73.8302 16.6598 74.1302 18.6998 73.7002 20.7098C73.6402 20.9698 73.8102 21.1098 73.9302 21.2898C76.7102 25.2598 79.4802 29.2398 82.2602 33.2098C84.3802 36.2298 84.3002 38.6598 81.9302 41.5398C81.5402 42.0098 81.7902 42.4398 81.8702 42.8598C82.3402 45.6098 82.7002 48.3598 82.9602 51.1398C83.6002 57.8198 82.4802 64.2298 80.1202 70.4598C77.8302 76.4998 74.6902 82.0498 70.5502 87.0198C70.1902 87.4498 69.7802 87.8398 69.4202 88.2798C68.3102 89.6398 66.8502 90.1898 65.1402 90.2598C53.0502 90.9598 31.0302 90.8798 19.2402 90.1098C18.2302 89.9698 17.4002 89.5598 16.6802 88.8598C14.5702 86.8298 12.8502 84.4798 11.2702 82.0398C7.22024 75.7998 4.29024 69.0898 2.95024 61.7298C2.17024 57.4398 2.25024 53.1398 2.76024 48.8298C3.01024 46.6898 3.31024 44.5498 3.72024 42.4298C3.77024 42.1898 3.83024 41.9698 3.60024 41.7498C1.17024 39.4398 1.53024 36.6698 2.50024 33.9198C3.35024 31.5198 4.86024 29.4498 6.32024 27.3798C7.83024 25.2298 9.42024 23.1398 11.0102 21.0498C11.2402 20.7498 11.3202 20.4698 11.3202 20.1198C11.3102 18.1798 11.3102 16.2398 11.3202 14.2998C11.3202 13.8998 11.2702 13.6498 10.8302 13.4498C8.53024 12.4298 6.90024 10.7898 6.84024 8.14977C6.78024 5.37977 8.11024 3.31977 10.5902 2.02977C10.7202 1.95977 10.9002 1.95977 10.9402 1.75977C31.8602 1.75977 52.7802 1.75977 73.7102 1.75977Z" fill="#1E1E1C"/>
<path d="M58.6805 87.9798C49.5205 88.2798 40.3605 88.2698 31.2005 88.0998C29.6105 88.0698 28.0105 88.0498 26.4205 88.0098C25.5205 87.9898 24.6105 88.0798 23.7205 87.8698C20.8905 84.8298 19.0205 81.1898 17.3305 77.4398C16.7305 76.0998 16.0505 74.7898 15.5505 73.4098C14.3705 70.1498 13.8405 66.7598 13.4905 63.3198C13.1705 60.1098 13.0205 56.8898 13.1305 53.6698C13.2405 50.5798 13.5605 47.4998 13.5205 44.3998C13.5105 43.8698 13.6905 43.3498 13.9305 42.8698C14.0805 42.7998 14.2305 42.7998 14.3805 42.8798C17.5105 44.4498 20.5805 43.9098 23.6005 42.5498C24.2405 42.2598 24.7505 42.1898 25.3405 42.5798C28.4005 44.6098 31.6405 44.1998 34.9205 43.2898C35.1905 43.2098 35.4605 43.1098 35.7005 42.9798C36.5205 42.4998 37.2405 42.6298 38.0705 43.0898C40.9905 44.6998 43.9905 44.4298 46.9405 43.1898C47.8105 42.8198 48.4405 42.9198 49.2905 43.2998C52.3405 44.6398 55.4405 44.9898 58.4505 43.1198C59.5705 42.4298 59.7205 42.4398 60.7805 43.2298C63.7405 45.4398 66.8905 45.9498 70.2905 44.2698C71.2205 43.8098 71.5105 43.9598 71.5005 44.9798C71.4505 48.5098 71.6305 52.0498 71.3805 55.5798C71.2505 57.3798 71.1905 59.1998 71.1505 61.0098C71.0005 67.5498 69.5705 73.7998 66.8005 79.7098C65.4405 82.6098 63.2405 84.9998 61.2705 87.5098C60.8605 88.0398 60.2605 87.8998 59.7005 87.9198C59.3705 87.9298 59.0205 87.8698 58.6805 87.9798Z" fill="#FFCF4A"/>
<path d="M41.3305 30.5003C41.5605 31.1103 41.9705 31.4803 42.6505 31.4603C43.2905 31.4403 43.6705 31.0703 43.8805 30.5003C43.9705 28.7803 43.9005 27.0603 43.9205 25.3403C43.9305 24.3303 44.0105 24.2103 45.0405 24.2103C48.7005 24.1903 52.3605 24.1903 56.0205 24.2103C56.4705 24.2103 56.9005 24.2803 57.1905 24.6803C58.7505 26.6703 60.3005 28.6703 61.8605 30.6603C62.5205 31.5103 63.2905 31.7003 63.9305 31.2103C64.6005 30.7003 64.6105 29.9503 63.9405 29.0703C62.7905 27.5503 61.6305 26.0403 60.4805 24.5203C60.7705 24.1903 61.1605 24.2503 61.5305 24.2503C64.3105 24.2403 67.0905 24.2603 69.8705 24.2403C70.7005 24.2303 71.2905 24.5503 71.7505 25.2303C73.8305 28.3503 76.1005 31.3303 78.3505 34.3303C78.7305 34.8303 79.0705 35.3503 79.3105 35.9403C79.9405 37.5103 79.1605 39.0103 77.5105 39.3903C76.3005 39.6703 75.2305 39.3403 74.2605 38.6103C74.0505 38.3103 73.8205 38.0103 73.6205 37.7003C72.9805 36.7103 72.1305 36.6003 71.2905 37.4303C70.3105 38.4003 69.2805 39.3003 68.0705 39.9903C66.7205 40.7603 65.4705 40.6903 64.2205 39.7703C63.3105 39.1003 62.5105 38.3103 61.8205 37.4203C60.9905 36.3503 59.8905 36.3703 59.1305 37.5003C58.1105 39.0203 56.6805 39.9503 54.9805 40.5503C53.9005 40.9303 53.0305 40.6903 52.2305 39.9503C51.5605 39.3303 51.0505 38.5803 50.4805 37.8703C49.3905 36.5403 48.5005 36.5003 47.2805 37.6803C46.3605 38.5703 45.4005 39.4103 44.2105 39.9703C43.3605 40.3703 42.5605 40.3903 41.7005 39.9703C40.2805 39.2903 39.0005 38.4103 37.6805 37.5703C36.5405 36.8403 36.1005 36.8603 35.1505 37.8503C34.0905 38.9403 32.9505 39.8703 31.4705 40.3603C30.1705 40.7903 29.0005 40.6003 27.9605 39.7303C27.3805 39.2503 26.8405 38.7303 26.2605 38.2503C25.2805 37.4203 24.4205 37.3703 23.3605 38.0703C22.2905 38.7803 21.2205 39.4803 20.0105 39.9303C18.4105 40.5203 17.0405 40.1703 15.8905 38.9303C15.5105 38.5203 15.1305 38.1003 14.7605 37.6703C13.7005 36.4403 13.0905 36.4403 12.0905 37.6603C10.0805 38.7403 8.00054 37.5703 7.88054 35.3003C7.84054 34.6003 7.99054 33.9403 8.17054 33.2703C8.99054 30.2203 10.4305 27.4603 12.1605 24.8503C12.3705 24.5403 12.5505 24.1903 13.0105 24.2003C16.5305 24.5203 20.0705 24.3403 23.5905 24.4103C23.9805 24.4203 24.5105 24.2803 24.6705 24.8803C23.6105 26.3403 22.5405 27.8003 21.4805 29.2603C20.8405 30.1403 20.8405 30.9003 21.4805 31.4103C22.1405 31.9303 22.9405 31.7103 23.6005 30.8103C25.1305 28.7603 26.6505 26.7103 28.1805 24.6703C28.5605 24.4103 29.0005 24.4003 29.4405 24.4003C32.9305 24.4003 36.4205 24.3903 39.9205 24.4003C41.2505 24.4003 41.2905 24.4703 41.3005 25.7503C41.3105 27.3303 41.2305 28.9103 41.3305 30.5003Z" fill="#F8C5A5"/>
<path d="M58.6804 87.9805C58.8204 87.9305 58.9804 87.8204 59.1104 87.8405C60.3104 88.0504 61.0804 87.5105 61.7504 86.5505C63.1804 84.5105 64.8703 82.6405 66.0903 80.4605C67.6103 77.7505 68.6003 74.8205 69.3403 71.8205C70.0303 69.0405 70.6104 66.2505 70.7304 63.3605C70.8304 60.7805 70.9304 58.1905 71.1104 55.6105C71.3604 52.0105 71.1703 48.4205 71.2504 44.8305C71.2504 44.6205 71.2303 44.4105 71.2104 44.0905C70.0004 44.6905 68.8804 45.2305 67.5804 45.4105C64.8904 45.7805 62.5804 45.0005 60.5404 43.3405C59.8404 42.7705 59.4204 42.7905 58.6804 43.2505C55.4004 45.3305 52.0504 44.9605 48.7404 43.2905C48.3304 43.0805 48.0504 42.9505 47.5604 43.1805C44.1204 44.7605 40.6804 45.1205 37.3104 42.9505C36.9204 42.7005 36.6204 42.8505 36.2704 43.0205C33.5604 44.3505 30.7004 44.5105 27.7804 44.0305C26.7404 43.8605 25.8804 43.2405 25.0104 42.7005C24.6204 42.4605 24.3804 42.4405 23.9504 42.6805C21.3804 44.0805 18.6304 44.3505 15.7804 43.8105C15.1004 43.6805 14.5204 43.3005 13.9604 42.9105C12.5404 43.3905 11.2904 44.3505 9.71035 44.4305C8.43035 44.5005 7.17035 44.5805 6.11035 43.6505C6.14035 43.3505 6.19035 43.1505 6.62035 43.2105C9.17035 43.6105 11.1904 42.5405 12.9004 40.7805C13.3404 40.3305 13.5704 40.2305 14.0704 40.7105C16.5104 43.0305 18.9004 43.3805 21.9504 41.9005C22.6204 41.5705 23.3004 41.2205 23.8804 40.7605C24.5103 40.2605 24.8804 40.3805 25.4204 40.9205C27.9604 43.4505 30.6503 43.8205 33.7803 42.1605C34.6203 41.7205 35.4104 41.1905 36.0404 40.5105C36.5504 39.9505 36.9204 40.0505 37.4504 40.4305C38.4404 41.1405 39.5103 41.7305 40.6003 42.2805C42.2003 43.1005 43.7803 43.0205 45.3604 42.2305C46.4104 41.7105 47.3303 41.0205 48.1903 40.2405C48.5803 39.8805 48.8104 39.8505 49.1504 40.3105C51.8804 44.0005 54.6604 44.0705 58.5004 41.6705C58.6304 41.5905 58.7603 41.4905 58.8904 41.4105C59.4903 41.0305 59.9204 40.1205 60.5604 40.1905C61.1204 40.2505 61.6104 41.0005 62.1404 41.4405C65.0704 43.8105 67.8204 43.7105 71.1104 41.0205C71.8604 40.4005 72.2803 40.2305 73.0404 41.0505C74.5104 42.6305 76.4904 42.9605 78.5504 42.8505C78.9404 42.8305 79.2104 42.7805 79.2904 43.2705C79.9804 47.5005 80.5904 51.7305 80.4804 56.0405C80.3504 61.2905 79.0503 66.2805 77.0603 71.1105C74.8703 76.4005 71.9804 81.2705 68.3204 85.6905C67.2004 87.0405 65.9403 87.8205 64.1804 87.8205C62.3703 87.8005 60.5303 88.0705 58.6804 87.9805Z" fill="#E8B420"/>
<path d="M6.13028 43.6398C7.77028 44.3398 9.44028 44.3798 11.1403 43.8798C11.7503 43.6998 12.2903 43.4398 12.7903 43.0498C13.1403 42.7798 13.5303 42.5498 13.9703 42.9098C14.0103 43.8898 13.7503 44.8398 13.7503 45.8298C13.7503 50.0098 13.2003 54.1898 13.4103 58.3798C13.6603 63.3098 13.9503 68.2498 15.6903 72.9198C17.1303 76.7798 18.8803 80.5298 21.0803 84.0298C21.7103 85.0298 22.5103 85.9198 23.2103 86.8698C23.4303 87.1698 23.8503 87.3798 23.7203 87.8698C22.4403 87.7898 21.1603 87.7098 19.8903 87.6198C19.2403 87.5798 18.7103 87.2898 18.2603 86.8198C15.0803 83.5298 12.6503 79.7198 10.5503 75.6898C7.86028 70.5498 5.98028 65.1698 5.21028 59.3998C4.73028 55.7698 4.96028 52.1598 5.39028 48.5498C5.59028 46.9098 5.88028 45.2798 6.13028 43.6398Z" fill="#FEEBB0"/>
<path d="M71.2403 16.0403C71.2503 17.0403 71.2203 18.0403 71.2803 19.0403C71.3203 19.6603 71.1103 19.8303 70.5003 19.8203C68.0603 19.7903 65.6203 19.8103 63.1703 19.8103C47.1103 19.8103 31.0503 19.8003 14.9803 19.8303C14.1203 19.8303 13.8603 19.6103 13.9203 18.7603C14.0003 17.7303 13.9603 16.7003 13.9603 15.6603C14.2103 15.4103 14.5303 15.4103 14.8403 15.4503C15.8403 15.5803 16.8403 15.5303 17.8403 15.5303C34.4403 15.5303 51.0503 15.5303 67.6503 15.5403C68.8703 15.5603 70.1003 15.5303 71.2403 16.0403Z" fill="#F7BFCE"/>
<path d="M75.5808 5.94043C77.3608 7.49043 75.3508 10.9504 73.7008 11.1604C73.1708 11.2304 72.6408 11.2704 72.1108 11.2704C53.3008 11.2804 34.5008 11.2804 15.6908 11.2604C14.5408 11.2604 13.3808 11.5104 12.2508 11.1504C11.7708 10.8704 11.3108 10.5604 11.2708 9.92043C11.2008 9.10043 11.6508 8.81043 12.4008 8.80043C12.4908 8.80043 12.5908 8.79043 12.6808 8.79043C26.8608 8.52043 41.0408 8.50043 55.2208 8.66043C60.7608 8.72043 66.3008 8.70043 71.8408 8.79043C72.4308 8.80043 73.0308 8.80043 73.6108 8.65043C74.8508 8.33043 75.3508 7.62043 75.2608 6.34043C75.2908 6.14043 75.3708 6.00043 75.5808 5.94043Z" fill="#EBA67C"/>
<path d="M71.2403 16.04C52.8603 15.61 34.4903 15.97 16.1103 15.87C15.3803 15.87 14.6903 15.62 13.9703 15.67C13.8303 13.79 13.8303 13.79 15.6403 13.79C33.7403 13.79 51.8403 13.79 69.9503 13.79C71.2903 13.79 71.3003 13.79 71.2903 15.11C71.2903 15.42 71.2603 15.73 71.2403 16.04Z" fill="#F39FB7"/>
<path d="M11.51 10.2198C11.76 10.5298 12.01 10.8498 12.25 11.1598C10.28 10.8798 8.94002 8.79984 9.52002 6.91984C10.06 5.14984 11.17 4.33984 13.01 4.33984C32.64 4.34984 52.28 4.35984 71.91 4.34984C73.4 4.34984 74.69 4.64984 75.58 5.93984C75.52 5.98984 75.47 6.03984 75.41 6.08984C74.89 6.49984 74.27 6.37984 73.69 6.37984C61.15 6.38984 48.6 6.37984 36.06 6.37984C29.87 6.37984 23.67 6.37984 17.48 6.37984C16.26 6.37984 15.04 6.40984 13.83 6.54984C12.1 6.73984 11.32 7.55984 11.37 9.29984C11.37 9.59984 11.33 9.93984 11.51 10.2198Z" fill="#FCDAC6"/>
<path d="M74.2503 38.6001C75.2503 38.8701 76.1803 39.4002 77.3103 39.1802C78.9103 38.8602 79.7303 37.5502 79.0903 36.0602C78.5003 34.6702 77.4703 33.5501 76.5603 32.3701C74.7903 30.0701 73.1203 27.7101 71.4903 25.3101C71.0903 24.7301 70.6603 24.4801 69.9503 24.4901C66.7903 24.5301 63.6303 24.5102 60.4703 24.5202C59.8803 24.0502 59.5103 23.3901 59.0703 22.8101C59.2303 22.5101 59.4803 22.6301 59.6703 22.6301C63.4003 22.6201 67.1203 22.6402 70.8503 22.6102C71.4903 22.6102 71.9003 22.8502 72.2503 23.3502C74.9803 27.2802 77.7203 31.2001 80.4403 35.1401C80.9603 35.9001 81.3403 36.7101 81.1503 37.6901C80.6303 40.3401 77.4003 41.3002 75.0603 39.4902C74.7503 39.2402 74.4103 39.0001 74.2503 38.6001Z" fill="#EBA67D"/>
<path d="M12.8109 24.3096C10.9309 27.0796 9.37092 29.9896 8.43092 33.2396C7.46092 36.5996 8.67092 38.1096 12.1009 37.6696C11.1609 39.2196 9.96092 40.4396 8.07092 40.7296C6.17092 41.0196 4.43092 39.5796 4.39092 37.6596C4.36092 36.4196 4.63092 35.2396 5.20092 34.1396C7.28092 30.1196 10.0509 26.5696 12.7509 22.9796C13.0309 22.6096 13.3609 22.5996 13.7409 22.6696C13.8209 23.4296 13.3209 23.8696 12.8109 24.3096Z" fill="#FCDAC6"/>
<path d="M41.3307 30.4996C40.9907 29.1196 41.2307 27.7096 41.1907 26.3096C41.1507 24.6796 41.1807 24.6796 39.5407 24.6796C35.7507 24.6696 31.9607 24.6596 28.1807 24.6496C28.4607 23.9696 29.0107 23.4796 29.3907 22.8796C29.5707 22.5996 29.8607 22.6096 30.1407 22.6096C33.6507 22.6096 37.1507 22.6296 40.6607 22.5996C41.2607 22.5996 41.3907 22.7996 41.3807 23.3596C41.3407 25.7396 41.3407 28.1196 41.3307 30.4996Z" fill="#EBA77D"/>
<path d="M12.8105 24.3102C13.1205 23.7602 13.4305 23.2102 13.7405 22.6602C17.8905 22.6602 22.0405 22.6602 26.2905 22.6602C25.8405 23.5402 25.3105 24.2402 24.6705 24.8802C24.3905 24.5702 24.0305 24.7002 23.7005 24.6902C20.9805 24.6802 18.2605 24.7102 15.5505 24.6702C14.6305 24.6602 13.7005 24.6102 12.8105 24.3102Z" fill="#EBA67D"/>
<path d="M57.1905 24.6696C56.8705 24.5196 56.5305 24.4896 56.1905 24.4996C52.4405 24.5096 48.6805 24.5196 44.9305 24.4896C44.2405 24.4796 43.9905 24.6596 44.0205 25.3796C44.0705 26.7896 44.0405 28.1896 44.0305 29.5996C44.0305 29.8996 44.1305 30.2296 43.8905 30.4996C43.8805 28.1596 43.8805 25.8196 43.8405 23.4796C43.8305 22.8696 43.9305 22.5996 44.6405 22.6096C48.1105 22.6496 51.5705 22.6396 55.0405 22.6196C55.5305 22.6196 55.8805 22.7496 56.1305 23.1596C56.4505 23.6796 56.9705 24.0696 57.1905 24.6696Z" fill="#EBA67D"/>
<path d="M24.2701 72.1003C24.2701 70.8203 24.3001 69.5303 24.2601 68.2503C24.2201 67.1003 24.7101 66.2903 25.6701 65.6803C27.7601 64.3603 29.8101 62.9803 31.9101 61.6803C32.5801 61.2703 32.8001 60.8003 32.7801 60.0203C32.7201 57.8003 32.7801 55.5803 32.7501 53.3503C32.7301 52.1403 33.2001 51.2603 34.2201 50.6103C36.4901 49.1703 38.7501 47.7103 41.0001 46.2303C42.0901 45.5103 43.1401 45.5203 44.2301 46.2403C46.4801 47.7103 48.7401 49.1803 51.0001 50.6203C52.0201 51.2703 52.4701 52.1503 52.4501 53.3603C52.4101 55.7103 52.4501 58.0503 52.4301 60.4003C52.4201 60.9003 52.5801 61.1903 53.0001 61.4603C55.1701 62.8303 57.3001 64.2503 59.4701 65.6203C60.5001 66.2703 60.9701 67.1203 60.9501 68.3403C60.9101 70.8403 60.9101 73.3503 60.9501 75.8503C60.9701 77.0403 60.4901 77.8703 59.5001 78.4903C57.2501 79.9103 55.0201 81.3503 52.8101 82.8203C51.6501 83.5903 50.5701 83.5803 49.4201 82.8103C47.3601 81.4403 45.2701 80.1403 43.2101 78.7703C42.7501 78.4603 42.4301 78.4803 41.9801 78.7803C39.9201 80.1503 37.8301 81.4503 35.7701 82.8203C34.6101 83.5903 33.5301 83.5803 32.3801 82.8103C30.1701 81.3403 27.9301 79.9003 25.6901 78.4803C24.7001 77.8503 24.2201 77.0203 24.2601 75.8303C24.3101 74.6003 24.2701 73.3503 24.2701 72.1003Z" fill="#1E1E1C"/>
<path d="M11.5102 10.2201C10.7902 8.58008 10.9702 7.62008 12.1602 6.67008C12.4102 6.47008 12.6802 6.31008 13.0002 6.29008C13.9902 6.22008 14.9902 6.10008 15.9802 6.10008C35.5002 6.08008 55.0302 6.08008 74.5602 6.08008C74.8402 6.08008 75.1202 6.09008 75.4002 6.09008C75.9602 7.83008 74.8802 9.07008 72.7402 9.08008C68.4202 9.10008 64.1002 9.18008 59.7902 9.07008C47.1302 8.75008 34.4602 8.92008 21.8002 8.95008C18.6202 8.96008 15.4302 9.08008 12.2502 9.08008C11.2702 9.07008 11.5402 9.70008 11.5102 10.2201Z" fill="#F8C5A5"/>
<path d="M35.3808 57.0801C35.3808 55.9201 35.4008 54.7701 35.3708 53.6101C35.3608 53.1801 35.5108 52.9301 35.8608 52.7001C37.9708 51.3601 40.0708 50.0001 42.1508 48.6301C42.4908 48.4001 42.7308 48.4301 43.0608 48.6401C45.1508 50.0101 47.2508 51.3701 49.3608 52.7101C49.7308 52.9401 49.8308 53.2201 49.8308 53.6401C49.8108 55.9201 49.8108 58.2101 49.8308 60.4901C49.8308 60.9201 49.6908 61.1601 49.3308 61.3901C47.2508 62.7101 45.1808 64.0501 43.1308 65.4101C42.7208 65.6801 42.4508 65.6501 42.0508 65.3901C40.0208 64.0501 37.9808 62.7201 35.9208 61.4301C35.4908 61.1601 35.3508 60.8601 35.3608 60.3701C35.4108 59.2701 35.3808 58.1701 35.3808 57.0801Z" fill="#FCE87D"/>
<path d="M58.3205 72.0796C58.3205 73.2096 58.2906 74.3296 58.3306 75.4596C58.3506 75.9596 58.2006 76.2496 57.7706 76.5196C55.7406 77.7996 53.7206 79.1096 51.7206 80.4396C51.2906 80.7196 50.9905 80.7296 50.5505 80.4396C48.5505 79.1096 46.5206 77.8096 44.4906 76.5196C44.0806 76.2596 43.9006 75.9596 43.9106 75.4596C43.9406 73.2096 43.9305 70.9596 43.9205 68.7096C43.9205 68.2696 44.0205 67.9696 44.4205 67.7096C46.5105 66.3896 48.5806 65.0496 50.6306 63.6896C51.0006 63.4396 51.2505 63.4496 51.6205 63.6896C53.6805 65.0496 55.7506 66.3896 57.8306 67.7096C58.1906 67.9396 58.3306 68.1796 58.3205 68.6096C58.3005 69.7696 58.3205 70.9196 58.3205 72.0796Z" fill="#FEF4C4"/>
<path d="M41.2309 72.1196C41.2309 73.2496 41.2009 74.3696 41.2409 75.4996C41.2609 75.9996 41.0809 76.2896 40.6609 76.5596C38.6509 77.8296 36.6609 79.1196 34.6809 80.4296C34.2509 80.7096 33.9409 80.7296 33.5109 80.4396C31.4809 79.0996 29.4309 77.7796 27.3709 76.4696C27.0109 76.2396 26.8809 75.9896 26.8809 75.5596C26.9009 73.2496 26.9009 70.9296 26.8809 68.6196C26.8809 68.1896 27.0209 67.9396 27.3709 67.7096C29.4509 66.3896 31.5309 65.0496 33.5909 63.6896C33.9609 63.4396 34.2109 63.4496 34.5809 63.6896C36.6109 65.0296 38.6609 66.3596 40.7209 67.6596C41.1209 67.9096 41.2409 68.1996 41.2409 68.6496C41.2109 69.8096 41.2309 70.9696 41.2309 72.1196Z" fill="#FDD205"/>
</g>
<defs>
<clipPath id="clip0">
<rect width="85.53" height="92.52" fill="white"/>
</clipPath>
</defs>
</svg>
