<svg width="37" height="34" viewBox="0 0 37 34" fill="none" xmlns="http://www.w3.org/2000/svg">
<path d="M21.7632 23.1953L24.4421 20.7358L29.2885 25.3561L26.6096 27.8157L21.7632 23.1953Z" fill="#0F5628"/>
<rect width="3.98787" height="16.5398" rx="1.99394" transform="matrix(0.743906 -0.668284 0.71626 0.697834 20.9438 22.2383)" fill="#0F5628"/>
<path d="M14.3485 1.05517C21.6191 1.15872 27.4346 6.75702 27.3377 13.5593C27.2408 20.3616 21.2683 25.792 13.9977 25.6885C6.72702 25.5849 0.911546 19.9866 1.00843 13.1843C1.10531 6.38203 7.07786 0.951619 14.3485 1.05517ZM14.0409 22.6554C19.5211 22.7335 24.0228 18.6403 24.0959 13.5131C24.1689 8.38595 19.7855 4.16626 14.3053 4.08821C8.82509 4.01015 4.32331 8.1033 4.25029 13.2305C4.17726 18.3577 8.56065 22.5774 14.0409 22.6554Z" fill="#0F5628"/>
</svg>
