<svg width="29" height="21" viewBox="0 0 29 21" fill="none" xmlns="http://www.w3.org/2000/svg">
<path d="M12.5146 8.00586L13.0302 10.3347H16.7176V8.00586H12.5146Z" fill="white"/>
<path d="M18.7436 8.00586L18.7314 10.3347H22.249L22.8616 8.00586H18.7436Z" fill="white"/>
<path d="M13.2051 15.9512C11.9133 15.9512 10.8701 17.0004 10.8701 18.2861C10.8701 19.5779 11.9193 20.6271 13.2051 20.6271C14.4969 20.6271 15.54 19.584 15.54 18.2861C15.5461 16.9943 14.4969 15.9512 13.2051 15.9512Z" fill="white"/>
<path d="M22.0051 15.9512C20.7133 15.9512 19.6641 17.0004 19.6641 18.2861C19.6641 19.5779 20.7133 20.6271 22.0051 20.6271C23.2969 20.6271 24.34 19.584 24.34 18.2861C24.34 16.9943 23.2969 15.9512 22.0051 15.9512Z" fill="white"/>
<path d="M27.9317 2.4138C27.8225 2.37741 27.7073 2.36528 27.5981 2.36528C27.1008 2.36528 26.6399 2.68672 26.4883 3.19009L26.3306 3.71167H9.22786L8.61531 1.23116C8.49402 0.709591 8.02703 0.345703 7.49939 0.345703H1.52556C0.88876 0.345703 0.367188 0.861211 0.367188 1.50408C0.367188 2.14088 0.88876 2.66246 1.52556 2.66246H6.58967L9.32489 13.755C9.45226 14.2705 9.91924 14.6344 10.4469 14.6344H24.6143C25.1237 14.6344 25.5786 14.2947 25.7241 13.8096L28.708 3.85116C28.7444 3.73593 28.7565 3.62676 28.7565 3.51759C28.7565 3.02634 28.4351 2.55935 27.9317 2.4138ZM23.8198 12.0872L23.747 12.3237H11.3566L9.80401 6.02235H25.6392L23.8198 12.0872Z" fill="white"/>
</svg>
