<svg width="73" height="93" viewBox="0 0 73 93" fill="none" xmlns="http://www.w3.org/2000/svg">
<path d="M15.9698 92.6H11.1798L10.9398 92.24C10.8898 92.23 10.8298 92.22 10.7698 92.2C8.01985 91.51 5.43984 90.1 3.10984 88.02C1.17984 86.3 0.209845 84.07 0.209845 81.38C0.229845 71.12 0.189845 60.77 0.159845 51.06C0.159845 50.49 0.159845 49.93 0.159845 49.36C0.149845 46.18 0.139845 42.89 0.00984473 39.67C-0.160155 35.47 1.13984 31.45 3.99984 27.42C3.59984 26.88 3.36984 26.28 3.29984 25.64C3.20984 24.82 3.41984 23.96 3.89984 23.08C4.81984 21.4 6.11984 19.88 7.86984 18.41C7.84984 18.15 7.85984 17.91 7.85984 17.71C7.85984 17.6 7.86984 17.5 7.85984 17.41C7.85984 17.26 7.85984 17.11 7.85984 16.98C7.85984 16.82 7.85984 16.61 7.84984 16.49C7.81984 16.46 7.74984 16.42 7.64984 16.37C5.34984 15.23 4.72984 12.63 4.31984 10.91C3.57984 7.79 4.14984 4.88 6.00984 2.27C6.54984 1.51 7.43984 0.48 8.93984 0.19L8.99984 0.18L9.05984 0.17C10.0198 0.05 10.9398 0.07 11.8198 0.09C12.1698 0.1 12.4898 0.1 12.8198 0.1C15.1598 0.09 17.5398 0.09 19.8498 0.09C20.7198 0.09 21.5998 0.09 22.4698 0.09H53.5998C53.8898 0.07 54.1598 0.08 54.3798 0.09C54.5198 0.1 54.6998 0.1 54.7698 0.09L55.0298 0H61.8498L62.0498 0.25C62.1898 0.26 62.3398 0.28 62.4998 0.32C65.2898 0.98 66.1898 2.92 66.4498 4.43C66.8898 6.95 66.6599 9.44 66.4099 11.33C66.1399 13.36 64.9798 15.09 63.1298 16.23C63.1298 16.23 63.1298 16.23 63.1298 16.24C62.8998 17.9 63.2898 18.81 64.5698 19.61C65.8398 20.4 66.9499 21.61 67.9698 23.31C68.7798 24.65 69.0098 26.01 68.6599 27.34C70.9298 32.35 71.9898 37.9 72.0898 45.3C72.1098 46.74 72.1299 48.17 72.1498 49.61C72.2898 59.76 72.4398 70.25 72.1898 80.59C72.0999 84.21 70.5398 87.38 67.5298 90.02C66.0298 91.34 64.3098 92.05 62.4398 92.12C57.0798 92.32 51.8198 92.38 45.5698 92.42C45.3898 92.42 45.1898 92.43 44.9898 92.44C44.9198 92.44 44.8398 92.45 44.7698 92.45C44.0498 92.54 43.3698 92.53 42.7098 92.52C42.3498 92.51 42.0098 92.51 41.6898 92.52H41.6298H40.2398C39.5898 92.52 38.9398 92.52 38.2898 92.52H37.4898C37.1198 92.52 36.7398 92.52 36.3698 92.52H35.5098C35.1098 92.52 34.6998 92.52 34.2998 92.52H33.3598C32.9198 92.52 32.4798 92.52 32.0498 92.52H31.1098C30.6698 92.52 30.2298 92.52 29.7998 92.52H28.9398C28.5398 92.52 28.1298 92.52 27.7298 92.52H26.7898C26.3498 92.52 25.9098 92.52 25.4698 92.52H24.5298C24.0898 92.52 23.6498 92.52 23.1998 92.52H17.7098C17.3998 92.54 17.1098 92.53 16.8598 92.52C16.6198 92.51 16.3398 92.5 16.2298 92.53L15.9698 92.6ZM12.7198 89.07H15.4698C16.0498 88.94 16.5698 88.96 16.9998 88.97C17.1898 88.98 17.3698 88.98 17.5098 88.97L17.5798 88.96H21.5498H23.2098C23.6498 88.96 24.0898 88.96 24.5298 88.96H25.4798C25.9198 88.96 26.3598 88.96 26.7998 88.96H27.7398C28.1398 88.96 28.5498 88.96 28.9498 88.96H29.8198C30.2598 88.96 30.6898 88.96 31.1298 88.96H32.0698C32.5098 88.96 32.9398 88.96 33.3798 88.96H34.3198C34.7198 88.96 35.1298 88.96 35.5298 88.96H36.3998C36.7698 88.96 37.1398 88.96 37.5198 88.96H38.3198C38.9698 88.96 39.6198 88.96 40.2698 88.96H41.6298C42.0398 88.95 42.4298 88.95 42.8098 88.96C43.3898 88.97 43.9298 88.98 44.4198 88.91L44.5098 88.9H44.5998C44.6898 88.9 44.7898 88.89 44.8798 88.89C45.0998 88.88 45.3398 88.87 45.5798 88.87C51.7898 88.83 57.0198 88.76 62.3398 88.57C63.3998 88.53 64.3399 88.13 65.2299 87.35C67.4899 85.36 68.6299 83.11 68.6898 80.48C68.9398 70.21 68.7898 59.75 68.6498 49.63C68.6299 48.19 68.6098 46.76 68.5898 45.32C68.4998 38.3 67.4998 33.11 65.3598 28.51C65.0598 27.86 65.0198 27.21 65.2498 26.51C65.3498 26.21 65.3998 25.8 64.9799 25.1C64.2498 23.89 63.5198 23.07 62.7398 22.58C61.4598 21.78 60.5498 20.77 60.0498 19.56C59.5898 18.45 59.4598 17.2 59.6598 15.73C59.7398 15.13 59.8998 14.02 61.1898 13.27C61.8898 12.86 62.7698 12.11 62.9298 10.85C63.1598 9.11 63.3498 7.05 62.9898 5.02C62.8698 4.35 62.6598 3.98 61.7898 3.76C61.7798 3.76 61.7598 3.76 61.7498 3.76C61.5298 3.76 61.0998 3.77 60.6398 3.6C60.3198 3.65 59.9898 3.62 59.6798 3.52H55.6198C55.0698 3.66 54.5898 3.63 54.2098 3.62C54.0598 3.61 53.9198 3.61 53.8298 3.61L53.7498 3.62H22.4698C21.5998 3.62 20.7198 3.62 19.8498 3.62C17.5498 3.62 15.1798 3.62 12.8398 3.63C12.4698 3.63 12.1098 3.62 11.7598 3.62C10.9898 3.6 10.2698 3.59 9.57984 3.67C9.41984 3.7 9.22985 3.83 8.87984 4.32C7.61984 6.09 7.24984 7.98 7.74984 10.1C8.09984 11.58 8.45984 12.84 9.21984 13.22C11.3898 14.3 11.3898 16.05 11.3898 16.99C11.3898 17.11 11.3898 17.22 11.3898 17.32C11.3898 17.5 11.3898 17.66 11.3898 17.81C11.3898 17.96 11.3798 18.11 11.3898 18.19C11.5898 19.89 10.5098 20.8 10.1498 21.1C8.72984 22.29 7.69984 23.49 6.98984 24.78C6.82984 25.08 6.79984 25.25 6.80984 25.28C6.80984 25.28 6.83984 25.35 6.96984 25.47C7.18984 25.68 7.85984 26.3 7.87984 27.28C7.89984 28.09 7.45984 28.68 7.24984 28.96C4.56984 32.56 3.39984 35.93 3.54984 39.54C3.68984 42.82 3.69984 46.15 3.69984 49.37C3.69984 49.93 3.69984 50.5 3.69984 51.06C3.73984 60.78 3.76984 71.13 3.74984 81.4C3.74984 83.08 4.28984 84.35 5.46984 85.4C7.38984 87.11 9.39984 88.22 11.6198 88.78C11.6398 88.78 11.6598 88.78 11.6798 88.79C11.8798 88.81 12.2898 88.86 12.7198 89.07Z" fill="#DD636F"/>
<path d="M60.9897 1.76C61.2896 2.14 61.7296 1.95 62.0996 2.03C63.5896 2.38 64.4597 3.2 64.7197 4.73C65.0896 6.85 64.9496 8.99 64.6696 11.1C64.4596 12.71 63.4897 13.99 62.0597 14.82C61.5396 15.12 61.4697 15.45 61.3896 15.99C61.0896 18.18 61.6497 19.86 63.6497 21.1C64.8297 21.83 65.7296 22.98 66.4697 24.21C67.0097 25.11 67.2397 26.06 66.9097 27.08C66.8197 27.34 66.8297 27.54 66.9397 27.79C69.5296 33.35 70.2596 39.26 70.3396 45.32C70.4996 57.06 70.7197 68.8 70.4397 80.55C70.3596 83.89 68.8396 86.54 66.3796 88.7C65.2496 89.69 63.9296 90.3 62.3896 90.36C56.7896 90.57 51.1796 90.63 45.5797 90.66C45.2696 90.66 44.9496 90.68 44.6396 90.69C43.6396 90.83 42.6396 90.72 41.6396 90.75C40.5196 90.75 39.4096 90.75 38.2896 90.75C37.6497 90.75 37.0097 90.75 36.3797 90.75C35.6897 90.75 34.9996 90.75 34.2996 90.75C33.5496 90.75 32.7996 90.75 32.0496 90.75C31.2996 90.75 30.5496 90.75 29.7996 90.75C29.1096 90.75 28.4196 90.75 27.7196 90.75C26.9696 90.75 26.2196 90.75 25.4596 90.75C24.6996 90.75 23.9496 90.75 23.1896 90.75C21.9596 90.75 20.7396 90.75 19.5096 90.75C18.8896 90.75 18.2596 90.75 17.6396 90.75C16.9896 90.8 16.3296 90.64 15.6896 90.85C14.4996 90.85 13.3096 90.85 12.1196 90.85C11.8996 90.52 11.5096 90.59 11.1996 90.51C8.57965 89.83 6.29965 88.5 4.29965 86.71C2.71965 85.3 1.98965 83.54 1.98965 81.39C1.99965 71.28 1.96965 61.17 1.92965 51.06C1.91965 47.24 1.92965 43.42 1.76965 39.61C1.57965 35.14 3.23965 31.37 5.80965 27.9C6.17965 27.4 6.21965 27.19 5.73965 26.74C4.88965 25.94 4.80965 25.03 5.42965 23.92C6.32965 22.28 7.58965 20.92 9.00965 19.74C9.46965 19.36 9.69965 18.98 9.62965 18.4C9.58965 18.06 9.62965 17.71 9.61965 17.37C9.59965 16.35 9.79965 15.48 8.43965 14.8C6.90965 14.04 6.43965 12.17 6.03965 10.51C5.41965 7.9 5.88965 5.48 7.44965 3.3C7.89965 2.66 8.43965 2.08 9.26965 1.92C10.4496 1.77 11.6296 1.87 12.8196 1.86C16.0296 1.84 19.2496 1.85 22.4596 1.85C32.8596 1.85 43.2597 1.85 53.6596 1.85C54.2197 1.8 54.7996 1.96 55.3496 1.75C56.9196 1.75 58.4796 1.75 60.0496 1.75C60.2396 1.89 60.4296 1.89 60.6096 1.75C60.7397 1.76 60.8596 1.76 60.9897 1.76Z" fill="#1E1E1C"/>
<path d="M53.8398 1.94953C43.3798 1.94953 32.9198 1.93953 22.4598 1.93953C22.3998 1.89953 22.3798 1.85953 22.4098 1.81953C22.4298 1.77953 22.4498 1.76953 22.4698 1.76953C32.9298 1.76953 43.3898 1.76953 53.8498 1.76953C53.9098 1.80953 53.9298 1.84953 53.9098 1.88953C53.8898 1.92953 53.8598 1.94953 53.8398 1.94953Z" fill="#484846"/>
<path d="M22.47 1.75977C22.47 1.81977 22.47 1.86977 22.46 1.92977C18.06 1.92977 13.67 1.91977 9.27002 1.91977C9.29002 1.86977 9.30002 1.81977 9.31002 1.75977C13.7 1.75977 18.08 1.75977 22.47 1.75977Z" fill="#565654"/>
<path d="M53.8398 1.94953C53.8498 1.88953 53.8498 1.82953 53.8498 1.76953C54.3498 1.76953 54.8498 1.76953 55.3498 1.76953C54.8898 2.12953 54.3398 1.86953 53.8398 1.94953Z" fill="#2F2F2D"/>
<path d="M60.6098 1.75977C60.4198 2.05977 60.2298 1.98977 60.0498 1.75977C60.2398 1.75977 60.4198 1.75977 60.6098 1.75977Z" fill="#8C8C8B"/>
<path d="M7.83008 29.5804C9.33008 27.4304 11.3901 26.7804 13.8901 27.3604C14.5601 27.5104 15.2501 27.6204 15.8801 27.8604C18.3501 28.8004 20.8301 28.4604 23.2501 27.8304C25.9501 27.1204 28.6101 27.1504 31.2601 27.8904C34.6901 28.8404 38.0801 28.4704 41.4301 27.6004C43.0601 27.1804 44.6101 27.1604 46.1901 27.7304C46.5701 27.8704 46.9801 27.9204 47.3501 28.0804C50.6301 29.4304 53.8401 28.9804 56.9601 27.5904C58.3901 26.9604 59.6501 26.8304 61.0001 27.7404C61.7901 28.2804 62.7701 28.3404 63.7201 28.2604C64.1901 28.2204 64.4201 28.3704 64.6201 28.8404C66.4301 33.0404 67.4501 37.3804 67.6201 41.9904C68.0701 54.6304 67.9401 67.2804 67.9301 79.9304C67.9301 82.8404 66.6801 85.1704 64.4001 86.9604C63.8001 87.4304 63.1101 87.7604 62.3401 87.7904C60.3701 87.8804 58.4001 87.9204 56.4301 87.9704C56.3101 87.9704 56.2001 87.9004 56.0801 87.8604C56.3401 87.3804 56.7801 87.0704 57.1701 86.7104C59.4401 84.6004 60.4601 81.9904 60.3801 78.9204C60.3701 78.3604 60.2501 77.8004 60.4101 77.2404C61.8501 76.0304 62.1101 74.4304 62.0401 72.6604C61.6601 63.2804 61.9301 53.8904 61.8201 44.5004C61.8001 42.9704 61.6401 41.4404 61.6301 39.9104C61.6201 39.0104 61.2201 38.2904 60.5201 37.7304C60.2801 37.5404 60.0101 37.3704 59.8301 37.1004C59.6301 35.1304 58.8801 33.3704 57.7401 31.7504C57.3201 31.1504 56.9001 30.8704 56.1301 30.9304C53.8401 31.1004 51.5601 30.9604 49.3601 30.2104C47.8401 29.6904 46.3401 29.8904 44.8201 30.1804C43.5901 30.4104 42.3901 30.7904 41.1501 30.9604C38.6601 31.3104 36.2201 30.9304 33.8201 30.3304C32.3301 29.9504 30.8401 29.5704 29.3201 29.4104C27.7101 29.2404 26.0801 29.4804 24.4901 29.8704C23.1301 30.2004 21.8001 30.6604 20.3801 30.8204C18.5401 31.0404 16.7701 30.8204 15.0001 30.4004C14.0501 30.1904 13.1901 29.7304 12.2701 29.4204C11.1201 29.0404 10.0101 29.0104 8.89008 29.4904C8.56008 29.6304 8.21008 29.8304 7.83008 29.5804Z" fill="#CC3C48"/>
<path d="M60.3998 77.4702C60.8598 78.5202 60.6998 79.6402 60.5698 80.6802C60.1998 83.5902 58.7098 85.9202 56.4198 87.7402C56.3298 87.8102 56.1898 87.8202 56.0698 87.8602C48.0598 88.1202 40.0398 88.0002 32.0298 88.0802C26.5198 88.1402 21.0098 88.1502 15.5098 88.1802C15.0398 87.9802 14.6198 87.6902 14.3598 87.2502C13.0598 85.0802 11.7298 82.9202 11.6998 80.2602C11.6898 79.5702 11.4998 78.9002 11.5098 78.2102C11.5198 77.8302 11.4098 77.3702 11.9498 77.2002C14.4598 77.7102 16.9998 77.5502 19.5198 77.5502C31.7498 77.5602 43.9798 77.5502 56.1998 77.5602C57.2898 77.5602 58.3898 77.5802 59.4698 77.3802C59.7898 77.3402 60.1098 77.2802 60.3998 77.4702Z" fill="#DD636E"/>
<path d="M11.7696 77.29C11.7096 80.72 12.3996 83.96 14.3696 86.83C14.6996 87.31 15.1296 87.73 15.5096 88.18C11.9296 88.6 8.96961 87.22 6.28961 85.03C5.11961 84.08 4.60961 82.84 4.60961 81.33C4.60961 72.81 4.57961 64.3 4.53961 55.78C4.51961 50.12 4.51961 44.45 4.40961 38.79C4.33961 35.24 5.81961 32.33 7.82961 29.58C10.3296 28.18 12.6396 29.18 14.9596 30.13C15.3596 30.38 15.1796 30.69 14.9996 30.93C13.5096 32.94 12.5396 35.2 11.7796 37.57C10.8396 38.48 10.5296 39.58 10.5396 40.88C10.5696 51.65 10.5696 62.42 10.5396 73.19C10.5396 74.54 10.6296 75.82 11.6496 76.84C11.7596 76.97 11.7896 77.13 11.7696 77.29Z" fill="#EDA7AE"/>
<path d="M60.98 22.2497C62.18 23.1997 63.34 24.1897 64.23 25.5597C63.4 25.9097 62.64 25.7797 61.99 25.3697C60.13 24.1697 58.27 24.1597 56.3 25.0897C53.54 26.3997 50.7 26.7497 47.79 25.5297C47.59 25.4497 47.36 25.4297 47.16 25.3497C45.01 24.5097 42.84 24.5297 40.63 25.1397C39.52 25.4397 38.36 25.5697 37.23 25.8097C35.46 26.1797 33.7 25.8797 32.04 25.3897C28.29 24.2897 24.62 24.7997 20.94 25.6397C19.68 25.9297 18.5 25.9197 17.26 25.5597C15.73 25.1197 14.17 24.7997 12.58 24.6097C12.04 24.5397 11.52 24.6497 11 24.6697C11.08 24.1997 11.18 23.7297 11.21 23.2397C11.24 22.7497 11.26 22.1497 12.01 22.1297C28.03 22.1197 44.04 22.1497 60.05 22.1197C60.37 22.1197 60.69 22.0697 60.98 22.2497Z" fill="#F8C5A5"/>
<path d="M61.9399 4.75977C62.2499 5.10977 62.2899 5.53977 62.2899 5.96977C62.2899 7.24977 62.2999 8.52977 62.2599 9.81977C62.2399 10.5798 62.0399 11.2998 61.5299 11.8998C61.1299 12.3698 60.7199 12.6698 60.0299 12.6798C43.9299 12.9198 27.8199 12.8598 11.7099 12.8298C11.0999 12.8298 10.4599 12.9498 9.86994 12.6698C9.77994 12.1898 9.66994 11.7098 9.57994 11.2298C9.50994 10.8698 9.40994 10.4898 9.82994 10.2498C10.3799 10.0498 10.9499 10.1198 11.5099 10.1198C26.3799 10.1198 41.2499 10.1098 56.1199 10.1198C57.1299 10.1198 58.1199 10.0298 59.0999 9.80977C60.4399 9.51977 61.2699 8.73977 61.4399 7.34977C61.4999 6.88977 61.6899 6.43977 61.6499 5.95977C61.6399 5.52977 61.5999 5.09977 61.9399 4.75977Z" fill="#EBA67D"/>
<path d="M61.9398 4.75988C61.9299 5.13988 61.9198 5.51988 61.9198 5.88988C61.7898 6.47988 61.3498 6.66988 60.8199 6.71988C60.3498 6.75988 59.8799 6.74988 59.4099 6.74988C44.4099 6.74988 29.4099 6.74988 14.4099 6.74988C13.6899 6.74988 12.9699 6.73988 12.2599 6.91988C10.5899 7.33988 9.90985 8.15988 9.83985 9.86988C9.82985 10.0599 9.80985 10.2399 9.68985 10.3999C9.62985 11.1599 10.3499 11.8599 9.87985 12.6499C8.07985 10.7499 7.86985 6.97988 9.40985 4.91988C9.78985 4.40988 10.2499 4.37988 10.7999 4.37988C23.9699 4.38988 37.1299 4.37988 50.2999 4.37988C53.4299 4.37988 56.5499 4.37988 59.6799 4.38988C60.4398 4.40988 61.2198 4.43988 61.9398 4.75988Z" fill="#FCDAC6"/>
<path d="M58.74 18.12C58.5 18.44 58.16 18.28 57.88 18.28C42.98 18.29 28.08 18.28 13.18 18.31C12.31 18.31 12.15 18.05 12.17 17.25C12.23 15.27 12.18 15.31 14.18 15.37C21.57 15.56 28.95 15.45 36.34 15.39C43.63 15.33 50.93 15.33 58.22 15.29C58.67 15.29 58.93 15.36 58.89 15.9C58.84 16.63 58.94 17.38 58.74 18.12C58.29 17.43 57.59 17.47 56.89 17.47C48.81 17.47 40.73 17.47 32.65 17.47C27.14 17.47 21.63 17.47 16.11 17.47C14.99 17.47 13.87 17.54 12.72 17.32C12.74 17.71 13 17.74 13.24 17.77C13.64 17.83 14.05 17.8 14.46 17.8C28.62 17.8 42.77 17.8 56.93 17.81C57.55 17.81 58.2 17.67 58.74 18.12Z" fill="#8FB6E1"/>
<path d="M60.9797 22.2499C60.4997 22.3999 60.0097 22.4399 59.4997 22.4399C43.9397 22.4299 28.3797 22.4399 12.8197 22.4299C12.4597 22.4299 12.0597 22.5699 11.7497 22.2499C11.4697 21.7599 11.6997 21.3499 11.9397 20.9499C12.3097 20.9299 12.6897 20.8899 13.0597 20.8899C28.0097 20.8899 42.9597 20.9099 57.8997 20.8599C59.2397 20.8399 60.1497 21.3499 60.9797 22.2499Z" fill="#EBA77D"/>
<path d="M11.95 20.9404C12.01 21.3904 11.87 21.8204 11.76 22.2404C11.51 22.7304 11.27 23.2204 11.5 23.7904C11.71 24.2904 11.24 24.4104 11.01 24.6504C10.16 24.9904 9.29998 25.2304 8.37998 25.2004C8.07998 25.1904 7.63998 25.1204 7.98998 24.6604C9.10998 23.2304 10.19 21.7204 11.95 20.9404Z" fill="#FCD9C5"/>
<path d="M11.7697 77.2898C10.5997 76.3698 10.1997 75.1698 10.2097 73.6798C10.2497 62.7198 10.2497 51.7598 10.2097 40.7998C10.2097 39.3398 10.6097 38.1698 11.7597 37.2698C11.9897 36.8498 12.3897 36.6898 12.8297 36.5798C13.4397 36.4398 14.0697 36.3998 14.6897 36.3998C29.0797 36.3998 43.4597 36.3998 57.8497 36.4098C58.5497 36.4098 59.3097 36.2798 59.8797 36.8998C61.4397 37.7098 61.9597 39.0098 61.9997 40.7398C62.2097 50.0198 62.0597 59.3098 62.1797 68.5898C62.1997 70.1798 62.2197 71.7798 62.3097 73.3698C62.4097 75.0898 61.9097 76.4998 60.4097 77.4698C59.6597 77.7298 58.8897 77.7998 58.0997 77.7998C43.5397 77.7998 28.9797 77.7998 14.4197 77.7998C13.4997 77.7998 12.5897 77.7298 11.7697 77.2898Z" fill="#1E1E1C"/>
<path d="M59.87 36.9002C59.19 36.7702 58.51 36.7502 57.82 36.7502C43.31 36.7502 28.8 36.7602 14.29 36.7502C13.4 36.7502 12.55 36.8502 11.75 37.2702C12.2 34.9802 13.27 32.9802 14.61 31.0902C14.8 30.8202 15.21 30.5802 14.95 30.1302C16.11 30.3102 17.28 30.6002 18.45 30.6502C19.98 30.7102 21.5 30.4902 22.95 29.9902C24.8 29.3502 26.72 29.0802 28.64 29.0602C30.25 29.0402 31.83 29.5402 33.4 29.9502C36.76 30.8302 40.11 31.2002 43.52 30.1902C45.83 29.5102 48.14 29.4102 50.49 30.2202C52.49 30.9102 54.61 30.8402 56.7 30.5902C57.03 30.5502 57.27 30.5902 57.44 30.8502C58.63 32.6702 59.97 34.4302 59.98 36.7602C59.97 36.8002 59.91 36.8502 59.87 36.9002Z" fill="#DD636E"/>
<path d="M9.68988 10.4099C8.79988 8.12988 10.8199 6.64988 13.0999 6.45988C13.4699 6.42988 13.8499 6.44988 14.2299 6.44988C29.5999 6.44988 44.9699 6.44988 60.3399 6.44988C60.9499 6.44988 61.5399 6.45988 61.9299 5.87988C61.9899 6.60988 61.7699 7.29988 61.6299 7.99988C61.3999 9.09988 60.6299 9.71988 59.5999 9.98988C58.6399 10.2399 57.6599 10.3999 56.6499 10.3999C40.9899 10.3999 25.3399 10.4099 9.68988 10.4099Z" fill="#F8C5A5"/>
<path d="M58.74 18.1199C43.63 18.1199 28.51 18.1099 13.4 18.1099C12.27 18.1099 12.27 18.1099 12.42 16.9199C13.48 17.2899 14.58 17.1599 15.66 17.1699C29.68 17.1799 43.7 17.1799 57.71 17.1599C58.48 17.1399 58.82 17.3499 58.74 18.1199C58.74 18.1099 58.74 18.1199 58.74 18.1199Z" fill="#BBD6F1"/>
<path d="M36.2501 75.1396C28.9901 75.1396 21.7201 75.1396 14.4601 75.1396C12.8301 75.1396 12.8101 75.1096 12.8101 73.4397C12.8101 62.6397 12.8101 51.8397 12.8101 41.0396C12.8101 39.4396 12.8701 39.3896 14.4301 39.3896C28.9601 39.3896 43.4801 39.3896 58.0101 39.3896C59.3401 39.3896 59.4401 39.4697 59.4501 40.8297C59.4901 46.4297 59.5101 52.0396 59.5501 57.6396C59.5901 63.0196 59.6401 68.4096 59.6801 73.7896C59.6901 74.9897 59.5401 75.1396 58.3301 75.1396C50.9701 75.1396 43.6101 75.1396 36.2501 75.1396Z" fill="white"/>
<path d="M47.9097 56.2899C48.3897 58.0699 48.4297 59.7299 48.0597 61.4199C47.7197 62.9699 46.9697 64.2299 45.8797 65.3699C42.7197 68.6899 38.7197 70.2899 34.3297 71.0899C31.6697 71.5699 28.9897 71.7799 26.3097 71.3299C24.0197 70.9399 23.2897 70.0999 23.0297 67.7999C22.7297 65.1099 23.1697 62.4999 23.7797 59.9099C24.4897 56.9199 25.4797 54.0399 27.0197 51.3599C28.7697 48.3099 31.3597 46.6899 34.9497 46.8299C36.1597 46.8799 37.3897 46.7399 38.5697 47.3299C38.8397 45.6299 39.6097 44.2599 40.7897 43.1199C41.7497 42.1999 42.6897 42.0499 43.8597 42.6999C45.6797 43.6999 47.1697 44.9799 47.2997 47.2499C47.3197 47.6699 47.5297 47.6699 47.8497 47.6399C49.9397 47.4199 51.5297 48.4199 52.9097 49.8099C53.7897 50.6999 53.9197 51.6099 53.3297 52.7199C52.2097 54.8699 50.6697 56.4599 47.9097 56.2899Z" fill="#1E1E1C"/>
<path d="M29.43 68.9504C28.53 68.8904 27.62 68.8304 26.72 68.7704C26 68.7204 25.74 68.2904 25.64 67.6104C25.33 65.3704 25.73 63.1904 26.21 61.0204C26.88 58.0504 27.8 55.1804 29.37 52.5404C30.59 50.4904 32.3 49.5004 34.75 49.4204C36.98 49.3504 38.67 50.1105 40.17 51.6505C41.35 52.8605 42.57 54.0304 43.86 55.1204C45.7 56.6804 45.92 58.6105 45.49 60.8105C45.24 62.0805 44.52 63.0105 43.65 63.8805C41.02 66.5105 37.71 67.7304 34.18 68.4604C32.62 68.7804 31.03 68.9404 29.43 68.9504Z" fill="#DD3C45"/>
<path d="M44.6599 47.7501C44.6599 47.7801 44.6599 47.8101 44.6599 47.8401C44.6299 48.8101 44.4299 49.7601 43.6199 50.3301C43.1899 50.6301 42.7899 50.0601 42.4499 49.7801C41.5699 49.0701 41.0999 48.1601 41.3199 46.9901C41.3299 46.9601 41.3399 46.9301 41.3499 46.9001C41.7299 46.2201 41.8799 45.2101 42.7899 45.1501C43.6599 45.0901 44.6699 46.6601 44.6599 47.7501Z" fill="#758E35"/>
<path d="M48.2 53.6499C48.17 53.6499 48.14 53.6499 48.11 53.6499C47.17 53.5699 46.18 53.4799 45.58 52.6899C45.31 52.3399 45.84 51.9099 46.1 51.5799C46.81 50.6599 47.71 50.1099 48.93 50.2899C48.96 50.2899 48.99 50.2999 49.02 50.3199C49.72 50.7099 50.79 50.8499 50.84 51.7999C50.86 52.6299 49.22 53.6599 48.2 53.6499Z" fill="#758E35"/>
<path d="M34.51 61.4902C34.53 61.7602 34.32 62.1002 34.03 62.4002C33.24 63.2002 32.45 64.0102 31.64 64.7802C30.96 65.4402 30.21 65.4602 29.65 64.8902C29.07 64.3002 29.11 63.6202 29.79 62.9102C30.59 62.0802 31.42 61.2602 32.24 60.4602C32.65 60.0602 33.14 59.8802 33.69 60.1402C34.18 60.3702 34.49 60.7402 34.51 61.4902Z" fill="#1F1E1C"/>
<path d="M36.5897 53.9797C36.6397 54.4497 36.3497 54.7797 36.0497 55.0997C35.3097 55.8597 34.5697 56.6197 33.7997 57.3497C33.0597 58.0597 32.2997 58.0897 31.7297 57.4897C31.1997 56.9197 31.2497 56.1897 31.9297 55.4997C32.7397 54.6697 33.5697 53.8697 34.3797 53.0497C34.8097 52.6197 35.3197 52.5497 35.8497 52.7597C36.3497 52.9697 36.6197 53.3897 36.5897 53.9797Z" fill="#1F1E1C"/>
<path d="M41.8601 59.2196C41.8801 59.6396 41.7201 59.9696 41.4401 60.2496C40.6301 61.0696 39.8301 61.8996 38.9901 62.6996C38.3401 63.3196 37.6201 63.3496 37.0701 62.8296C36.5301 62.3196 36.5501 61.4496 37.1401 60.8296C37.9601 59.9796 38.8101 59.1496 39.6601 58.3196C40.0801 57.9096 40.5801 57.8096 41.1301 58.0596C41.6401 58.2796 41.8901 58.6796 41.8601 59.2196Z" fill="#1E1E1C"/>
</svg>
