<svg width="81" height="93" viewBox="0 0 81 93" fill="none" xmlns="http://www.w3.org/2000/svg">
<g clip-path="url(#clip0)">
<path d="M14.22 92.12C12.42 92.12 10.81 91.5 9.68 90.36C8.55 89.22 7.95 87.61 7.99 85.83C8.06 82.94 8.03 79.99 8.01 77.13C8 75.76 7.99 74.36 7.98 72.96C7.47 72.92 6.96 72.78 6.51 72.36C5.83 71.74 5.76 70.94 5.68 70.1C5.39 66.94 5.11 63.78 4.82 60.63C4.22 54 3.6 47.13 2.98 40.38C2.18 31.71 1.34 22.89 0.54 14.37L0.27 11.52L0 11.41V2.93L0.13 2.62C0.4 1.92 0.76 1.14 1.58 0.62C2.34 0.14 3.18 0.1 3.99 0.1H4.58C5.1 0.1 5.61 0.1 6.13 0.1H7.11C7.58 0.1 8.06 0.1 8.53 0.1H9.56C10.03 0.1 10.5 0.1 10.97 0.1H12.04C12.5 0.1 12.96 0.1 13.41 0.1H14.48C14.94 0.1 15.4 0.1 15.86 0.1H16.91C17.37 0.1 17.84 0.1 18.3 0.1H19.45C19.94 0.1 20.43 0.1 20.93 0.1H22C22.46 0.1 22.92 0.1 23.38 0.1H24.45C24.91 0.1 25.37 0.1 25.83 0.1H26.9C27.36 0.1 27.82 0.1 28.28 0.1H29.35C29.81 0.1 30.27 0.1 30.73 0.1H31.78C32.24 0.1 32.71 0.1 33.17 0.1H34.27C34.77 0.1 35.28 0.1 35.78 0.1H36.84C37.27 0.1 37.71 0.1 38.14 0.1C38.51 0.08 38.86 0.09 39.17 0.1C39.6 0.11 39.98 0.13 40.26 0.06L40.44 0H44.04L44.38 0.15C46.01 0.88 46.87 2.26 46.94 4.25C47.08 8.47 46.66 12.65 46.26 16.7C46.14 17.94 46.01 19.21 45.9 20.46C45.6 23.94 45.26 27.46 44.94 30.87C44.79 32.45 44.64 34.03 44.49 35.61C44.39 36.66 44.3 37.71 44.2 38.76C43.98 41.19 43.75 43.69 43.49 46.17C50.47 46.14 57.55 46.15 64.41 46.15C66.29 46.15 68.17 46.15 70.05 46.15C71.13 46.15 72.69 46.28 73.8 47.38C74.91 48.48 75.03 50.05 75.03 51.13C75.03 51.58 75.03 52.04 75.03 52.49C75.03 53.96 75.03 55.47 75.01 56.97C76.1 56.98 77.62 57.14 78.71 58.23C79.83 59.36 79.97 60.96 79.98 62.08C80.01 66.21 80.02 70.42 80.03 74.48V75.71C80.04 79.04 80.04 82.43 80.03 85.77C80.03 87.56 79.45 89.09 78.37 90.18C77.28 91.28 75.76 91.87 73.97 91.87C59.76 91.97 48 92.02 36.94 92.05C34.34 92.06 31.7 92.06 29.15 92.06C24.29 92.06 19.26 92.05 14.33 92.12C14.29 92.12 14.25 92.12 14.22 92.12ZM9.16 69.44C9.59 69.46 10.23 69.58 10.76 70.08C11.5 70.79 11.5 71.75 11.5 72.16C11.5 73.8 11.51 75.48 11.53 77.1C11.56 79.98 11.58 82.97 11.51 85.91C11.49 86.73 11.72 87.41 12.18 87.87C12.66 88.35 13.38 88.6 14.27 88.59C19.23 88.52 24.27 88.52 29.14 88.53C31.69 88.53 34.33 88.53 36.92 88.52C47.98 88.48 59.74 88.43 73.93 88.37C75.65 88.36 76.48 87.51 76.49 85.78C76.5 82.44 76.5 79.07 76.49 75.74V74.51C76.48 70.45 76.47 66.25 76.44 62.13C76.43 61.01 76.22 60.77 76.2 60.74C76.18 60.72 75.95 60.52 74.89 60.52C74.77 60.52 74.67 60.52 74.58 60.51C74.52 60.51 74.45 60.5 74.41 60.5C73.35 60.67 72.68 60.32 72.3 59.99C71.45 59.25 71.47 58.18 71.48 57.77C71.52 56.02 71.51 54.23 71.51 52.5C71.51 52.04 71.51 51.59 71.51 51.13C71.51 50.09 71.31 49.88 71.31 49.88C71.31 49.88 71.1 49.68 70.05 49.68C68.17 49.68 66.29 49.68 64.41 49.68C57.27 49.68 49.89 49.67 42.63 49.7C42.24 49.7 41.19 49.71 40.47 48.9C39.75 48.1 39.86 47.09 39.9 46.65C40.19 43.92 40.44 41.12 40.69 38.43C40.79 37.38 40.88 36.32 40.98 35.27C41.13 33.69 41.28 32.1 41.43 30.52C41.76 27.12 42.09 23.6 42.39 20.14C42.5 18.87 42.63 17.58 42.75 16.33C43.14 12.39 43.54 8.32 43.42 4.34C43.4 3.84 43.33 3.62 43.21 3.5H40.86C40.19 3.63 39.58 3.61 39.04 3.6C38.77 3.59 38.51 3.58 38.29 3.6H38.23H38.17C37.72 3.6 37.27 3.6 36.82 3.6H35.76C35.26 3.6 34.75 3.6 34.25 3.6H33.15C32.69 3.6 32.22 3.6 31.76 3.6H30.7C30.24 3.6 29.78 3.6 29.33 3.6H28.26C27.8 3.6 27.34 3.6 26.89 3.6H25.82C25.36 3.6 24.9 3.6 24.45 3.6H23.38C22.92 3.6 22.46 3.6 22 3.6H20.93C20.44 3.6 19.95 3.6 19.46 3.6H18.31C17.85 3.6 17.38 3.6 16.92 3.6H15.86C15.4 3.6 14.94 3.6 14.49 3.6H13.42C12.96 3.6 12.5 3.6 12.05 3.6H10.98C10.51 3.6 10.04 3.6 9.57 3.6H8.54C8.07 3.6 7.59 3.6 7.12 3.6H6.14C5.62 3.6 5.11 3.6 4.59 3.6L4 3.62C3.78 3.62 3.63 3.63 3.53 3.64V9.6C3.68 9.9 3.77 10.3 3.74 10.8L4.05 14.04C4.86 22.57 5.69 31.38 6.5 40.06C7.12 46.81 7.74 53.68 8.34 60.32C8.61 63.36 8.88 66.4 9.16 69.44Z" fill="#A3CEEA"/>
<path d="M43.6698 1.75977C44.7698 2.24977 45.1398 3.09977 45.1798 4.29977C45.3498 9.66977 44.6098 14.9798 44.1498 20.3098C43.7098 25.3598 43.2098 30.4098 42.7398 35.4498C42.3798 39.2498 42.0498 43.0598 41.6598 46.8498C41.5698 47.6898 41.7198 47.9498 42.6298 47.9498C51.7698 47.9098 60.9198 47.9298 70.0598 47.9298C72.4398 47.9298 73.2798 48.7598 73.2798 51.1398C73.2798 53.3598 73.2898 55.5898 73.2498 57.8098C73.2398 58.5098 73.3698 58.8898 74.1598 58.7598C74.3998 58.7198 74.6598 58.7498 74.9098 58.7498C77.3398 58.7498 78.2098 59.6098 78.2298 62.1098C78.2598 66.6498 78.2698 71.1898 78.2798 75.7298C78.2898 79.0798 78.2898 82.4298 78.2798 85.7798C78.2698 88.4698 76.6498 90.1198 73.9698 90.1298C61.6298 90.1898 49.2998 90.2398 36.9598 90.2798C29.4098 90.3098 21.8698 90.2398 14.3298 90.3498C11.4998 90.3898 9.7198 88.5198 9.7798 85.8698C9.8898 81.2998 9.7598 76.7298 9.7698 72.1598C9.7698 71.4798 9.6798 71.1598 8.8798 71.1998C7.5898 71.2698 7.5798 71.2098 7.4698 69.9498C6.5698 60.0398 5.6798 50.1298 4.7698 40.2198C3.8698 30.4398 2.9398 20.6498 2.0098 10.8698C1.9898 10.6498 2.1298 10.3498 1.7998 10.2198C1.7998 7.89977 1.7998 5.57977 1.7998 3.26977C2.2798 2.06977 2.5898 1.86977 4.0298 1.85977C4.7398 1.85977 5.4498 1.85977 6.1598 1.85977C6.9598 1.85977 7.7598 1.85977 8.5598 1.85977C9.3698 1.85977 10.1798 1.85977 10.9998 1.85977C11.8098 1.85977 12.6298 1.85977 13.4398 1.85977C14.2498 1.85977 15.0698 1.85977 15.8798 1.85977C16.6998 1.85977 17.5098 1.85977 18.3298 1.85977C19.1998 1.85977 20.0798 1.85977 20.9498 1.85977C21.7698 1.85977 22.5798 1.85977 23.3998 1.85977C24.2098 1.85977 25.0298 1.85977 25.8398 1.85977C26.6498 1.85977 27.4698 1.85977 28.2798 1.85977C29.0898 1.85977 29.9098 1.85977 30.7198 1.85977C31.5298 1.85977 32.3498 1.85977 33.1598 1.85977C34.0298 1.85977 34.8998 1.85977 35.7798 1.85977C36.5798 1.85977 37.3898 1.85977 38.1898 1.85977C39.0198 1.80977 39.8598 1.96977 40.6898 1.75977C41.6598 1.75977 42.6698 1.75977 43.6698 1.75977Z" fill="#1E1E1C"/>
<path d="M35.7698 1.93977C34.8898 1.93977 34.0198 1.93977 33.1398 1.93977C33.0798 1.89977 33.0598 1.85977 33.0798 1.81977C33.0998 1.77977 33.1198 1.75977 33.1398 1.75977C34.0198 1.75977 34.8898 1.75977 35.7698 1.75977C35.8298 1.79977 35.8498 1.83977 35.8298 1.87977C35.8098 1.91977 35.7898 1.93977 35.7698 1.93977Z" fill="#484846"/>
<path d="M35.7695 1.93953C35.7695 1.87953 35.7795 1.81953 35.7795 1.76953C36.5895 1.76953 37.4095 1.76953 38.2195 1.76953C38.2795 1.80953 38.2995 1.84953 38.2795 1.88953C38.2595 1.92953 38.2395 1.94953 38.2195 1.94953C37.3995 1.93953 36.5795 1.93953 35.7695 1.93953Z" fill="#383837"/>
<path d="M38.21 1.94953C38.21 1.88953 38.21 1.82953 38.21 1.76953C39.02 1.76953 39.84 1.76953 40.65 1.76953C39.87 2.16953 39.03 1.84953 38.21 1.94953Z" fill="#2B2B29"/>
<path d="M35.2298 47.9501C34.5598 48.0301 33.8498 47.8401 33.2198 48.2601C32.3998 48.8001 31.9898 49.5401 31.9898 50.5401C31.9998 52.9501 31.9798 55.3601 31.9998 57.7701C32.0098 58.3601 31.8798 58.5701 31.2298 58.5801C28.3698 58.6201 26.7698 60.2601 26.7698 63.1001C26.7698 64.6601 26.7598 66.2301 26.8098 67.7901C26.8298 68.4501 26.6198 68.6301 25.9698 68.6301C22.1198 68.6001 18.2698 68.6101 14.4198 68.6201C13.1398 68.6201 11.8598 68.6301 10.5698 68.6801C9.99976 68.7001 9.72976 68.5301 9.85976 67.9301C10.3498 68.0001 10.8098 68.2301 11.3198 68.2001C12.1898 68.1501 12.3898 68.0101 12.3298 67.1301C12.2398 65.6901 12.0498 64.2701 11.8898 62.8401C11.0098 54.8501 10.1798 46.8601 9.30976 38.8701C8.55976 31.7201 7.83976 24.6001 6.99976 17.4801C6.84976 16.1801 6.73976 14.8701 6.60976 13.5601C6.50976 12.5401 6.76976 12.2501 7.76976 12.1901C8.01976 12.1701 8.26976 12.1801 8.51976 12.1801C18.6298 12.1801 28.7298 12.1801 38.8398 12.1801C39.3598 12.1801 39.9098 12.0901 40.3898 12.4001C39.0198 16.9501 39.1098 21.7001 38.5198 26.3601C37.7398 32.5001 37.1898 38.6601 36.4998 44.8101C36.4198 45.5201 36.3698 46.2401 36.2898 46.9501C36.2098 47.6501 35.9098 47.9701 35.2298 47.9501Z" fill="#A1CDE9"/>
<path d="M29.5901 85.3897C29.4401 77.9097 29.3701 70.4297 29.3901 62.9497C29.3901 61.6697 29.9201 61.1397 31.2301 61.1597C45.7501 61.3997 60.2801 61.3697 74.8101 61.3397C75.3901 61.3397 75.6801 61.4497 75.6201 62.0997C75.5601 62.7197 75.5901 63.3497 75.5801 63.9797C74.3401 64.4697 73.0301 64.5497 71.7501 64.4297C69.4501 64.2097 67.1601 64.3197 64.8601 64.2497C58.0101 64.2997 51.1601 64.2597 44.3001 64.2697C42.9101 64.2697 42.8401 64.3397 42.8401 65.7797C42.8301 71.7197 42.8401 77.6697 42.8401 83.6097C42.8401 85.6197 42.8001 85.6497 40.7901 85.6497C37.4701 85.6497 34.1601 85.6497 30.8401 85.6497C30.4101 85.6497 29.9601 85.7197 29.5901 85.3897Z" fill="#F2F4CD"/>
<path d="M64.9102 63.98C66.9402 63.99 68.9701 63.93 70.9901 64.1C72.5201 64.22 74.0401 64 75.5701 63.98C75.6001 68.11 75.6301 72.24 75.6502 76.37C75.6601 79.34 75.6701 82.32 75.6701 85.29C75.6701 87.21 75.2701 87.61 73.3801 87.62C61.3601 87.65 49.3402 87.68 37.3102 87.71C35.3702 87.71 33.4301 87.69 31.4901 87.69C29.8501 87.69 29.4801 87.28 29.5701 85.6C29.7601 85.43 29.9902 85.49 30.2002 85.49C38.2702 85.62 46.3302 85.18 54.4002 85.29C56.9302 85.32 59.4701 85.3 62.0001 85.29C63.3501 85.29 63.3901 85.26 63.3801 83.94C63.3302 78.15 63.5201 72.36 63.4801 66.57C63.4801 66.01 63.4601 65.44 63.6801 64.91C63.9301 64.36 64.3902 64.13 64.9102 63.98Z" fill="#C0D34F"/>
<path d="M64.9098 63.9805C64.0598 64.5005 63.7398 65.2205 63.7398 66.2505C63.7398 72.0605 63.6898 77.8705 63.6498 83.6705C63.6398 85.5705 63.6298 85.5705 61.7098 85.5705C50.9998 85.5805 40.2898 85.5905 29.5898 85.5905C29.5898 85.5205 29.5998 85.4505 29.5998 85.3905C33.6098 85.3905 37.6098 85.3805 41.6098 85.4105C42.3498 85.4205 42.5698 85.2005 42.5598 84.4605C42.5298 78.0105 42.5598 71.5705 42.5298 65.1205C42.5298 64.2105 42.7998 63.9405 43.6998 63.9505C50.7698 63.9905 57.8398 63.9705 64.9098 63.9805Z" fill="#E0E58E"/>
<path d="M40.4702 12.4702C29.6402 12.4702 18.8102 12.4702 7.98021 12.4702C6.74021 12.4702 6.74021 12.5502 6.90021 13.7502C7.18021 15.7802 7.36021 17.8302 7.59021 19.8602C7.82021 21.9602 8.07021 24.0602 8.30021 26.1602C8.51021 28.1402 8.69021 30.1202 8.91021 32.1002C9.21021 34.8502 9.53021 37.6002 9.82021 40.3502C10.0902 42.9502 10.3302 45.5502 10.6102 48.1502C10.9602 51.3602 11.3402 54.5702 11.6902 57.7802C11.9102 59.7902 12.0902 61.8002 12.2902 63.8102C12.4202 65.1102 12.6602 66.4002 12.6802 67.7102C12.6902 68.2702 12.5102 68.5802 11.9402 68.4602C11.2502 68.3202 10.3402 68.9302 9.89021 67.9102C9.26021 61.2602 8.62021 54.6002 8.01021 47.9402C7.54021 42.8002 7.11021 37.6602 6.64021 32.5302C6.11021 26.8302 5.55021 21.1402 5.00021 15.4402C4.87021 14.1002 4.78021 12.7602 4.61021 11.4302C4.52021 10.7202 4.70021 10.5402 5.43021 10.5502C11.7502 10.6402 18.0802 10.7002 24.4002 10.7402C29.9402 10.7702 35.4802 10.7402 41.0202 10.7502C42.4102 10.7502 42.4102 10.7602 42.3102 12.1202C42.2602 12.2502 42.1902 12.3602 42.0602 12.4202C41.5802 12.5502 41.0902 12.5102 40.6002 12.4902C40.5602 12.4902 40.5202 12.4802 40.4702 12.4702Z" fill="#CCE5F5"/>
<path d="M34.6296 57.6096C34.6196 55.4496 34.6096 53.2996 34.5796 51.1396C34.5696 50.6696 34.6996 50.4296 35.2096 50.4796C35.5196 50.5096 35.8296 50.4896 36.1496 50.4896C47.2796 50.4896 58.4196 50.4896 69.5496 50.4996C69.9096 50.4996 70.2996 50.3596 70.6296 50.6496C70.6596 52.6096 70.6596 52.6196 68.6696 52.6196C67.1396 52.6196 65.6096 52.6496 64.0896 52.6096C62.8596 52.5796 61.6696 52.6596 60.5696 53.2896C59.8596 53.4396 59.1296 53.3796 58.4196 53.3796C54.5396 53.3896 50.6596 53.3796 46.7696 53.3896C45.5496 53.3896 45.4996 53.4496 45.4796 54.6496C45.4696 55.2796 45.4896 55.8996 45.4696 56.5296C45.4296 57.6396 45.2296 57.8496 44.1296 57.8596C41.3696 57.8796 38.6196 57.8496 35.8596 57.8696C35.4196 57.8796 34.9996 57.8696 34.6296 57.6096Z" fill="#F2F4CD"/>
<path d="M19.4399 71.2602C21.6899 71.2502 23.9399 71.2602 26.1899 71.2102C26.8699 71.2002 26.8499 71.5602 26.8499 72.0302C26.8799 76.6202 26.9099 81.2202 26.9499 85.8102C26.9499 85.8702 26.9599 85.9402 26.9499 86.0002C26.8399 86.5502 27.3599 87.3202 26.9899 87.5702C26.5499 87.8602 25.7899 87.6902 25.1699 87.7002C23.2599 87.7002 21.3599 87.6902 19.4499 87.6902C19.0999 86.9602 19.1499 86.1702 19.1499 85.4102C19.1199 81.1102 19.1299 76.8102 19.1399 72.5002C19.1299 72.0602 19.0799 71.6102 19.4399 71.2602Z" fill="#A1CDE9"/>
<path d="M19.4403 71.26C19.4403 76.06 19.4403 80.86 19.4303 85.67C19.4303 86.34 19.7403 87.01 19.4503 87.68C17.5203 87.88 15.5803 87.79 13.6503 87.73C12.6903 87.7 12.3403 87.12 12.3403 85.93C12.3303 81.64 12.3203 77.35 12.3203 73.06C12.3203 71.15 12.3203 71.12 14.2103 71.15C15.9503 71.19 17.7003 71 19.4403 71.26Z" fill="#CCE5F5"/>
<path d="M42.1602 12.2801C42.2102 12.2301 42.2602 12.1701 42.3102 12.1201C41.8902 16.4901 41.4702 20.8601 41.0702 25.2301C40.7402 28.8001 40.4202 32.3701 40.0902 35.9301C40.0602 36.2001 39.9902 36.4801 39.9402 36.7501C39.6502 38.3801 39.5702 40.0401 39.3702 41.6901C39.2502 42.7001 39.1902 43.7201 39.0102 44.7301C38.9502 45.0701 38.9602 45.4101 39.1402 45.7301C39.2202 47.9801 39.2202 47.9801 37.0102 47.9801C36.4202 47.9801 35.8302 47.9601 35.2402 47.9501C36.3702 47.7401 36.0402 46.7201 36.1202 46.0901C36.5802 42.2401 36.9102 38.3701 37.3102 34.5101C37.7302 30.4401 38.1502 26.3601 38.6302 22.2901C38.9702 19.3601 39.3502 16.4401 39.5402 13.4901C39.5802 12.8301 40.1202 12.7601 40.4902 12.4701C41.0102 12.2301 41.6202 12.5401 42.1602 12.2801Z" fill="#74B8E3"/>
<path d="M34.6301 57.6104C35.0101 57.6104 35.3901 57.6004 35.7701 57.6004C36.9201 57.7704 38.0801 57.6904 39.2301 57.6704C45.7801 57.5704 52.3401 57.3904 58.9001 57.4604C60.0301 57.4704 60.0901 57.3804 60.1101 56.2104C60.1201 55.5504 60.1001 54.9004 60.1201 54.2404C60.1401 53.7904 60.2201 53.3704 60.6101 53.0804C61.2801 52.5004 62.0501 52.3004 62.9401 52.3204C65.0601 52.3604 67.1801 52.3404 69.3001 52.3304C70.7401 52.3304 70.5901 52.4204 70.5901 51.1104C70.5901 50.9604 70.6201 50.8004 70.6401 50.6504C70.8301 53.2304 70.6701 55.8204 70.7101 58.4104C70.7201 58.9604 70.3001 58.8604 69.9701 58.8604C66.1201 58.8604 62.2801 58.8704 58.4301 58.8504C50.8301 58.8104 43.2401 58.7404 35.6401 58.7204C34.7601 58.7004 34.3801 58.5004 34.6301 57.6104Z" fill="#C0D34F"/>
<path d="M6.46012 7.94008C4.37012 8.05008 4.37012 8.05008 4.37012 6.00008C4.37012 4.54008 4.37012 4.55008 5.85012 4.54008C17.6701 4.49008 29.4901 4.44008 41.3001 4.39008C42.5401 4.38008 42.5401 4.39008 42.5401 5.61008C42.5401 5.95008 42.5201 6.30008 42.5101 6.64008C41.6701 7.17008 40.6901 6.83008 39.8101 7.10008C39.2501 7.14008 38.6901 7.15008 38.1201 7.15008C28.1701 7.15008 18.2301 7.15008 8.28012 7.14008C7.54012 7.13008 6.83012 7.14008 6.46012 7.94008Z" fill="#CCE5F5"/>
<path d="M6.45962 7.93957C6.43962 7.33957 6.35962 6.80957 7.31962 6.80957C18.1896 6.84957 29.0496 6.83957 39.9196 6.83957C39.8796 7.45957 39.4196 7.77957 38.9796 8.10957C30.6696 8.10957 22.3596 8.10957 14.0496 8.08957C11.5096 8.08957 8.98962 7.99957 6.45962 7.93957Z" fill="#A1CDE9"/>
<path d="M38.9805 8.11984C39.1605 7.59984 39.6205 7.27984 39.9205 6.83984C40.7605 6.51984 41.6405 6.64984 42.5105 6.62984C42.5905 8.14984 42.5905 8.14984 41.1305 8.13984C40.4105 8.14984 39.6905 8.12984 38.9805 8.11984Z" fill="#74B8E3"/>
<path d="M39.13 45.7298C38.68 45.4798 38.76 45.0498 38.81 44.6598C39.18 42.0398 39.51 39.4098 39.72 36.7698C39.73 36.6898 39.77 36.6198 39.8 36.5498C39.84 36.6198 39.89 36.6898 39.93 36.7598C39.77 39.7498 39.43 42.7398 39.13 45.7298Z" fill="#8EC0DF"/>
<path d="M11.79 41.2496C11.89 38.3896 12.63 35.8696 13.62 33.4096C14.43 31.3896 15.39 29.4396 16.45 27.5496C17.33 25.9796 18.65 25.8596 19.74 27.2696C21.62 29.7096 23.27 32.2796 24.44 35.1396C24.74 35.8796 25.03 35.9396 25.75 35.6696C28.17 34.7796 30.73 34.4696 33.27 34.1296C34.4 33.9796 35.32 34.9996 35.06 36.0996C34.44 38.7796 33.67 41.4096 32.28 43.8096C31.85 44.5496 31.35 45.2496 30.74 45.8596C28.93 47.6696 26.75 48.0396 24.48 46.8596C23.95 46.5896 23.61 46.5196 23.09 46.9296C20.71 48.8096 18.08 49.0796 15.38 47.7496C12.65 46.3896 11.87 43.8896 11.79 41.2496Z" fill="#1E1E1C"/>
<path d="M43.8204 77.4401C43.8304 75.3101 44.4604 73.3201 45.2304 71.3701C45.8604 69.7801 46.6104 68.2601 47.4504 66.7701C48.3104 65.2301 49.5604 65.1301 50.6404 66.5501C52.0204 68.3501 53.2404 70.2601 54.1404 72.3401C54.3904 72.9201 54.6004 73.1101 55.2804 72.8801C57.0304 72.2701 58.8604 71.9901 60.6904 71.8001C62.2404 71.6401 62.9604 72.5101 62.5904 74.0301C62.1704 75.7601 61.6604 77.4501 60.8704 79.0501C60.4304 79.9301 59.9204 80.7501 59.2304 81.4501C57.7804 82.9101 56.0204 83.2601 54.1704 82.4101C53.7104 82.2001 53.4204 82.1501 52.9704 82.4701C50.9504 83.9401 48.7704 84.0801 46.5904 82.9001C44.4504 81.7401 43.8104 79.7301 43.8204 77.4401Z" fill="#1E1E1C"/>
<path d="M42.1605 12.2801C41.6405 12.6701 41.0405 12.3901 40.4805 12.4701C41.0005 12.1001 41.6005 12.3801 42.1605 12.2801Z" fill="#A1CDE9"/>
<path d="M60.5898 53.0798C60.1898 54.2998 60.3998 55.5598 60.4098 56.8098C60.4198 57.5298 60.2398 57.7798 59.4798 57.7798C51.8998 57.7598 44.3298 57.7698 36.7498 57.7698C36.4198 57.7698 36.0498 57.8598 35.7598 57.5998C38.5698 57.5898 41.3898 57.5598 44.1998 57.5998C44.9998 57.6098 45.2398 57.3598 45.1898 56.5898C45.1298 55.6898 45.1998 54.7798 45.1598 53.8698C45.1298 53.2698 45.3298 53.0498 45.9498 53.0498C50.8398 53.0698 55.7098 53.0698 60.5898 53.0798Z" fill="#E0E58E"/>
<path d="M18.3204 30.3604C20.4504 33.5004 22.2704 36.5703 22.8704 40.2104C23.2804 42.6603 21.7504 44.9804 19.3404 45.5404C17.0904 46.0604 14.9804 44.2904 14.8104 41.7504C14.7004 40.1604 15.0304 38.6304 15.4804 37.1304C15.8604 35.8704 16.3504 34.6504 16.8504 33.4304C17.2604 32.4504 17.7704 31.5104 18.3204 30.3604Z" fill="#778E35"/>
<path d="M26.9798 44.5302C25.8398 44.5102 25.4698 44.0402 25.7798 43.0002C26.1198 41.8402 25.9898 40.6602 25.8798 39.5002C25.8298 39.0002 25.9798 38.7802 26.3898 38.6102C27.8498 37.9902 29.3998 37.8002 30.9398 37.4902C31.3198 37.4102 31.6198 37.5602 31.4698 38.0102C30.7698 40.1802 30.0898 42.3702 28.3298 43.9802C27.8598 44.4102 27.4798 44.5402 26.9798 44.5302Z" fill="#758E35"/>
<path d="M49.2795 69.6299C50.8695 72.2299 52.4895 74.6199 52.4895 77.6599C52.4895 79.8599 50.4295 81.2899 48.3795 80.5299C47.4095 80.1699 46.9295 79.4099 46.8195 78.3799C46.5595 75.9299 47.4195 73.7399 48.3395 71.5599C48.5895 70.9599 48.8995 70.3899 49.2795 69.6299Z" fill="#758E35"/>
<path d="M59.31 74.96C58.87 76.42 58.38 77.68 57.63 78.82C57.34 79.26 56.98 79.63 56.48 79.86C56.13 80.02 55.8 79.97 55.48 79.79C55.04 79.55 55.37 79.22 55.43 78.97C55.58 78.21 55.71 77.47 55.49 76.7C55.34 76.19 55.47 75.85 56.04 75.68C57.06 75.37 58.09 75.12 59.31 74.96Z" fill="#758E35"/>
</g>
<defs>
<clipPath id="clip0">
<rect width="80.02" height="92.12" fill="white"/>
</clipPath>
</defs>
</svg>
