<svg width="8" height="8" viewBox="0 0 8 8" fill="none" xmlns="http://www.w3.org/2000/svg">
<path d="M3.49658 3.6388L0.463387 0.605595C0.356596 0.498805 0.356596 0.325664 0.463387 0.218887C0.570178 0.11211 0.743318 0.112096 0.850095 0.218887L3.8833 3.2521L6.9165 0.218887C7.02329 0.112096 7.19643 0.112096 7.30321 0.218887C7.40998 0.325678 7.41 0.498818 7.30321 0.605595L4.27001 3.63879L7.30321 6.672C7.41 6.77879 7.41 6.95193 7.30321 7.05871C7.24982 7.1121 7.17983 7.13878 7.10985 7.13878C7.03986 7.13878 6.96989 7.1121 6.91649 7.05871L3.8833 4.02551L0.850109 7.05871C0.79672 7.1121 0.726734 7.13878 0.656748 7.13878C0.586761 7.13878 0.516789 7.1121 0.463387 7.05871C0.356596 6.95192 0.356596 6.77878 0.463387 6.672L3.49658 3.6388Z" fill="black"/>
</svg>
