<svg width="38" height="35" viewBox="0 0 38 35" fill="none" xmlns="http://www.w3.org/2000/svg">
<path d="M24.4828 16.1295C25.3634 16.5791 28.125 18.0065 32.1269 20.1199C36.1288 22.2332 36.2862 23.4427 36.2862 24.351V33.311H1.68311V24.351C2.28369 21.036 9.63899 17.4888 13.2416 16.1295M24.4828 16.1295C23.5727 18.0074 21.0542 20.1199 19.2556 20.1199C17.457 20.1199 14.8285 18.7717 13.2416 16.1295M24.4828 16.1295C26.4168 12.1392 26.4124 8.42856 26.1365 5.89848C25.9157 3.87442 22.8721 0.971207 19.2556 0.88469C17.3331 0.838696 13.1567 1.62061 11.8321 5.11621C10.1763 9.48572 12.3973 14.7239 13.2416 16.1295M4.03205 29.062V30.0536V31.0452" stroke="#0F5628" stroke-width="1.5"/>
<path d="M6.25146 29.0557V31.0583" stroke="#0F5628" stroke-width="1.5"/>
<path d="M8.76318 29.0557V31.0583" stroke="#0F5628" stroke-width="1.5"/>
<path d="M11.2749 29.0557V31.0583" stroke="#0F5628" stroke-width="1.5"/>
<path d="M13.7866 29.0557V31.0583" stroke="#0F5628" stroke-width="1.5"/>
<path d="M16.2983 29.0557V31.0583" stroke="#0F5628" stroke-width="1.5"/>
<path d="M18.8184 29.0557V31.0583" stroke="#0F5628" stroke-width="1.5"/>
<path d="M21.3384 29.0557V31.0583" stroke="#0F5628" stroke-width="1.5"/>
<path d="M23.8584 29.0518V31.0544" stroke="#0F5628" stroke-width="1.5"/>
<path d="M26.3784 29.0557V31.0583" stroke="#0F5628" stroke-width="1.5"/>
<path d="M28.8984 29.0518V31.0544" stroke="#0F5628" stroke-width="1.5"/>
<path d="M31.4185 29.0557V31.0583" stroke="#0F5628" stroke-width="1.5"/>
<path d="M33.9385 29.0518V31.0544" stroke="#0F5628" stroke-width="1.5"/>
</svg>
