<svg width="13" height="18" viewBox="0 0 13 18" fill="none" xmlns="http://www.w3.org/2000/svg">
<path d="M6.87667 0C3.56302 0 0.876953 2.7966 0.876953 6.2466C0.876953 6.8394 0.958209 7.4124 1.10631 7.9554C1.19737 8.2902 1.29764 8.622 1.45497 8.9226C2.68534 11.2686 6.87667 18 6.87667 18C6.87667 18 11.0686 11.268 12.2989 8.9232C12.4563 8.6226 12.556 8.2908 12.6476 7.956C12.7957 7.4124 12.877 6.84 12.877 6.2472C12.877 2.7966 10.1903 0 6.87667 0ZM6.87667 8.9976C6.0399 8.9976 5.29303 8.5902 4.80895 7.956C4.44993 7.4862 4.23497 6.8922 4.23497 6.2472C4.23497 4.7304 5.42039 3.4968 6.87724 3.4968C8.33409 3.4968 9.51894 4.731 9.51894 6.2472C9.51894 6.8928 9.30398 7.4868 8.94495 7.956C8.4603 8.5896 7.71343 8.9976 6.87667 8.9976Z" fill="#0F5628" fill-opacity="0.91"/>
</svg>
