<svg width="71" height="30" viewBox="0 0 71 30" fill="none" xmlns="http://www.w3.org/2000/svg">
<g clip-path="url(#clip0)">
<path d="M33.4264 14.646V23.4051H30.833V1.77391H37.7112C38.5321 1.75556 39.3483 1.91159 40.1127 2.233C40.8771 2.55441 41.5745 3.03484 42.1647 3.64656C42.7609 4.22114 43.2354 4.9258 43.5563 5.71319C43.8772 6.50058 44.0371 7.35246 44.0252 8.21156C44.0423 9.0753 43.8849 9.93279 43.5638 10.7252C43.2426 11.5177 42.7654 12.2264 42.1647 12.8027C40.9622 14.0316 39.4775 14.6454 37.7112 14.6442H33.4264V14.646ZM33.4264 4.43715V11.988H37.7754C38.2522 12.0031 38.7267 11.9115 39.1685 11.7189C39.6103 11.5263 40.0098 11.237 40.3413 10.8695C40.6711 10.5259 40.9332 10.115 41.1122 9.66097C41.2912 9.20697 41.3834 8.71912 41.3834 8.22626C41.3834 7.73341 41.2912 7.24556 41.1122 6.79155C40.9332 6.33755 40.6711 5.92661 40.3413 5.58303C40.014 5.20779 39.6159 4.91139 39.1735 4.71348C38.7312 4.51557 38.2546 4.42068 37.7754 4.43509H33.4264V4.43685V4.43715ZM50.0011 8.12185C51.9179 8.12185 53.4311 8.67068 54.5404 9.76832C55.6496 10.8663 56.2038 12.3713 56.2027 14.2836V23.4051H53.7221V21.3513H53.6096C52.5355 23.0424 51.1073 23.8883 49.3248 23.8883C47.803 23.8883 46.5299 23.4051 45.5056 22.4386C45.0139 21.995 44.6209 21.4394 44.3551 20.8124C44.0893 20.1854 43.9573 19.5028 43.969 18.8142C43.969 17.2827 44.5092 16.0648 45.5893 15.1604C46.6697 14.256 48.1118 13.8024 49.9158 13.8004C51.4557 13.8004 52.7238 14.1021 53.7205 14.7063V14.071C53.7234 13.6016 53.6288 13.1374 53.4435 12.7121C53.2583 12.2868 52.987 11.9109 52.6494 11.6119C51.9636 10.9488 51.0697 10.587 50.1461 10.5986C48.6976 10.5986 47.5513 11.2533 46.7073 12.5627L44.4232 11.0216C45.6796 9.08832 47.5387 8.12185 50.0011 8.12185ZM46.6461 18.8748C46.6444 19.2283 46.7215 19.5772 46.8711 19.8923C47.0207 20.2075 47.2384 20.4798 47.506 20.6866C48.0796 21.1701 48.7916 21.4262 49.5213 21.4116C50.6156 21.4096 51.6645 20.943 52.4383 20.1139C53.2975 19.2474 53.7268 18.2307 53.7268 17.0639C52.9184 16.3736 51.7908 16.0286 50.3442 16.0286C49.2908 16.0286 48.4124 16.3007 47.7092 16.8448C46.9988 17.3971 46.6461 18.0683 46.6461 18.8745V18.8748ZM70.4418 8.60509L61.7825 29.9292H59.1054L62.3188 22.468L56.6246 8.60509H59.4436L63.559 19.2369H63.6155L67.6181 8.60509H70.4418Z" fill="#5F6368"/>
<path d="M22.9467 12.7572C22.9478 11.9102 22.8808 11.0652 22.7471 10.2305H11.8096V15.0166H18.074C17.9458 15.7811 17.6744 16.5098 17.2763 17.1588C16.8782 17.8079 16.3616 18.3638 15.7575 18.7931V21.8996H19.4961C21.6851 19.7369 22.9464 16.5387 22.9464 12.7572H22.9467Z" fill="#4285F4"/>
<path d="M11.809 24.9018C14.9387 24.9018 17.5741 23.8006 19.4958 21.902L15.7572 18.7953C14.7163 19.5512 13.3763 19.9829 11.809 19.9829C8.78409 19.9829 6.21652 17.7976 5.29807 14.8535H1.44727V18.055C2.41254 20.1131 3.89268 21.8433 5.72243 23.0523C7.55219 24.2613 9.65955 24.9016 11.8092 24.9018H11.809Z" fill="#34A853"/>
<path d="M5.29849 14.8528C4.8131 13.3098 4.8131 11.6389 5.29849 10.096V6.89453H1.44685C0.634821 8.62592 0.211914 10.5368 0.211914 12.4745C0.211914 14.4123 0.634821 16.3231 1.44685 18.0545L5.29794 14.8528H5.29849Z" fill="#FBBC04"/>
<path d="M11.8095 4.96681C13.4634 4.93789 15.0615 5.60751 16.2584 6.83093L19.5688 3.28387C17.4697 1.1713 14.6888 0.0115206 11.8092 0.0476965C9.65952 0.0478306 7.55214 0.688184 5.72238 1.89727C3.89263 3.10635 2.4125 4.83657 1.44727 6.89476L5.29835 10.0962C6.21679 7.15211 8.78436 4.96681 11.8092 4.96681H11.8095Z" fill="#EA4335"/>
</g>
<defs>
<clipPath id="clip0">
<rect width="70.2692" height="30" fill="white" transform="translate(0.211914)"/>
</clipPath>
</defs>
</svg>
