<svg width="68" height="82" viewBox="0 0 68 82" fill="none" xmlns="http://www.w3.org/2000/svg">
<g clip-path="url(#clip0)">
<path d="M1.45834 11.5306C1.45834 11.5306 0.298345 15.8506 0.768345 23.6206C1.23834 31.3906 3.81834 44.8306 7.58834 52.5906C11.3583 60.3506 13.4883 64.0206 14.5683 65.5606C15.6583 67.1206 23.0083 75.1006 25.0083 76.6806C27.8583 78.9306 31.1283 80.2106 31.7183 80.3306C32.3083 80.4506 36.2483 81.2706 39.4283 79.1506C40.8783 78.1806 45.4783 75.1306 48.7783 71.2106C53.0183 66.1806 56.3683 60.9706 58.8383 55.1506C62.9383 45.4906 64.9284 37.7706 65.9883 29.6506C67.0284 21.7006 67.1283 13.1106 66.1883 12.2906C65.2483 11.4706 45.2383 5.03059 43.8283 4.67059C42.4183 4.32059 34.1283 1.35059 33.7683 1.35059C33.4183 1.35059 19.3583 5.50059 18.4183 5.73059C17.4783 5.97059 1.34834 10.7006 1.45834 11.5306Z" fill="white" stroke="black" stroke-miterlimit="10"/>
<path d="M33.7178 3.03081C33.7078 3.03081 33.6978 3.02081 33.6778 3.03081C32.7878 3.38081 3.09777 11.7908 2.76777 12.5608C2.05777 14.2108 1.34777 32.6708 8.52777 50.7408C12.9178 61.7808 19.9378 72.0908 29.9378 77.9808C38.7178 83.1508 51.4678 67.3308 57.9378 52.5108C66.4178 33.0808 64.7578 13.3908 64.7578 13.3908L33.7178 3.03081Z" fill="#99C4B8" stroke="#5F9994" stroke-width="3" stroke-miterlimit="10"/>
<path d="M33.9483 4.44043L33.2383 78.3204C33.2383 78.3204 47.3583 72.4404 52.0583 63.5004C56.7583 54.5604 63.8183 33.1504 64.2983 23.2604C64.7783 13.3704 64.7683 13.3804 64.7683 13.3804L33.9483 4.44043Z" fill="#5F9994"/>
<path d="M23.5378 29.2002C23.5378 29.2002 17.7178 26.9902 16.6578 31.1402C16.0178 33.6302 16.3078 35.5502 20.5378 37.5802C24.3978 39.4302 25.3878 45.1702 16.2178 44.9902" stroke="white" stroke-width="3" stroke-miterlimit="10" stroke-linecap="round"/>
<path d="M37.9186 29.291C37.9186 29.291 32.0986 27.081 31.0386 31.231C30.3986 33.721 30.6886 35.641 34.9186 37.671C38.7786 39.521 39.7686 45.261 30.5986 45.081" stroke="white" stroke-width="3" stroke-miterlimit="10" stroke-linecap="round"/>
<path d="M47.1777 28.7305L47.2677 44.5705C47.2677 44.8305 47.4777 45.0305 47.7377 45.0305L54.0177 44.9505" stroke="white" stroke-width="3" stroke-miterlimit="10" stroke-linecap="round"/>
</g>
<defs>
<clipPath id="clip0">
<rect width="67.16" height="80.23" fill="white" transform="translate(0.158203 0.850586)"/>
</clipPath>
</defs>
</svg>
