<svg width="105" height="84" viewBox="0 0 105 84" fill="none" xmlns="http://www.w3.org/2000/svg">
<path d="M103.32 26.4988C102.351 22.042 98.7449 14.3444 90.0247 9.54199C87.3669 21.9867 72.5101 59.8252 46.0264 78.3436C46.1677 78.7582 46.2955 79.083 46.4032 79.2972C46.928 80.3613 47.5672 81.2873 48.1795 81.8539C48.3343 81.999 48.489 82.1164 48.6438 82.2132C49.3907 82.6692 50.7297 83.5744 53.8921 83.1944C56.3413 82.8973 63.6216 80.9901 70.8818 77.0515C78.1419 73.1198 84.487 67.9235 88.1743 64.4893C91.8616 61.0551 97.5607 56.2459 101.638 47.5601C105.056 40.2979 105.177 35.0325 103.32 26.4988Z" fill="#325825"/>
<path d="M90.0252 9.54964C89.5205 9.27325 89.0024 9.00376 88.4574 8.74119C77.4965 3.51732 69.2607 6.10161 64.443 8.5408C60.9374 10.3166 57.6202 12.0027 52.5872 18.0419C46.545 25.2973 44.7013 37.8663 43.7324 45.9647C42.7635 54.0631 43.3623 65.6233 43.8064 68.9332C44.1765 71.7178 45.2867 76.1885 46.0269 78.3444C72.5106 59.8328 87.3674 21.9874 90.0252 9.54964Z" fill="#2F6528"/>
<path d="M61.3877 36.2764C60.6408 31.2322 59.6585 23.8317 55.0628 15.4224C51.1266 8.21542 44.9498 5.25108 44.9498 5.25108C44.9498 5.25108 45.8648 2.34202 42.4131 0.552364C38.9613 -1.2442 36.4784 1.94816 36.4784 1.94816C36.4784 1.94816 27.6101 -2.17704 15.7342 4.9816C15.2766 5.29945 14.846 5.61039 14.4355 5.91443C18.6342 9.27954 25.9549 16.2585 34.2311 29.0902C42.8975 42.5299 49.6194 64.904 53.2798 80.0298C53.4816 79.9745 53.67 79.9123 53.8315 79.8294C54.6255 79.4424 56.1058 78.7998 57.5591 75.8838C58.6828 73.6243 61.1791 66.3551 62.0135 57.9734C62.8411 49.6125 62.1346 41.3206 61.3877 36.2764Z" fill="#537A2C"/>
<path d="M14.4356 5.9209C6.80537 11.5939 5.46638 16.265 5.08958 16.3755C4.31579 16.6036 2.0819 16.3894 0.830377 19.8098C-0.421142 23.2301 2.45197 25.6348 2.45197 25.6348C2.45197 25.6348 0.662162 32.2199 4.03319 41.106C7.40422 49.999 15.4045 58.7055 21.4804 64.0053C27.5564 69.3052 37.3263 75.1855 40.2801 76.6366C43.234 78.0877 48.738 79.9741 50.1914 80.1468C51.3554 80.285 52.4656 80.2505 53.2663 80.0363C49.606 64.9105 42.8841 42.5363 34.2177 29.0966C25.955 16.2581 18.6342 9.28601 14.4356 5.9209Z" fill="#426829"/>
<path d="M34.0094 15.4437C33.0136 15.5474 32.1927 16.3558 32.0581 17.3785C31.9976 17.8207 32.0716 18.2422 32.2331 18.6154C32.4618 18.0764 33.0136 17.6894 33.6528 17.6894C34.5006 17.6894 35.1869 18.3597 35.1869 19.182C35.1869 19.3962 35.1398 19.5966 35.0591 19.7831C35.8665 19.4514 36.4317 18.6361 36.4317 17.6894C36.4317 16.3627 35.3215 15.3124 34.0094 15.4437Z" fill="white"/>
<path d="M15.95 28.7238C15.8894 27.9084 16.5219 27.1967 17.363 27.1276C17.612 27.1069 17.8878 27.1691 18.1233 27.2796C18.0291 26.7337 17.0198 26.1602 16.1788 26.2224C15.008 26.3122 14.1265 27.2796 14.2073 28.3783C14.288 29.477 15.304 30.2923 16.4748 30.2025C16.7103 30.1818 16.9256 30.1196 17.1275 30.0367C16.4883 29.9054 15.9971 29.3871 15.95 28.7238Z" fill="white"/>
<path d="M27.4959 23.6591C27.4488 23.6799 25.4033 24.4054 23.2435 26.3955C21.0903 28.3855 24.6161 29.65 24.6161 29.65L27.7516 30.9491C28.882 31.3015 29.2252 31.1771 29.4472 30.9491C29.6693 30.721 29.8038 30.2995 29.999 29.7537C30.1874 29.2078 31.0621 26.5336 31.6609 25.3521C31.8695 24.9444 32.1521 24.2188 31.5196 23.3897C30.8871 22.5605 29.7029 22.9612 29.6356 22.9751C29.0772 23.0856 28.3774 23.2998 27.4959 23.6591Z" fill="white"/>
<path d="M20.0477 39.3238C19.9535 39.2754 20.0006 39.1303 20.1083 39.151C21.5953 39.4343 25.5651 40.0424 27.5972 38.923C30.1271 37.5272 30.6452 36.1729 30.6452 34.8807C30.6452 33.5886 30.5039 33.022 30.5241 32.9529C30.5443 32.8838 31.5536 33.7337 32.462 33.865C33.3703 33.9893 35.5302 34.1828 37.2796 32.7041C39.0291 31.2254 39.7087 30.2304 39.9778 29.6361C40.2469 29.0419 40.5565 28.0261 40.6776 27.881C40.7987 27.7359 40.9467 27.5839 41.1082 27.7566C41.2697 27.9225 41.1486 28.3716 41.1082 28.648C41.0678 28.9244 40.7449 30.4446 39.6683 31.9924C38.6119 33.5056 39.0089 34.7011 39.0089 34.7632C39.0089 34.8254 41.1284 41.4866 41.1957 41.8044C41.4581 43.1104 42.0771 43.0966 39.6279 44.6375C39.6279 44.6375 38.5581 45.6118 37.939 44.6375C37.32 43.6632 33.6596 37.2646 33.2425 36.8984C33.0541 36.7326 33.1146 36.5253 32.5023 36.8777C32.2736 37.0642 32.0313 37.1541 32.1524 37.5134C32.2736 37.8727 36.4386 45.0728 36.4386 45.0728C36.4386 45.0728 37.0778 45.9711 36.997 46.1645C36.9163 46.358 35.9474 47.1388 35.4293 47.4982C34.9112 47.8575 34.319 48.0717 33.552 47.4982C32.7849 46.9246 27.2271 41.5626 27.2271 41.5626C27.2271 41.5626 26.8167 41.0512 26.487 40.92C26.1573 40.7956 24.7375 40.8992 23.809 40.685C22.9814 40.4915 21.4338 40.0562 20.0477 39.3238Z" fill="white"/>
</svg>
