<svg width="12" height="8" fill="none" xmlns="http://www.w3.org/2000/svg"><mask id="a" fill="#fff"><path fill-rule="evenodd" clip-rule="evenodd" d="M4.522 7.387a.4.4 0 01-.37-.097L.767 4.09a.4.4 0 11.55-.58l3.107 2.936 5.96-6.306a.4.4 0 11.58.548L4.749 7.267a.398.398 0 01-.226.12z"/></mask><path fill-rule="evenodd" clip-rule="evenodd" d="M4.522 7.387a.4.4 0 01-.37-.097L.767 4.09a.4.4 0 11.55-.58l3.107 2.936 5.96-6.306a.4.4 0 11.58.548L4.749 7.267a.398.398 0 01-.226.12z" fill="#000"/><path d="M4.522 7.387l-.32-1.974-.079.013-.078.019.477 1.942zm-.37-.097L2.778 8.743 4.152 7.29zM.767 4.09l1.374-1.454L.767 4.091zm-.016-.565L2.205 4.9.75 3.526zm.565-.016L-.058 4.964 1.316 3.51zm3.108 2.937L3.05 7.901l1.453 1.373 1.374-1.453-1.453-1.374zm5.96-6.306L8.931-1.233 10.384.14zm.565-.016L9.575 1.578 10.95.125zm.016.564L9.51-.684 10.965.689zM4.748 7.267L3.295 5.893l1.453 1.374zm-.703-1.822a1.6 1.6 0 011.48.391L2.778 8.743a2.4 2.4 0 002.22.587l-.953-3.885zm1.48.391L2.141 2.637-.607 5.545l3.385 3.198 2.747-2.907zM2.141 2.637A1.6 1.6 0 012.205 4.9L-.702 2.152a2.4 2.4 0 00.095 3.393l2.748-2.908zM2.205 4.9a1.6 1.6 0 01-2.263.064L2.69 2.057a2.4 2.4 0 00-3.392.095L2.205 4.9zm-2.263.064L3.05 7.9l2.747-2.907L2.69 2.057-.058 4.964zM5.877 7.82l5.96-6.307-2.906-2.747L2.97 5.073l2.907 2.748zm5.96-6.307a1.6 1.6 0 01-2.262.064l2.748-2.907a2.4 2.4 0 00-3.392.096l2.907 2.747zm-2.262.064a1.6 1.6 0 01-.064-2.262l2.907 2.747a2.4 2.4 0 00-.095-3.392L9.575 1.578zM9.511-.684L3.295 5.893l2.907 2.748 6.216-6.578L9.511-.684zM3.295 5.893c.25-.264.573-.426.908-.48l.638 3.949A2.398 2.398 0 006.2 8.64L3.296 5.893z" fill="#000" mask="url(#a)"/></svg>