<svg width="83" height="72" fill="none" xmlns="http://www.w3.org/2000/svg"><g clip-path="url(#clip0)"><path d="M46.493 63.31s31.045.064 33.838.089c3.092.025 1.26-12.425 1.072-16.47-.112-2.52-5.972-22.532-8.328-23.616-1.41-.643-27.829-.328-27.829-.328l1.247 40.326z" fill="#8BC34A" stroke="#000" stroke-miterlimit="10"/><path d="M49.997 63.31H9.027c-2.02 0-3.666-1.663-3.666-3.705V17.87c0-2.041 1.646-3.705 3.666-3.705H46.58c2.02 0 3.666 1.664 3.666 3.705v45.19c-.012.138-.112.251-.25.251z" fill="#388E3C" stroke="#000" stroke-miterlimit="10"/><path d="M66.442 70.872c4.82 0 8.728-3.95 8.728-8.821 0-4.872-3.908-8.822-8.728-8.822s-8.728 3.95-8.728 8.822c0 4.871 3.908 8.82 8.728 8.82z" fill="#37474F" stroke="#000" stroke-miterlimit="10"/><path d="M66.342 65.226c1.722 0 3.117-1.41 3.117-3.15s-1.395-3.151-3.117-3.151c-1.721 0-3.117 1.41-3.117 3.15s1.396 3.15 3.117 3.15z" fill="#78909C"/><path d="M24.574 70.872c4.82 0 8.728-3.95 8.728-8.821 0-4.872-3.908-8.822-8.728-8.822s-8.727 3.95-8.727 8.822c0 4.871 3.907 8.82 8.727 8.82z" fill="#37474F" stroke="#000" stroke-miterlimit="10"/><path d="M24.462 65.226c1.722 0 3.117-1.41 3.117-3.15s-1.395-3.151-3.117-3.151c-1.721 0-3.117 1.41-3.117 3.15s1.396 3.15 3.117 3.15z" fill="#78909C"/><path d="M57.178 29.022l.062 13.27c0 .541.437.97.96.97l15.398.138c.35 0 .636-.302.586-.668-.324-2.949-1.845-14.63-5.299-14.731-2.206-.063-8.266-.038-10.685-.025a1.02 1.02 0 00-1.022 1.046z" fill="#37474F" stroke="#fff" stroke-miterlimit="10"/><path d="M18.852 36.217c9.378 0 16.98-7.684 16.98-17.163 0-9.48-7.602-17.163-16.98-17.163C9.473 1.89 1.87 9.575 1.87 19.054c0 9.48 7.603 17.163 16.982 17.163z" fill="#fff" stroke="#00ACC1" stroke-width="3" stroke-miterlimit="10"/><path d="M25.647 25.607l-6.795-6.553.087-10.9" stroke="#000" stroke-width="2" stroke-miterlimit="10" stroke-linecap="round"/><path d="M4.326 18.827l5.686.037M27.691 18.79l5.673.036M19.151 33.797l-.1-5.746" stroke="#2D3738" stroke-miterlimit="10" stroke-linecap="round"/><path d="M19.1 21.612c1.268 0 2.295-1.038 2.295-2.319 0-1.28-1.027-2.318-2.294-2.318-1.267 0-2.294 1.038-2.294 2.318s1.027 2.319 2.294 2.319z" fill="#00ACC1"/></g><defs><clipPath id="clip0"><path fill="#fff" d="M0 0h82.738v71.502H0z"/></clipPath></defs></svg>