<svg width="86" height="93" fill="none" xmlns="http://www.w3.org/2000/svg"><g clip-path="url(#clip0)"><path d="M43.99 92.52c-9.14 0-18.45-.21-24.87-.63h-.06l-.06-.02a6.153 6.153 0 01-3.55-1.73c-1.93-1.87-3.68-4.07-5.67-7.13-4.45-6.88-7.25-13.73-8.57-20.97-.73-4.02-.8-8.41-.21-13.42.27-2.33.56-4.28.9-6.09-2.77-3.08-1.96-6.7-1.07-9.2.88-2.49 2.36-4.59 3.79-6.61l.25-.35c1.5-2.14 3.1-4.24 4.65-6.27l.03-.04c-.01-1.99-.01-3.67 0-5.26-3.6-1.82-4.43-4.57-4.48-6.6-.03-1.73.37-3.27 1.19-4.6.72-1.16 1.76-2.13 3.09-2.9l.14-.7h64.56l.32.13c1.22.49 2.61 1.05 3.82 2.15 2.03 1.85 2.83 4.43 2.21 7.08-.61 2.6-2.53 4.9-4.76 5.75 0 .46.01.93.03 1.42.04 1.29.08 2.61-.14 3.98.96 1.37 1.92 2.74 2.87 4.11 1.74 2.49 3.53 5.06 5.3 7.58 2.49 3.56 2.45 6.79-.15 10.13.02.07.03.15.05.24.46 2.68.82 5.43 1.11 8.41.63 6.62-.33 13.2-2.95 20.11-2.41 6.35-5.72 12.1-9.86 17.07-.21.25-.41.47-.61.68-.18.2-.36.38-.51.56-1.34 1.64-3.21 2.52-5.56 2.63-5.63.33-13.36.49-21.23.49zm-24.58-4.15c11.86.77 33.57.84 45.62.14h.02c1.36-.06 2.29-.47 3-1.34.22-.27.44-.51.66-.74.17-.19.34-.36.48-.53 3.89-4.67 7.01-10.07 9.27-16.06 2.42-6.4 3.32-12.46 2.73-18.52-.28-2.89-.63-5.55-1.07-8.15 0-.02-.02-.08-.03-.12-.11-.42-.41-1.55.47-2.62 1.86-2.25 1.92-3.82.25-6.2-1.77-2.53-3.57-5.1-5.3-7.59-1.01-1.45-2.02-2.89-3.03-4.34-.01-.01-.02-.02-.02-.03-.17-.23-.7-.92-.48-1.92.25-1.16.21-2.4.17-3.71-.02-.66-.04-1.35-.03-2.04.03-1.44.71-2.33 2.08-2.73 1.05-.3 2.37-1.62 2.77-3.32.23-.98.22-2.42-1.15-3.67-.67-.61-1.53-.99-2.45-1.36h-61.8c-.07.04-.15.07-.23.1-1.89 1-2.79 2.47-2.74 4.48.02 1.05.36 2.58 2.95 3.73 1.03.46 1.55 1.29 1.54 2.47-.01 1.74-.01 3.58 0 5.8 0 .75-.22 1.41-.67 2l-.08.11c-1.53 2.01-3.1 4.09-4.57 6.17l-.25.35c-1.35 1.91-2.63 3.72-3.35 5.76-1.02 2.88-.83 4.55.65 5.96.92.88.71 1.91.64 2.26l-.01.04c-.36 1.85-.66 3.84-.94 6.27-.56 4.73-.5 8.66.18 12.38 1.23 6.77 3.87 13.2 8.06 19.68 1.83 2.83 3.42 4.84 5.16 6.51.44.45.91.69 1.5.78z" fill="#FFCF4A"/><path d="M73.71 1.76c1.17.47 2.32.94 3.29 1.82 3.87 3.52.94 9.06-2.32 9.98-.64.18-.79.43-.8 1.07-.05 2.03.25 4.07-.18 6.08-.06.26.11.4.23.58 2.78 3.97 5.55 7.95 8.33 11.92 2.12 3.02 2.04 5.45-.33 8.33-.39.47-.14.9-.06 1.32.47 2.75.83 5.5 1.09 8.28.64 6.68-.48 13.09-2.84 19.32-2.29 6.04-5.43 11.59-9.57 16.56-.36.43-.77.82-1.13 1.26-1.11 1.36-2.57 1.91-4.28 1.98-12.09.7-34.11.62-45.9-.15a4.41 4.41 0 01-2.56-1.25c-2.11-2.03-3.83-4.38-5.41-6.82-4.05-6.24-6.98-12.95-8.32-20.31-.78-4.29-.7-8.59-.19-12.9.25-2.14.55-4.28.96-6.4.05-.24.11-.46-.12-.68-2.43-2.31-2.07-5.08-1.1-7.83.85-2.4 2.36-4.47 3.82-6.54 1.51-2.15 3.1-4.24 4.69-6.33.23-.3.31-.58.31-.93-.01-1.94-.01-3.88 0-5.82 0-.4-.05-.65-.49-.85-2.3-1.02-3.93-2.66-3.99-5.3-.06-2.77 1.27-4.83 3.75-6.12.13-.07.31-.07.35-.27h62.77z" fill="#1E1E1C"/><path d="M58.68 87.98c-9.16.3-18.32.29-27.48.12-1.59-.03-3.19-.05-4.78-.09-.9-.02-1.81.07-2.7-.14-2.83-3.04-4.7-6.68-6.39-10.43-.6-1.34-1.28-2.65-1.78-4.03-1.18-3.26-1.71-6.65-2.06-10.09-.32-3.21-.47-6.43-.36-9.65.11-3.09.43-6.17.39-9.27-.01-.53.17-1.05.41-1.53.15-.07.3-.07.45.01 3.13 1.57 6.2 1.03 9.22-.33.64-.29 1.15-.36 1.74.03 3.06 2.03 6.3 1.62 9.58.71.27-.08.54-.18.78-.31.82-.48 1.54-.35 2.37.11 2.92 1.61 5.92 1.34 8.87.1.87-.37 1.5-.27 2.35.11 3.05 1.34 6.15 1.69 9.16-.18 1.12-.69 1.27-.68 2.33.11 2.96 2.21 6.11 2.72 9.51 1.04.93-.46 1.22-.31 1.21.71-.05 3.53.13 7.07-.12 10.6-.13 1.8-.19 3.62-.23 5.43-.15 6.54-1.58 12.79-4.35 18.7-1.36 2.9-3.56 5.29-5.53 7.8-.41.53-1.01.39-1.57.41-.33.01-.68-.05-1.02.06z" fill="#FFCF4A"/><path d="M41.33 30.5c.23.61.64.98 1.32.96.64-.02 1.02-.39 1.23-.96.09-1.72.02-3.44.04-5.16.01-1.01.09-1.13 1.12-1.13 3.66-.02 7.32-.02 10.98 0 .45 0 .88.07 1.17.47 1.56 1.99 3.11 3.99 4.67 5.98.66.85 1.43 1.04 2.07.55.67-.51.68-1.26.01-2.14-1.15-1.52-2.31-3.03-3.46-4.55.29-.33.68-.27 1.05-.27 2.78-.01 5.56.01 8.34-.01.83-.01 1.42.31 1.88.99 2.08 3.12 4.35 6.1 6.6 9.1.38.5.72 1.02.96 1.61.63 1.57-.15 3.07-1.8 3.45-1.21.28-2.28-.05-3.25-.78-.21-.3-.44-.6-.64-.91-.64-.99-1.49-1.1-2.33-.27-.98.97-2.01 1.87-3.22 2.56-1.35.77-2.6.7-3.85-.22-.91-.67-1.71-1.46-2.4-2.35-.83-1.07-1.93-1.05-2.69.08-1.02 1.52-2.45 2.45-4.15 3.05-1.08.38-1.95.14-2.75-.6-.67-.62-1.18-1.37-1.75-2.08-1.09-1.33-1.98-1.37-3.2-.19-.92.89-1.88 1.73-3.07 2.29-.85.4-1.65.42-2.51 0-1.42-.68-2.7-1.56-4.02-2.4-1.14-.73-1.58-.71-2.53.28-1.06 1.09-2.2 2.02-3.68 2.51-1.3.43-2.47.24-3.51-.63-.58-.48-1.12-1-1.7-1.48-.98-.83-1.84-.88-2.9-.18-1.07.71-2.14 1.41-3.35 1.86-1.6.59-2.97.24-4.12-1-.38-.41-.76-.83-1.13-1.26-1.06-1.23-1.67-1.23-2.67-.01-2.01 1.08-4.09-.09-4.21-2.36-.04-.7.11-1.36.29-2.03.82-3.05 2.26-5.81 3.99-8.42.21-.31.39-.66.85-.65 3.52.32 7.06.14 10.58.21.39.01.92-.13 1.08.47-1.06 1.46-2.13 2.92-3.19 4.38-.64.88-.64 1.64 0 2.15.66.52 1.46.3 2.12-.6 1.53-2.05 3.05-4.1 4.58-6.14.38-.26.82-.27 1.26-.27 3.49 0 6.98-.01 10.48 0 1.33 0 1.37.07 1.38 1.35.01 1.58-.07 3.16.03 4.75z" fill="#F8C5A5"/><path d="M58.68 87.98c.14-.05.3-.16.43-.14 1.2.21 1.97-.33 2.64-1.29 1.43-2.04 3.12-3.91 4.34-6.09 1.52-2.71 2.51-5.64 3.25-8.64.69-2.78 1.27-5.57 1.39-8.46.1-2.58.2-5.17.38-7.75.25-3.6.06-7.19.14-10.78 0-.21-.02-.42-.04-.74-1.21.6-2.33 1.14-3.63 1.32-2.69.37-5-.41-7.04-2.07-.7-.57-1.12-.55-1.86-.09-3.28 2.08-6.63 1.71-9.94.04-.41-.21-.69-.34-1.18-.11-3.44 1.58-6.88 1.94-10.25-.23-.39-.25-.69-.1-1.04.07-2.71 1.33-5.57 1.49-8.49 1.01-1.04-.17-1.9-.79-2.77-1.33-.39-.24-.63-.26-1.06-.02-2.57 1.4-5.32 1.67-8.17 1.13-.68-.13-1.26-.51-1.82-.9-1.42.48-2.67 1.44-4.25 1.52-1.28.07-2.54.15-3.6-.78.03-.3.08-.5.51-.44 2.55.4 4.57-.67 6.28-2.43.44-.45.67-.55 1.17-.07 2.44 2.32 4.83 2.67 7.88 1.19.67-.33 1.35-.68 1.93-1.14.63-.5 1-.38 1.54.16 2.54 2.53 5.23 2.9 8.36 1.24.84-.44 1.63-.97 2.26-1.65.51-.56.88-.46 1.41-.08.99.71 2.06 1.3 3.15 1.85 1.6.82 3.18.74 4.76-.05 1.05-.52 1.97-1.21 2.83-1.99.39-.36.62-.39.96.07 2.73 3.69 5.51 3.76 9.35 1.36.13-.08.26-.18.39-.26.6-.38 1.03-1.29 1.67-1.22.56.06 1.05.81 1.58 1.25 2.93 2.37 5.68 2.27 8.97-.42.75-.62 1.17-.79 1.93.03 1.47 1.58 3.45 1.91 5.51 1.8.39-.02.66-.07.74.42.69 4.23 1.3 8.46 1.19 12.77-.13 5.25-1.43 10.24-3.42 15.07-2.19 5.29-5.08 10.16-8.74 14.58-1.12 1.35-2.38 2.13-4.14 2.13-1.81-.02-3.65.25-5.5.16z" fill="#E8B420"/><path d="M6.13 43.64c1.64.7 3.31.74 5.01.24.61-.18 1.15-.44 1.65-.83.35-.27.74-.5 1.18-.14.04.98-.22 1.93-.22 2.92 0 4.18-.55 8.36-.34 12.55.25 4.93.54 9.87 2.28 14.54 1.44 3.86 3.19 7.61 5.39 11.11.63 1 1.43 1.89 2.13 2.84.22.3.64.51.51 1-1.28-.08-2.56-.16-3.83-.25-.65-.04-1.18-.33-1.63-.8-3.18-3.29-5.61-7.1-7.71-11.13-2.69-5.14-4.57-10.52-5.34-16.29-.48-3.63-.25-7.24.18-10.85.2-1.64.49-3.27.74-4.91z" fill="#FEEBB0"/><path d="M71.24 16.04c.01 1-.02 2 .04 3 .04.62-.17.79-.78.78-2.44-.03-4.88-.01-7.33-.01-16.06 0-32.12-.01-48.19.02-.86 0-1.12-.22-1.06-1.07.08-1.03.04-2.06.04-3.1.25-.25.57-.25.88-.21 1 .13 2 .08 3 .08 16.6 0 33.21 0 49.81.01 1.22.02 2.45-.01 3.59.5z" fill="#F7BFCE"/><path d="M75.58 5.94c1.78 1.55-.23 5.01-1.88 5.22-.53.07-1.06.11-1.59.11-18.81.01-37.61.01-56.42-.01-1.15 0-2.31.25-3.44-.11-.48-.28-.94-.59-.98-1.23-.07-.82.38-1.11 1.13-1.12.09 0 .19-.01.28-.01 14.18-.27 28.36-.29 42.54-.13 5.54.06 11.08.04 16.62.13.59.01 1.19.01 1.77-.14 1.24-.32 1.74-1.03 1.65-2.31.03-.2.11-.34.32-.4z" fill="#EBA67C"/><path d="M71.24 16.04c-18.38-.43-36.75-.07-55.13-.17-.73 0-1.42-.25-2.14-.2-.14-1.88-.14-1.88 1.67-1.88h54.31c1.34 0 1.35 0 1.34 1.32 0 .31-.03.62-.05.93z" fill="#F39FB7"/><path d="M11.51 10.22c.25.31.5.63.74.94-1.97-.28-3.31-2.36-2.73-4.24.54-1.77 1.65-2.58 3.49-2.58 19.63.01 39.27.02 58.9.01 1.49 0 2.78.3 3.67 1.59-.06.05-.11.1-.17.15-.52.41-1.14.29-1.72.29-12.54.01-25.09 0-37.63 0H17.48c-1.22 0-2.44.03-3.65.17-1.73.19-2.51 1.01-2.46 2.75 0 .3-.04.64.14.92z" fill="#FCDAC6"/><path d="M74.25 38.6c1 .27 1.93.8 3.06.58 1.6-.32 2.42-1.63 1.78-3.12-.59-1.39-1.62-2.51-2.53-3.69-1.77-2.3-3.44-4.66-5.07-7.06-.4-.58-.83-.83-1.54-.82-3.16.04-6.32.02-9.48.03-.59-.47-.96-1.13-1.4-1.71.16-.3.41-.18.6-.18 3.73-.01 7.45.01 11.18-.02.64 0 1.05.24 1.4.74 2.73 3.93 5.47 7.85 8.19 11.79.52.76.9 1.57.71 2.55-.52 2.65-3.75 3.61-6.09 1.8-.31-.25-.65-.49-.81-.89z" fill="#EBA67D"/><path d="M12.81 24.31c-1.88 2.77-3.44 5.68-4.38 8.93-.97 3.36.24 4.87 3.67 4.43-.94 1.55-2.14 2.77-4.03 3.06-1.9.29-3.64-1.15-3.68-3.07-.03-1.24.24-2.42.81-3.52 2.08-4.02 4.85-7.57 7.55-11.16.28-.37.61-.38.99-.31.08.76-.42 1.2-.93 1.64z" fill="#FCDAC6"/><path d="M41.33 30.5c-.34-1.38-.1-2.79-.14-4.19-.04-1.63-.01-1.63-1.65-1.63l-11.36-.03c.28-.68.83-1.17 1.21-1.77.18-.28.47-.27.75-.27 3.51 0 7.01.02 10.52-.01.6 0 .73.2.72.76-.04 2.38-.04 4.76-.05 7.14z" fill="#EBA77D"/><path d="M12.81 24.31l.93-1.65h12.55c-.45.88-.98 1.58-1.62 2.22-.28-.31-.64-.18-.97-.19-2.72-.01-5.44.02-8.15-.02-.92-.01-1.85-.06-2.74-.36zM57.19 24.67c-.32-.15-.66-.18-1-.17-3.75.01-7.51.02-11.26-.01-.69-.01-.94.17-.91.89.05 1.41.02 2.81.01 4.22 0 .3.1.63-.14.9-.01-2.34-.01-4.68-.05-7.02-.01-.61.09-.88.8-.87 3.47.04 6.93.03 10.4.01.49 0 .84.13 1.09.54.32.52.84.91 1.06 1.51z" fill="#EBA67D"/><path d="M24.27 72.1c0-1.28.03-2.57-.01-3.85-.04-1.15.45-1.96 1.41-2.57 2.09-1.32 4.14-2.7 6.24-4 .67-.41.89-.88.87-1.66-.06-2.22 0-4.44-.03-6.67-.02-1.21.45-2.09 1.47-2.74 2.27-1.44 4.53-2.9 6.78-4.38 1.09-.72 2.14-.71 3.23.01 2.25 1.47 4.51 2.94 6.77 4.38 1.02.65 1.47 1.53 1.45 2.74-.04 2.35 0 4.69-.02 7.04-.01.5.15.79.57 1.06 2.17 1.37 4.3 2.79 6.47 4.16 1.03.65 1.5 1.5 1.48 2.72-.04 2.5-.04 5.01 0 7.51.02 1.19-.46 2.02-1.45 2.64-2.25 1.42-4.48 2.86-6.69 4.33-1.16.77-2.24.76-3.39-.01-2.06-1.37-4.15-2.67-6.21-4.04-.46-.31-.78-.29-1.23.01-2.06 1.37-4.15 2.67-6.21 4.04-1.16.77-2.24.76-3.39-.01-2.21-1.47-4.45-2.91-6.69-4.33-.99-.63-1.47-1.46-1.43-2.65.05-1.23.01-2.48.01-3.73z" fill="#1E1E1C"/><path d="M11.51 10.22c-.72-1.64-.54-2.6.65-3.55.25-.2.52-.36.84-.38.99-.07 1.99-.19 2.98-.19 19.52-.02 39.05-.02 58.58-.02.28 0 .56.01.84.01.56 1.74-.52 2.98-2.66 2.99-4.32.02-8.64.1-12.95-.01-12.66-.32-25.33-.15-37.99-.12-3.18.01-6.37.13-9.55.13-.98-.01-.71.62-.74 1.14z" fill="#F8C5A5"/><path d="M35.38 57.08c0-1.16.02-2.31-.01-3.47-.01-.43.14-.68.49-.91 2.11-1.34 4.21-2.7 6.29-4.07.34-.23.58-.2.91.01 2.09 1.37 4.19 2.73 6.3 4.07.37.23.47.51.47.93-.02 2.28-.02 4.57 0 6.85 0 .43-.14.67-.5.9-2.08 1.32-4.15 2.66-6.2 4.02-.41.27-.68.24-1.08-.02-2.03-1.34-4.07-2.67-6.13-3.96-.43-.27-.57-.57-.56-1.06.05-1.1.02-2.2.02-3.29z" fill="#FCE87D"/><path d="M58.32 72.08c0 1.13-.03 2.25.01 3.38.02.5-.13.79-.56 1.06-2.03 1.28-4.05 2.59-6.05 3.92-.43.28-.73.29-1.17 0-2-1.33-4.03-2.63-6.06-3.92-.41-.26-.59-.56-.58-1.06.03-2.25.02-4.5.01-6.75 0-.44.1-.74.5-1 2.09-1.32 4.16-2.66 6.21-4.02.37-.25.62-.24.99 0 2.06 1.36 4.13 2.7 6.21 4.02.36.23.5.47.49.9-.02 1.16 0 2.31 0 3.47z" fill="#FEF4C4"/><path d="M41.23 72.12c0 1.13-.03 2.25.01 3.38.02.5-.16.79-.58 1.06-2.01 1.27-4 2.56-5.98 3.87-.43.28-.74.3-1.17.01a429.6 429.6 0 00-6.14-3.97c-.36-.23-.49-.48-.49-.91.02-2.31.02-4.63 0-6.94 0-.43.14-.68.49-.91 2.08-1.32 4.16-2.66 6.22-4.02.37-.25.62-.24.99 0 2.03 1.34 4.08 2.67 6.14 3.97.4.25.52.54.52.99-.03 1.16-.01 2.32-.01 3.47z" fill="#FDD205"/></g><defs><clipPath id="clip0"><path fill="#fff" d="M0 0h85.53v92.52H0z"/></clipPath></defs></svg>