<svg width="38" height="35" fill="none" xmlns="http://www.w3.org/2000/svg"><path d="M24.483 16.13c.88.45 3.642 1.877 7.644 3.99 4.002 2.113 4.16 3.323 4.16 4.231v8.96H1.682v-8.96c.6-3.315 7.956-6.862 11.559-8.221m11.24 0c-.91 1.877-3.428 3.99-5.226 3.99-1.799 0-4.428-1.348-6.014-3.99m11.24 0c1.935-3.99 1.93-7.701 1.655-10.232-.221-2.024-3.265-4.927-6.881-5.013-1.923-.046-6.1.736-7.424 4.231-1.656 4.37.565 9.608 1.41 11.014m-9.21 12.932v1.983M6.251 29.056v2.002M8.763 29.056v2.002M11.275 29.056v2.002M13.787 29.056v2.002M16.298 29.056v2.002M18.818 29.056v2.002M21.338 29.056v2.002M23.858 29.052v2.002M26.378 29.056v2.002M28.898 29.052v2.002M31.419 29.056v2.002M33.938 29.052v2.002" stroke="#0F5628" stroke-width="1.5"/></svg>