<svg width="73" height="93" fill="none" xmlns="http://www.w3.org/2000/svg"><path d="M15.97 92.6h-4.79l-.24-.36c-.05-.01-.11-.02-.17-.04-2.75-.69-5.33-2.1-7.66-4.18-1.93-1.72-2.9-3.95-2.9-6.64C.23 71.12.19 60.77.16 51.06v-1.7c-.01-3.18-.02-6.47-.15-9.69-.17-4.2 1.13-8.22 3.99-12.25-.4-.54-.63-1.14-.7-1.78-.09-.82.12-1.68.6-2.56.92-1.68 2.22-3.2 3.97-4.67-.02-.26-.01-.5-.01-.7 0-.11.01-.21 0-.3v-.43c0-.16 0-.37-.01-.49a.916.916 0 00-.2-.12c-2.3-1.14-2.92-3.74-3.33-5.46-.74-3.12-.17-6.03 1.69-8.64C6.55 1.51 7.44.48 8.94.19L9 .18l.06-.01c.96-.12 1.88-.1 2.76-.08.35.01.67.01 1 .01 2.34-.01 4.72-.01 7.03-.01H53.6c.29-.02.56-.01.78 0 .14.01.32.01.39 0l.26-.09h6.82l.2.25c.14.01.29.03.45.07 2.79.66 3.69 2.6 3.95 4.11.44 2.52.21 5.01-.04 6.9-.27 2.03-1.43 3.76-3.28 4.9v.01c-.23 1.66.16 2.57 1.44 3.37 1.27.79 2.38 2 3.4 3.7.81 1.34 1.04 2.7.69 4.03 2.27 5.01 3.33 10.56 3.43 17.96l.06 4.31c.14 10.15.29 20.64.04 30.98-.09 3.62-1.65 6.79-4.66 9.43-1.5 1.32-3.22 2.03-5.09 2.1-5.36.2-10.62.26-16.87.3-.18 0-.38.01-.58.02-.07 0-.15.01-.22.01-.72.09-1.4.08-2.06.07-.36-.01-.7-.01-1.02 0H17.71c-.31.02-.6.01-.85 0-.24-.01-.52-.02-.63.01l-.26.07zm-3.25-3.53h2.75c.58-.13 1.1-.11 1.53-.1.19.01.37.01.51 0l.07-.01H41.63c.41-.01.8-.01 1.18 0 .58.01 1.12.02 1.61-.05l.09-.01h.09c.09 0 .19-.01.28-.01.22-.01.46-.02.7-.02 6.21-.04 11.44-.11 16.76-.3 1.06-.04 2-.44 2.89-1.22 2.26-1.99 3.4-4.24 3.46-6.87.25-10.27.1-20.73-.04-30.85l-.06-4.31c-.09-7.02-1.09-12.21-3.23-16.81-.3-.65-.34-1.3-.11-2 .1-.3.15-.71-.27-1.41-.73-1.21-1.46-2.03-2.24-2.52-1.28-.8-2.19-1.81-2.69-3.02-.46-1.11-.59-2.36-.39-3.83.08-.6.24-1.71 1.53-2.46.7-.41 1.58-1.16 1.74-2.42.23-1.74.42-3.8.06-5.83-.12-.67-.33-1.04-1.2-1.26h-.04c-.22 0-.65.01-1.11-.16-.32.05-.65.02-.96-.08h-4.06c-.55.14-1.03.11-1.41.1-.15-.01-.29-.01-.38-.01l-.08.01h-33.9c-2.3 0-4.67 0-7.01.01-.37 0-.73-.01-1.08-.01-.77-.02-1.49-.03-2.18.05-.16.03-.35.16-.7.65-1.26 1.77-1.63 3.66-1.13 5.78.35 1.48.71 2.74 1.47 3.12 2.17 1.08 2.17 2.83 2.17 3.77V17.81c0 .15-.01.3 0 .38.2 1.7-.88 2.61-1.24 2.91-1.42 1.19-2.45 2.39-3.16 3.68-.16.3-.19.47-.18.5 0 0 .03.07.16.19.22.21.89.83.91 1.81.02.81-.42 1.4-.63 1.68-2.68 3.6-3.85 6.97-3.7 10.58.14 3.28.15 6.61.15 9.83v1.69c.04 9.72.07 20.07.05 30.34 0 1.68.54 2.95 1.72 4 1.92 1.71 3.93 2.82 6.15 3.38.02 0 .04 0 .06.01.2.02.61.07 1.04.28z" fill="#DD636F"/><path d="M60.99 1.76c.3.38.74.19 1.11.27 1.49.35 2.36 1.17 2.62 2.7.37 2.12.23 4.26-.05 6.37-.21 1.61-1.18 2.89-2.61 3.72-.52.3-.59.63-.67 1.17-.3 2.19.26 3.87 2.26 5.11 1.18.73 2.08 1.88 2.82 3.11.54.9.77 1.85.44 2.87-.09.26-.08.46.03.71 2.59 5.56 3.32 11.47 3.4 17.53.16 11.74.38 23.48.1 35.23-.08 3.34-1.6 5.99-4.06 8.15-1.13.99-2.45 1.6-3.99 1.66-5.6.21-11.21.27-16.81.3-.31 0-.63.02-.94.03-1 .14-2 .03-3 .06h-24c-.65.05-1.31-.11-1.95.1h-3.57c-.22-.33-.61-.26-.92-.34-2.62-.68-4.9-2.01-6.9-3.8-1.58-1.41-2.31-3.17-2.31-5.32.01-10.11-.02-20.22-.06-30.33-.01-3.82 0-7.64-.16-11.45-.19-4.47 1.47-8.24 4.04-11.71.37-.5.41-.71-.07-1.16-.85-.8-.93-1.71-.31-2.82.9-1.64 2.16-3 3.58-4.18.46-.38.69-.76.62-1.34-.04-.34 0-.69-.01-1.03-.02-1.02.18-1.89-1.18-2.57-1.53-.76-2-2.63-2.4-4.29-.62-2.61-.15-5.03 1.41-7.21.45-.64.99-1.22 1.82-1.38 1.18-.15 2.36-.05 3.55-.06 3.21-.02 6.43-.01 9.64-.01h31.2c.56-.05 1.14.11 1.69-.1h4.7c.19.14.38.14.56 0 .13.01.25.01.38.01z" fill="#1E1E1C"/><path d="M53.84 1.95c-10.46 0-20.92-.01-31.38-.01-.06-.04-.08-.08-.05-.12.02-.04.04-.05.06-.05h31.38c.06.04.08.08.06.12-.02.04-.05.06-.07.06z" fill="#484846"/><path d="M22.47 1.76c0 .06 0 .11-.01.17-4.4 0-8.79-.01-13.19-.01.02-.05.03-.1.04-.16h13.16z" fill="#565654"/><path d="M53.84 1.95c.01-.06.01-.12.01-.18h1.5c-.46.36-1.01.1-1.51.18z" fill="#2F2F2D"/><path d="M60.61 1.76c-.19.3-.38.23-.56 0h.56z" fill="#8C8C8B"/><path d="M7.83 29.58c1.5-2.15 3.56-2.8 6.06-2.22.67.15 1.36.26 1.99.5 2.47.94 4.95.6 7.37-.03 2.7-.71 5.36-.68 8.01.06 3.43.95 6.82.58 10.17-.29 1.63-.42 3.18-.44 4.76.13.38.14.79.19 1.16.35 3.28 1.35 6.49.9 9.61-.49 1.43-.63 2.69-.76 4.04.15.79.54 1.77.6 2.72.52.47-.04.7.11.9.58 1.81 4.2 2.83 8.54 3 13.15.45 12.64.32 25.29.31 37.94 0 2.91-1.25 5.24-3.53 7.03-.6.47-1.29.8-2.06.83-1.97.09-3.94.13-5.91.18-.12 0-.23-.07-.35-.11.26-.48.7-.79 1.09-1.15 2.27-2.11 3.29-4.72 3.21-7.79-.01-.56-.13-1.12.03-1.68 1.44-1.21 1.7-2.81 1.63-4.58-.38-9.38-.11-18.77-.22-28.16-.02-1.53-.18-3.06-.19-4.59-.01-.9-.41-1.62-1.11-2.18-.24-.19-.51-.36-.69-.63-.2-1.97-.95-3.73-2.09-5.35-.42-.6-.84-.88-1.61-.82-2.29.17-4.57.03-6.77-.72-1.52-.52-3.02-.32-4.54-.03-1.23.23-2.43.61-3.67.78-2.49.35-4.93-.03-7.33-.63-1.49-.38-2.98-.76-4.5-.92-1.61-.17-3.24.07-4.83.46-1.36.33-2.69.79-4.11.95-1.84.22-3.61 0-5.38-.42-.95-.21-1.81-.67-2.73-.98-1.15-.38-2.26-.41-3.38.07-.33.14-.68.34-1.06.09z" fill="#CC3C48"/><path d="M60.4 77.47c.46 1.05.3 2.17.17 3.21-.37 2.91-1.86 5.24-4.15 7.06-.09.07-.23.08-.35.12-8.01.26-16.03.14-24.04.22-5.51.06-11.02.07-16.52.1-.47-.2-.89-.49-1.15-.93-1.3-2.17-2.63-4.33-2.66-6.99-.01-.69-.2-1.36-.19-2.05.01-.38-.1-.84.44-1.01 2.51.51 5.05.35 7.57.35 12.23.01 24.46 0 36.68.01 1.09 0 2.19.02 3.27-.18.32-.04.64-.1.93.09z" fill="#DD636E"/><path d="M11.77 77.29c-.06 3.43.63 6.67 2.6 9.54.33.48.76.9 1.14 1.35-3.58.42-6.54-.96-9.22-3.15-1.17-.95-1.68-2.19-1.68-3.7 0-8.52-.03-17.03-.07-25.55-.02-5.66-.02-11.33-.13-16.99-.07-3.55 1.41-6.46 3.42-9.21 2.5-1.4 4.81-.4 7.13.55.4.25.22.56.04.8-1.49 2.01-2.46 4.27-3.22 6.64-.94.91-1.25 2.01-1.24 3.31.03 10.77.03 21.54 0 32.31 0 1.35.09 2.63 1.11 3.65.11.13.14.29.12.45z" fill="#EDA7AE"/><path d="M60.98 22.25c1.2.95 2.36 1.94 3.25 3.31-.83.35-1.59.22-2.24-.19-1.86-1.2-3.72-1.21-5.69-.28-2.76 1.31-5.6 1.66-8.51.44-.2-.08-.43-.1-.63-.18-2.15-.84-4.32-.82-6.53-.21-1.11.3-2.27.43-3.4.67-1.77.37-3.53.07-5.19-.42-3.75-1.1-7.42-.59-11.1.25-1.26.29-2.44.28-3.68-.08-1.53-.44-3.09-.76-4.68-.95-.54-.07-1.06.04-1.58.06.08-.47.18-.94.21-1.43s.05-1.09.8-1.11c16.02-.01 32.03.02 48.04-.01.32 0 .64-.05.93.13z" fill="#F8C5A5"/><path d="M61.94 4.76c.31.35.35.78.35 1.21 0 1.28.01 2.56-.03 3.85-.02.76-.22 1.48-.73 2.08-.4.47-.81.77-1.5.78-16.1.24-32.21.18-48.32.15-.61 0-1.25.12-1.84-.16-.09-.48-.2-.96-.29-1.44-.07-.36-.17-.74.25-.98.55-.2 1.12-.13 1.68-.13 14.87 0 29.74-.01 44.61 0 1.01 0 2-.09 2.98-.31 1.34-.29 2.17-1.07 2.34-2.46.06-.46.25-.91.21-1.39-.01-.43-.05-.86.29-1.2z" fill="#EBA67D"/><path d="M61.94 4.76c-.01.38-.02.76-.02 1.13-.13.59-.57.78-1.1.83-.47.04-.94.03-1.41.03h-45c-.72 0-1.44-.01-2.15.17-1.67.42-2.35 1.24-2.42 2.95-.01.19-.03.37-.15.53-.06.76.66 1.46.19 2.25-1.8-1.9-2.01-5.67-.47-7.73.38-.51.84-.54 1.39-.54 13.17.01 26.33 0 39.5 0 3.13 0 6.25 0 9.38.01.76.02 1.54.05 2.26.37z" fill="#FCDAC6"/><path d="M58.74 18.12c-.24.32-.58.16-.86.16-14.9.01-29.8 0-44.7.03-.87 0-1.03-.26-1.01-1.06.06-1.98.01-1.94 2.01-1.88 7.39.19 14.77.08 22.16.02 7.29-.06 14.59-.06 21.88-.1.45 0 .71.07.67.61-.05.73.05 1.48-.15 2.22-.45-.69-1.15-.65-1.85-.65H16.11c-1.12 0-2.24.07-3.39-.15.02.39.28.42.52.45.4.06.81.03 1.22.03 14.16 0 28.31 0 42.47.01.62 0 1.27-.14 1.81.31z" fill="#8FB6E1"/><path d="M60.98 22.25c-.48.15-.97.19-1.48.19-15.56-.01-31.12 0-46.68-.01-.36 0-.76.14-1.07-.18-.28-.49-.05-.9.19-1.3.37-.02.75-.06 1.12-.06 14.95 0 29.9.02 44.84-.03 1.34-.02 2.25.49 3.08 1.39z" fill="#EBA77D"/><path d="M11.95 20.94c.06.45-.08.88-.19 1.3-.25.49-.49.98-.26 1.55.21.5-.26.62-.49.86-.85.34-1.71.58-2.63.55-.3-.01-.74-.08-.39-.54 1.12-1.43 2.2-2.94 3.96-3.72z" fill="#FCD9C5"/><path d="M11.77 77.29c-1.17-.92-1.57-2.12-1.56-3.61.04-10.96.04-21.92 0-32.88 0-1.46.4-2.63 1.55-3.53.23-.42.63-.58 1.07-.69.61-.14 1.24-.18 1.86-.18 14.39 0 28.77 0 43.16.01.7 0 1.46-.13 2.03.49 1.56.81 2.08 2.11 2.12 3.84.21 9.28.06 18.57.18 27.85.02 1.59.04 3.19.13 4.78.1 1.72-.4 3.13-1.9 4.1-.75.26-1.52.33-2.31.33H14.42c-.92 0-1.83-.07-2.65-.51z" fill="#1E1E1C"/><path d="M59.87 36.9c-.68-.13-1.36-.15-2.05-.15-14.51 0-29.02.01-43.53 0-.89 0-1.74.1-2.54.52.45-2.29 1.52-4.29 2.86-6.18.19-.27.6-.51.34-.96 1.16.18 2.33.47 3.5.52 1.53.06 3.05-.16 4.5-.66 1.85-.64 3.77-.91 5.69-.93 1.61-.02 3.19.48 4.76.89 3.36.88 6.71 1.25 10.12.24 2.31-.68 4.62-.78 6.97.03 2 .69 4.12.62 6.21.37.33-.04.57 0 .74.26 1.19 1.82 2.53 3.58 2.54 5.91-.01.04-.07.09-.11.14z" fill="#DD636E"/><path d="M9.69 10.41c-.89-2.28 1.13-3.76 3.41-3.95.37-.03.75-.01 1.13-.01h46.11c.61 0 1.2.01 1.59-.57.06.73-.16 1.42-.3 2.12-.23 1.1-1 1.72-2.03 1.99-.96.25-1.94.41-2.95.41-15.66 0-31.31.01-46.96.01z" fill="#F8C5A5"/><path d="M58.74 18.12c-15.11 0-30.23-.01-45.34-.01-1.13 0-1.13 0-.98-1.19 1.06.37 2.16.24 3.24.25 14.02.01 28.04.01 42.05-.01.77-.02 1.11.19 1.03.96 0-.01 0 0 0 0z" fill="#BBD6F1"/><path d="M36.25 75.14H14.46c-1.63 0-1.65-.03-1.65-1.7v-32.4c0-1.6.06-1.65 1.62-1.65h43.58c1.33 0 1.43.08 1.44 1.44.04 5.6.06 11.21.1 16.81.04 5.38.09 10.77.13 16.15.01 1.2-.14 1.35-1.35 1.35H36.25z" fill="#fff"/><path d="M47.91 56.29c.48 1.78.52 3.44.15 5.13-.34 1.55-1.09 2.81-2.18 3.95-3.16 3.32-7.16 4.92-11.55 5.72-2.66.48-5.34.69-8.02.24-2.29-.39-3.02-1.23-3.28-3.53-.3-2.69.14-5.3.75-7.89.71-2.99 1.7-5.87 3.24-8.55 1.75-3.05 4.34-4.67 7.93-4.53 1.21.05 2.44-.09 3.62.5.27-1.7 1.04-3.07 2.22-4.21.96-.92 1.9-1.07 3.07-.42 1.82 1 3.31 2.28 3.44 4.55.02.42.23.42.55.39 2.09-.22 3.68.78 5.06 2.17.88.89 1.01 1.8.42 2.91-1.12 2.15-2.66 3.74-5.42 3.57z" fill="#1E1E1C"/><path d="M29.43 68.95l-2.71-.18c-.72-.05-.98-.48-1.08-1.16-.31-2.24.09-4.42.57-6.59.67-2.97 1.59-5.84 3.16-8.48 1.22-2.05 2.93-3.04 5.38-3.12 2.23-.07 3.92.69 5.42 2.23a52.57 52.57 0 003.69 3.47c1.84 1.56 2.06 3.49 1.63 5.69-.25 1.27-.97 2.2-1.84 3.07-2.63 2.63-5.94 3.85-9.47 4.58-1.56.32-3.15.48-4.75.49z" fill="#DD3C45"/><path d="M44.66 47.75v.09c-.03.97-.23 1.92-1.04 2.49-.43.3-.83-.27-1.17-.55-.88-.71-1.35-1.62-1.13-2.79l.03-.09c.38-.68.53-1.69 1.44-1.75.87-.06 1.88 1.51 1.87 2.6zM48.2 53.65h-.09c-.94-.08-1.93-.17-2.53-.96-.27-.35.26-.78.52-1.11.71-.92 1.61-1.47 2.83-1.29.03 0 .06.01.09.03.7.39 1.77.53 1.82 1.48.02.83-1.62 1.86-2.64 1.85z" fill="#758E35"/><path d="M34.51 61.49c.02.27-.19.61-.48.91-.79.8-1.58 1.61-2.39 2.38-.68.66-1.43.68-1.99.11-.58-.59-.54-1.27.14-1.98.8-.83 1.63-1.65 2.45-2.45.41-.4.9-.58 1.45-.32.49.23.8.6.82 1.35zM36.59 53.98c.05.47-.24.8-.54 1.12-.74.76-1.48 1.52-2.25 2.25-.74.71-1.5.74-2.07.14-.53-.57-.48-1.3.2-1.99.81-.83 1.64-1.63 2.45-2.45.43-.43.94-.5 1.47-.29.5.21.77.63.74 1.22z" fill="#1F1E1C"/><path d="M41.86 59.22c.02.42-.14.75-.42 1.03-.81.82-1.61 1.65-2.45 2.45-.65.62-1.37.65-1.92.13-.54-.51-.52-1.38.07-2 .82-.85 1.67-1.68 2.52-2.51.42-.41.92-.51 1.47-.26.51.22.76.62.73 1.16z" fill="#1E1E1C"/></svg>