<svg width="37" height="34" fill="none" xmlns="http://www.w3.org/2000/svg"><path d="M21.763 23.195l2.68-2.46 4.845 4.621-2.678 2.46-4.847-4.62z" fill="#0F5628"/><rect width="3.988" height="16.54" rx="1.994" transform="matrix(.7439 -.66828 .71626 .69783 20.944 22.238)" fill="#0F5628"/><path d="M14.348 1.055c7.271.104 13.087 5.702 12.99 12.504-.097 6.803-6.07 12.233-13.34 12.13-7.271-.104-13.086-5.702-12.99-12.505.097-6.802 6.07-12.232 13.34-12.129zm-.307 21.6c5.48.078 9.982-4.015 10.055-9.142.073-5.127-4.31-9.347-9.79-9.425C8.825 4.01 4.322 8.103 4.25 13.23c-.073 5.128 4.31 9.347 9.79 9.425z" fill="#0F5628"/></svg>