<svg width="110" height="93" fill="none" xmlns="http://www.w3.org/2000/svg"><path d="M102.62 92.6H5.82l-.42-.25c-3.05-1.83-4.24-4.93-5.11-7.19-.49-1.28-.35-2.6.39-3.76v-.05c-.14-1.64-.18-3.26-.2-4.63C.37 68.45.28 60.98.22 53.9c-.03-3.06.8-5.82 2.46-8.21.01-.08.01-.21.01-.28 0-2.56.03-5.15.06-7.66.03-3 .07-6.1.05-9.13-.03-3.86.72-7.38 2.29-10.78 1.41-3.07 3.46-5.95 6.27-8.81 4.29-4.38 9.87-7.11 17.57-8.62.26-.05.49-.07.7-.09.13-.01.3-.03.38-.05L30.4 0h4.82l.22.09.21-.09h1.59l.28.1c.56.2 1.23.26 1.94.32.45.04.91.08 1.39.16 9.38 1.51 16.62 6.45 21.51 14.68 3.22 5.43 3.81 11.45 3.96 16.09.1 2.93.21 5.91.32 8.79.08 2.01.15 4.09.23 6.13v.03s.01.01.02.04c.37.57.74 1.17 1.09 1.82.41-.4.83-.79 1.23-1.18 1.19-1.14 2.43-2.32 3.62-3.5 1.01-1 2.24-1.51 3.63-1.51h.04c1.63.01 3.3.01 4.91.01h1.75c.69 0 2.79 0 3.73 2.09.59 1.31.38 2.66-.62 4.01-2.56 3.47-5.15 7-7.68 10.45.13-.01.26-.01.39-.01h11.07c4.62 0 9.4 0 14.1-.01h.01c1.54 0 3.62.56 4.84 3.24l.16.35v13.75l-.05.2c-.37 1.54-1.1 2.76-2.18 3.62-.06.05-.12.09-.18.14.43.24.79.53 1.09.88.71.81 1.06 1.88 1.07 3.29.02 2.32-.69 4.47-2.12 6.39-.95 1.28-2.37 2.06-4.09 2.25l-.08-.02zM6.83 89.07h95.59c.93-.12 1.33-.53 1.55-.83.96-1.29 1.44-2.73 1.43-4.26 0-.49-.08-.86-.2-1-.06-.07-.29-.26-1.06-.4-.55-.1-1.19-.21-1.8-.21h-.01c-.87 0-1.42-.37-1.73-.68-.32-.32-.7-.89-.69-1.81.01-1.36.97-2.34 2.34-2.38.1 0 .21-.01.31-.01.08 0 .17 0 .25-.01 1.58-.05 2.44-.68 2.84-2.1v-12.5c-.41-.71-.86-.86-1.47-.86h-.01c-4.7.01-9.49.01-14.11.01H78.99c-1.05 0-1.44.4-1.44 1.46-.01 1.55 0 3.13 0 4.65 0 2.11 0 4.29-.01 6.44-.01.63.2 1.11.69 1.61.77.78 1.76 1.12 3.1 1.05.88-.04 1.57.2 2.05.74.32.36.66.98.52 1.97v.06c.01.34.02 1.14-.63 1.79-.44.45-1.04.67-1.78.67h-.03c-3.69-.03-7.62-.03-12.75 0-.29 0-1.17.01-1.83-.66-.67-.67-.66-1.53-.66-1.85.03-2.7.03-5.56.01-9.27-.01-1.13.48-1.92.84-2.42 2.47-3.35 4.98-6.76 7.4-10.06 2.94-4.01 5.99-8.15 8.99-12.22.2-.27.24-.4.25-.44v-.01c-.07-.02-.23-.04-.53-.04h-1.74c-1.62 0-3.29 0-4.94-.01-.49 0-.81.13-1.17.49-1.21 1.2-2.46 2.39-3.66 3.54-.82.79-1.67 1.6-2.5 2.4-.28.27-1.02.99-2.1.75-.72-.16-1.25-.68-1.57-1.54-.38-1.02-.97-1.99-1.55-2.88-.35-.55-.54-1.12-.58-1.76l-2.13-1.85c-1.82-1.58-3.65-2.58-5.77-3.15-.42-.11-1.79-.62-1.67-2.41v-.04c.01-.9-.12-1.81-.39-2.72-.63-2.14-1.87-3.64-3.78-4.59-2.68-1.33-5.63-2.01-9.01-2.1l-3.69-.1 2.39-2.81c1.43-1.68 2.01-3.33 1.81-5.17-.21-1.98-1.1-3.49-2.72-4.62-2.52-1.76-5.94-1.44-8.14.77-2.04 2.05-2.72 5.78-.06 8.94l2.12 2.51-3.26.37-1.26.15c-.91.11-1.77.21-2.66.3-6.81.71-8.75 5.69-9.17 9.74-.14 1.36-.85 2.18-2.1 2.43-2.4.48-4.14 1.29-5.65 2.63l-2.17 1.94c-.09.3-.23.62-.46.94-1.26 1.79-1.88 3.88-1.86 6.2.07 7.09.15 14.56.26 22.82.02 1.3.05 2.84.19 4.37v.04c.04.48.12 1.29-.5 2.15-.2.27-.19.45-.11.66.85 2.23 1.65 4.04 3.25 5.18zm67.19-24.32c-1.37 1.87-2.75 3.75-4.12 5.61-.16.21-.16.26-.16.3.02 3.26.02 5.86 0 8.28 2.28-.01 4.33-.02 6.23-.02-.09-.08-.18-.17-.27-.26-1.14-1.16-1.71-2.54-1.69-4.1.02-2.13.01-4.31.01-6.41v-3.4zM34.31 6.22c-9.08 0-16.07 3.38-21.33 10.28-2.49 3.28-3.72 6.37-3.87 9.73-.19 4.38-.29 8.93-.29 13.91 1.11-.56 2.34-.99 3.72-1.31.4-3.04 1.48-5.71 3.15-7.75 2.17-2.65 5.23-4.2 9.1-4.61l1.08-.12a9.901 9.901 0 01-.91-4.91c.17-2.33 1.19-4.6 2.82-6.23 3.41-3.42 8.73-3.92 12.66-1.17 2.43 1.7 3.88 4.16 4.21 7.12a9.54 9.54 0 01-.88 5.17c2.68.35 5.13 1.09 7.43 2.23 2.81 1.39 4.69 3.66 5.6 6.76.29 1 .47 2.02.52 3.03 1.11.36 2.17.84 3.2 1.43-.07-2.08-.14-4.06-.23-6.05-.13-2.93-.26-5.37-.63-7.87-1.5-10.31-10.2-17.32-18.03-18.9-1.74-.35-3.44-.58-5.05-.67-.79-.05-1.54-.07-2.27-.07z" fill="#C1E1D8"/><path d="M92.06 57.2H92c-.82-.01-1.57-.34-2.12-.91-.61-.63-.93-1.52-.91-2.52.07-3.42 1.34-5.24 4.54-6.48.2-.08.45-.17.57-.25l.09-.06a21.05 21.05 0 00-1.4-.75c-.41-.2-.83-.41-1.25-.65-2-1.12-3.23-2.88-3.39-4.81-.16-1.93.77-3.86 2.55-5.29.6-.48 1.22-.87 1.82-1.25.38-.24.73-.46 1.06-.7.42-.3.59-.54.61-.65.02-.12-.06-.41-.37-.85-.49-.71-1.26-1.29-2.07-1.9l-.22-.16c-1.11-.84-2.25-1.78-2.92-3.31-.78-1.8-.24-3.52 1.35-4.3.96-.47 1.78-.36 2.29-.18.56.2 1.35.68 1.92 1.87.15.31.51.58.97.93l.1.07c1.21.92 2.46 1.87 3.47 3.23 1.03 1.39 1.59 2.9 1.64 4.49v.12c-.07 2.34-1.15 4.25-3.2 5.66-.38.26-.77.51-1.14.74-.49.31-.96.61-1.39.93l-.03.03c.01.01.02.01.03.02.35.19.72.38 1.1.57.49.25.99.5 1.5.79 2.8 1.6 3.31 3.8 3.26 5.36-.09 2.37-1.3 4.28-3.52 5.53l-.05.03c-.33.19-.79.44-1.36.55-.23.04-.3.09-.3.1 0 0-.12.15-.13.8-.03 1.86-1.31 3.2-3.04 3.2z" fill="#C1E1D8"/><path d="M102.3 79.26c.19-.01.37-.01.56-.01 2.44-.07 3.99-1.31 4.55-3.63V62.47c-.63-1.39-1.62-2.21-3.24-2.21-8.39.02-16.79 0-25.18.01-2.03 0-3.2 1.18-3.2 3.22-.01 3.7.01 7.39-.02 11.09-.01 1.15.42 2.06 1.19 2.85 1.23 1.25 2.76 1.66 4.45 1.58.56-.03.82.11.73.72-.07.44.2.99-.67.98-4.26-.04-8.52-.03-12.78 0-.59 0-.72-.16-.72-.73.03-3.1.02-6.2.01-9.3 0-.54.19-.94.5-1.36 5.47-7.42 10.92-14.86 16.39-22.29.52-.71.8-1.41.43-2.24-.41-.91-1.24-1.05-2.12-1.05-2.22 0-4.45.01-6.67 0-.96-.01-1.73.31-2.42 1-2.03 2-4.11 3.95-6.15 5.93-.39.38-.56.47-.79-.15-.43-1.14-1.05-2.19-1.72-3.22-.19-.3-.29-.6-.31-.96-.18-4.98-.38-9.95-.55-14.93-.18-5.35-.96-10.6-3.72-15.24C56.27 8.46 49.5 3.76 40.57 2.32c-1.21-.2-2.46-.14-3.63-.56H36c-.38.15-.75.15-1.13 0h-3.95c-.51.34-1.11.26-1.67.37-6.27 1.23-12.05 3.42-16.65 8.12-5.02 5.12-8.1 10.94-8.05 18.35.04 5.6-.11 11.2-.11 16.81 0 .44-.01.84-.29 1.24-1.52 2.17-2.2 4.6-2.18 7.23.07 7.61.16 15.21.26 22.82.02 1.5.06 3 .19 4.5.03.4.07.67-.17 1.02-.5.7-.63 1.5-.32 2.32.94 2.46 1.96 4.87 4.37 6.31h96.21c1.16-.13 2.16-.59 2.87-1.54 1.17-1.58 1.79-3.37 1.77-5.33-.02-1.92-.78-2.75-2.69-3.12-.71-.13-1.42-.24-2.14-.24-.47 0-.67-.26-.67-.71.02-.45.24-.64.65-.65zM55.91 39.78c-.47-.13-.36-.43-.36-.72.01-1.1-.15-2.19-.46-3.24-.75-2.56-2.27-4.48-4.69-5.67-3.02-1.5-6.23-2.19-9.74-2.28 1.64-1.92 2.49-4.05 2.22-6.5-.27-2.47-1.43-4.45-3.46-5.87-3.23-2.26-7.61-1.82-10.4.97-2.55 2.56-3.55 7.29-.16 11.32-1.33.15-2.61.31-3.9.45-7.34.76-10.19 6.04-10.74 11.3-.05.51-.15.78-.69.88-2.32.46-4.5 1.28-6.48 3.04v-3.22c0-4.7.08-9.39.29-14.08.18-4.1 1.83-7.56 4.23-10.72 6.32-8.3 14.88-11.5 25.08-10.91 1.78.1 3.55.35 5.3.71 7.84 1.59 17.72 8.66 19.43 20.38.39 2.67.52 5.36.64 8.04.14 3.13.24 6.25.36 9.65-2.02-1.77-4.12-2.9-6.47-3.53z" fill="#1E1E1C"/><path d="M36 1.76c-.38.33-.75.25-1.13 0H36z" fill="#4B4A49"/><path d="M98.57 32.83c-.06 1.89-.96 3.25-2.44 4.27-.85.59-1.75 1.09-2.58 1.71-1.47 1.1-1.39 2.12.2 3 .85.47 1.73.87 2.57 1.35 1.45.83 2.44 2.03 2.37 3.77-.07 1.83-1.04 3.17-2.63 4.06-.27.15-.56.32-.85.37-1.48.26-1.85 1.27-1.88 2.59-.02.96-.55 1.51-1.31 1.5-.81-.01-1.32-.65-1.3-1.63.05-2.7.89-3.89 3.42-4.87.32-.12.65-.25.93-.44 1.35-.92 1.35-2.22-.04-3.06-.85-.51-1.78-.91-2.65-1.4-3.09-1.74-3.37-4.97-.6-7.19.87-.7 1.88-1.24 2.8-1.89 1.56-1.11 1.77-2.36.68-3.94-.71-1.02-1.71-1.73-2.68-2.47-.96-.72-1.87-1.48-2.37-2.61-.4-.92-.22-1.66.51-2.01.75-.37 1.4-.08 1.85.87.34.71.94 1.16 1.54 1.61 1.15.87 2.3 1.74 3.17 2.91.78 1.06 1.25 2.23 1.29 3.5z" fill="#1E1E1C"/><path d="M58.92 80.66c-8.36.01-16.72.01-25.08.02-.09 0-.17-.04-.3-.06.53-1.51 1.03-3.02 1.59-4.5.18-.47.68-.47 1.12-.53 5.22-.74 9.8-2.76 13.29-6.84 3.22-3.77 4.79-8.23 5.23-13.11.13-1.49-.72-2.13-2.19-1.69-6.84 2.03-12.31 5.88-15.97 12.11-.09.15-.12.36-.39.43-.44-4.06-1.95-7.66-4.65-10.72-2.31-2.63-5.1-4.6-8.33-5.94-1.56-.65-2.21-.42-2.77 1.12-2.05 5.56-2.59 11.23-.56 16.89 1.61 4.48 4.99 7.31 9.32 9.1.66.27 1.34.52 2.03.72.41.12.53.28.32.66-.02.03-.03.06-.04.09-.81 2.29-.81 2.29-3.24 2.29-5.64 0-11.27-.01-16.91-.01-.33-.36-.29-.81-.29-1.25 0-9.35-.07-18.71.03-28.06.04-3.67 2.21-6.13 5.35-7.77 1.09-.57 2.27-.8 3.53-.8 8.92.03 17.83-.01 26.75.03.28 0 .56.01.84-.08.15-.03.32-.06.46-.01 3.87 1.2 7.58 2.65 9.76 6.43.59 1.02.93 2.12 1.08 3.27.15 1.14.3 2.29.3 3.45 0 7.75 0 15.5-.01 23.26.01.5.13 1.05-.27 1.5z" fill="#C0DFD6"/><path d="M47.66 42.9c-.3.34-.71.19-1.06.19-8.77.01-17.53.03-26.3 0-3.67-.01-6.16 1.8-7.95 4.83-.74 1.25-.98 2.56-.98 4.01.04 9.58.02 19.16.02 28.74-1.92.01-3.85.02-5.77.02-.25 0-.59.09-.64-.34-.08-1.26-.18-2.52.08-3.78.16-.78-.12-1.52-.22-2.28l-.21-13.32c-.03-2 .09-4.01-.09-6-.55-5.86 3.92-11.05 9.53-12.09 2.65-.49 5.31-.77 8.01-.75.3-.12.62-.06.93-.06h20.56c.91 0 1.81.09 2.71.12.53.02 1.15.04 1.38.71z" fill="#DCEEE7"/><path d="M47.66 42.9c-1.49-.83-3.16-.69-4.76-.7-6.54-.06-13.08-.02-19.62-.02-.4 0-.81-.03-1.21-.05.77-.23 1.55-.13 2.33-.13 9.52 0 19.03 0 28.55.02 3.7.01 6.6 1.71 8.86 4.53.8.99 1.43 2.12 2.1 3.21 1.02 1.66 1.5 3.45 1.46 5.44-.08 4.01-.04 8.01-.02 12.02.02 4.1.05 8.2.12 12.29.02.93-.23 1.28-1.21 1.23-1.78-.09-3.56-.06-5.35-.08 0-8.42.02-16.85-.02-25.27-.01-1.52-.16-3.05-.62-4.52-.59-1.88-1.82-3.35-3.28-4.59-2.11-1.8-4.75-2.54-7.33-3.38z" fill="#92C3B3"/><path d="M92 76.33c-2.69 0-5.39.01-8.08.01-.31-.33-.3-.74-.3-1.15-.01-3.34-.02-6.69 0-10.03.01-1.27.23-1.5 1.47-1.5 4.56-.02 9.12-.01 13.68 0 .37 0 .75 0 1.08.23.219.68-.05 1.35-.04 2.02.03 3 .02 5.99.01 8.99-.01 1.33-.06 1.35-1.36 1.37-2.16.03-4.31-.08-6.46.06z" fill="#C0DFD6"/><path d="M33.71 68.65a28.56 28.56 0 01-.92 6.09c-.11.43-.31.54-.74.41-5.96-1.8-10.24-5.87-10.73-12.89-.22-3.13.25-6.15 1.13-9.13.18-.61.39-.66.91-.39 5.47 2.85 9.18 7.03 10.16 13.3.12.86.12 1.74.19 2.61z" fill="#778E35"/><path d="M33.18 39.5c-3.69.01-7.39.01-11.08.02-.21-.22-.25-.5-.27-.78-.21-2.38 1.34-5.06 3.5-6.06 1.16-.53 2.37-.77 3.64-.77 5.51 0 11.02.03 16.53-.02.89.16 1.43.77 1.78 1.52.81 1.71 1.22 3.53 1.25 5.43.01.45-.17.6-.61.6-.46-.01-.93-.08-1.39.06h-6.95c-.01-.22.15-.24.31-.24 1.23-.01 2.47-.01 3.7 0-3.05-.06-6.09.16-9.13.09-.37-.01-.76.06-1.12-.04-.34-.1-.18.08-.16.19z" fill="#C0DFD6"/><path d="M104.209 83.72c.7 1.79-.99 4.49-2.83 4.53h-.56c-30.91 0-61.82 0-92.73.02-.96 0-1.64-.25-2.02-1.15.36-.41.85-.33 1.31-.33 2.06-.02 4.11-.01 6.17-.01.47 0 .93-.06 1.4-.13.62-.09 1.25-.06 1.88-.06 23.36 0 46.72-.01 70.08.02 1.36 0 2.48-.13 3.02-1.58.11-.29.4-.48.62-.7.51-.4 1.12-.36 1.71-.36 3.44-.01 6.89.01 10.33-.01.54-.01 1.12.14 1.62-.24z" fill="#93C3B3"/><path d="M104.21 83.72c.04.69-.48.52-.84.52-3.81.01-7.61 0-11.42 0-.44 0-.88-.03-1.28.19-.56.39-1.2.31-1.82.31H15.81c-1.02.02-1.04.04-.77.98.12.4.2.79-.1 1.16-.37.23-.78.19-1.19.19-2.56.01-5.13.02-7.69.04-.73-.88-1.08-1.96-1.53-2.98-.35-.8.39-.54.67-.54 3.07-.05 6.13-.06 9.2-.08 16.08-.06 32.17-.21 48.25-.22 12.02-.01 24.03-.01 36.05.06 1.84.02 3.7-.03 5.51.37z" fill="#DCEEE7"/><path d="M51.98 56.88c-.56 3.65-1.83 6.86-4.04 9.68-2.69 3.44-6.33 5.28-10.52 6.18-.68.15-.65-.12-.5-.63 1.15-3.97 3.23-7.37 6.31-10.13 2.51-2.26 5.39-3.93 8.75-5.1z" fill="#778E35"/><path d="M99.91 63.98c-5.04 0-10.08.01-15.13-.03-.74-.01-.88.26-.88.93.03 3.82.01 7.64.01 11.46-1.15.1-2.31.15-3.46.04-1.48-.14-2.14-.91-2.14-2.4 0-3.38.02-6.76-.01-10.13-.01-.76.2-1.03 1-1.02 8.19.03 16.39.02 24.58.01.71 0 1.1.15.9.95-.2.17-.43.27-.69.26-1.39-.04-2.79.16-4.18-.07zM45.59 32.01c-.31.33-.71.18-1.07.18-5.32.01-10.64 0-15.96.01-1.27 0-2.45.38-3.57.95-2.06 1.06-2.55 3.01-2.88 5.05-.07.43-.01.87-.01 1.31-1.56.12-3.12.2-4.68.36-.69.07-.63-.32-.56-.73.6-3.93 2.72-7.51 7.66-8.28 3.92-.61 7.85-.62 11.8-.57 1.91.02 3.81.13 5.72.22.43.02.86.12 1.3.18.54.14 1.08.28 1.58.54.3.18.73.27.67.78z" fill="#DCEEE7"/><path d="M99.91 63.98c1.61-.41 3.25-.09 4.88-.2.01 3.63.03 7.26.02 10.89-.01 1.11-.82 1.79-2.1 1.75-2.91-.1-5.82-.06-8.73-.05-.66 0-1.31-.02-1.97-.03.27-.24.6-.14.9-.14 1.81-.01 3.63-.06 5.44 0 .91.03 1.24-.16 1.21-1.17-.07-3.25-.02-6.5-.04-9.75-.01-.5.03-.94.39-1.3z" fill="#92C3B3"/><path d="M68.13 61.9l-.15-7.22c0-.18-.04-.38.15-.51.44.55.19 1.2.24 1.81.04.52-.03 1.06.04 1.7.99-1.1 1.78-2.24 2.62-3.34 1.49-1.93 3.07-3.8 4.44-5.81.79-1.17 1.75-1.72 3.15-1.54.43.06.88-.06 1.29.15.29.41-.09.63-.27.87-3.57 4.5-7.17 8.98-10.76 13.46-.2.23-.36.55-.75.43z" fill="#C0DFD6"/><path d="M68.13 61.9c1.21-1.18 2.15-2.57 3.21-3.87 2.89-3.59 5.75-7.2 8.62-10.8 0-.41-.23-.5-.6-.49-.71.03-1.43.02-2.14 0-.36-.01-.76.06-1.03-.28 1.86-.23 3.73-.07 5.72-.03-.71 1.32-1.61 2.34-2.41 3.43-3.57 4.89-7.17 9.75-10.76 14.63-.16.22-.31.62-.57.54-.38-.11-.19-.54-.18-.81.04-.77-.15-1.56.14-2.32zM45.59 32.01c-.61-.69-1.53-.83-2.26-1.3 2.69.26 5.24 1 7.36 2.71 1.76 1.41 2.25 3.45 2.27 5.63 0 .45-.26.49-.61.48-1.94-.02-3.88-.02-5.82-.04.08-.04.16-.11.24-.13.51-.11 1.22.24 1.48-.21.22-.38.01-1.02-.05-1.54-.14-1.4-.57-2.73-1.1-4.03-.28-.7-.9-1.14-1.51-1.57z" fill="#92C3B3"/><path d="M32.05 26.95c-2.65-1.57-3.56-4.71-2.14-7.38 1.37-2.58 4.48-3.65 7.05-2.43.22.3.71.41.68.9-.07.4-.38.46-.7.49-.4.04-.81.1-1.21.18-2.89.57-4.34 2.65-3.95 5.58.11.84.52 1.6.58 2.44-.04.15-.12.27-.31.22zM76.19 46.46h4.19c0 .42-.31.54-.42.77-3.86.1-2.7-.55-5.02 2.49-2.12 2.77-4.26 5.51-6.39 8.27-.07.09-.18.14-.42.32v-4.14c2.64-2.61 5.27-5.24 8.06-7.71z" fill="#DCEEE7"/><path d="M32.05 26.95c.07-.06.14-.13.2-.19.39-.49.98-.51 1.52-.62 3.59-.75 5.21-3.55 4.06-7.06-.13-.38-.18-.78-.33-1.16-.18-.26-.36-.52-.55-.79 3.25 1.08 4.47 5.59 2.27 8.39-1.77 2.27-4.73 2.86-7.17 1.43z" fill="#92C3B3"/><path d="M84.7 80.13c-.2-.86.05-1.17 1.01-1.16 4 .06 8.01.02 12.01.02 1.33 0 1.49.27 1.02 1.64-.34-.32-.76-.23-1.16-.23-3.88-.01-7.76 0-11.64-.01-.42.01-.88.09-1.24-.26z" fill="#93C3B3"/><path d="M84.7 80.13c4.39 0 8.79-.01 13.18 0 .36 0 .88-.18.87.5-3.66.02-7.32.03-10.98.05-.85 0-1.69-.01-2.54.01-.42.02-.67-.06-.53-.56z" fill="#BADCD3"/><path d="M33.18 39.5c-.18-.24-.52-.09-.91-.3h11.8c-1.49.31-3.01-.08-4.49.3h-6.4z" fill="#CFE4DE"/><path d="M4.84 74.3c.43.93.65 1.79.25 2.9-.34.94-.1 2.1-.12 3.16-.32-.78-.13-1.6-.15-2.4-.04-1.22.01-2.44.02-3.66z" fill="#B6D0C7"/><path d="M14.95 86.89c.1-.63-.2-1.15-.46-1.69-.23-.47-.27-.85.46-.76.22.03.44 0 .66 0 25.02 0 50.04 0 75.06-.01-.18.25-.45.48-.54.76-.49 1.53-1.56 1.73-3.04 1.73-24.04-.04-48.09-.03-72.14-.03zM37.5 17.92c1.64 2.34 1.06 6.1-1.24 7.7-.67.47-1.51.54-2.29.74-.57.15-1.15.27-1.72.4-.6-1.33-.99-2.73-.7-4.17.64-3.12 1.86-3.86 5.13-4.3.32-.03.74.16.82-.37z" fill="#C0DFD6"/></svg>