<svg width="81" height="93" fill="none" xmlns="http://www.w3.org/2000/svg"><g clip-path="url(#clip0)"><path d="M14.22 92.12c-1.8 0-3.41-.62-4.54-1.76-1.13-1.14-1.73-2.75-1.69-4.53.07-2.89.04-5.84.02-8.7l-.03-4.17c-.51-.04-1.02-.18-1.47-.6-.68-.62-.75-1.42-.83-2.26-.29-3.16-.57-6.32-.86-9.47-.6-6.63-1.22-13.5-1.84-20.25-.8-8.67-1.64-17.49-2.44-26.01l-.27-2.85-.27-.11V2.93l.13-.31c.27-.7.63-1.48 1.45-2C2.34.14 3.18.1 3.99.1h34.15c.37-.02.72-.01 1.03 0 .43.01.81.03 1.09-.04l.18-.06h3.6l.34.15c1.63.73 2.49 2.11 2.56 4.1.14 4.22-.28 8.4-.68 12.45-.12 1.24-.25 2.51-.36 3.76-.3 3.48-.64 7-.96 10.41l-.45 4.74c-.1 1.05-.19 2.1-.29 3.15-.22 2.43-.45 4.93-.71 7.41 6.98-.03 14.06-.02 20.92-.02h5.64c1.08 0 2.64.13 3.75 1.23 1.11 1.1 1.23 2.67 1.23 3.75v1.36c0 1.47 0 2.98-.02 4.48 1.09.01 2.61.17 3.7 1.26 1.12 1.13 1.26 2.73 1.27 3.85.03 4.13.04 8.34.05 12.4v1.23c.01 3.33.01 6.72 0 10.06 0 1.79-.58 3.32-1.66 4.41-1.09 1.1-2.61 1.69-4.4 1.69-14.21.1-25.97.15-37.03.18-2.6.01-5.24.01-7.79.01-4.86 0-9.89-.01-14.82.06h-.11zM9.16 69.44c.43.02 1.07.14 1.6.64.74.71.74 1.67.74 2.08 0 1.64.01 3.32.03 4.94.03 2.88.05 5.87-.02 8.81-.02.82.21 1.5.67 1.96.48.48 1.2.73 2.09.72 4.96-.07 10-.07 14.87-.06 2.55 0 5.19 0 7.78-.01 11.06-.04 22.82-.09 37.01-.15 1.72-.01 2.55-.86 2.56-2.59.01-3.34.01-6.71 0-10.04v-1.23c-.01-4.06-.02-8.26-.05-12.38-.01-1.12-.22-1.36-.24-1.39-.02-.02-.25-.22-1.31-.22-.12 0-.22 0-.31-.01-.06 0-.13-.01-.17-.01-1.06.17-1.73-.18-2.11-.51-.85-.74-.83-1.81-.82-2.22.04-1.75.03-3.54.03-5.27v-1.37c0-1.04-.2-1.25-.2-1.25s-.21-.2-1.26-.2h-5.64c-7.14 0-14.52-.01-21.78.02-.39 0-1.44.01-2.16-.8-.72-.8-.61-1.81-.57-2.25.29-2.73.54-5.53.79-8.22.1-1.05.19-2.11.29-3.16l.45-4.75c.33-3.4.66-6.92.96-10.38.11-1.27.24-2.56.36-3.81.39-3.94.79-8.01.67-11.99-.02-.5-.09-.72-.21-.84h-2.35c-.67.13-1.28.11-1.82.1-.27-.01-.53-.02-.75 0H4.59L4 3.62c-.22 0-.37.01-.47.02V9.6c.15.3.24.7.21 1.2l.31 3.24c.81 8.53 1.64 17.34 2.45 26.02.62 6.75 1.24 13.62 1.84 20.26.27 3.04.54 6.08.82 9.12z" fill="#A3CEEA"/><path d="M43.67 1.76c1.1.49 1.47 1.34 1.51 2.54.17 5.37-.57 10.68-1.03 16.01-.44 5.05-.94 10.1-1.41 15.14-.36 3.8-.69 7.61-1.08 11.4-.09.84.06 1.1.97 1.1 9.14-.04 18.29-.02 27.43-.02 2.38 0 3.22.83 3.22 3.21 0 2.22.01 4.45-.03 6.67-.01.7.12 1.08.91.95.24-.04.5-.01.75-.01 2.43 0 3.3.86 3.32 3.36.03 4.54.04 9.08.05 13.62.01 3.35.01 6.7 0 10.05-.01 2.69-1.63 4.34-4.31 4.35-12.34.06-24.67.11-37.01.15-7.55.03-15.09-.04-22.63.07-2.83.04-4.61-1.83-4.55-4.48.11-4.57-.02-9.14-.01-13.71 0-.68-.09-1-.89-.96-1.29.07-1.3.01-1.41-1.25-.9-9.91-1.79-19.82-2.7-29.73-.9-9.78-1.83-19.57-2.76-29.35-.02-.22.12-.52-.21-.65V3.27c.48-1.2.79-1.4 2.23-1.41H38.19c.83-.05 1.67.11 2.5-.1h2.98z" fill="#1E1E1C"/><path d="M35.77 1.94h-2.63c-.06-.04-.08-.08-.06-.12.02-.04.04-.06.06-.06h2.63c.06.04.08.08.06.12-.02.04-.04.06-.06.06z" fill="#484846"/><path d="M35.77 1.94c0-.06.01-.12.01-.17h2.44c.06.04.08.08.06.12-.02.04-.04.06-.06.06-.82-.01-1.64-.01-2.45-.01z" fill="#383837"/><path d="M38.21 1.95v-.18h2.44c-.78.4-1.62.08-2.44.18z" fill="#2B2B29"/><path d="M35.23 47.95c-.67.08-1.38-.11-2.01.31-.82.54-1.23 1.28-1.23 2.28.01 2.41-.01 4.82.01 7.23.01.59-.12.8-.77.81-2.86.04-4.46 1.68-4.46 4.52 0 1.56-.01 3.13.04 4.69.02.66-.19.84-.84.84-3.85-.03-7.7-.02-11.55-.01-1.28 0-2.56.01-3.85.06-.57.02-.84-.15-.71-.75.49.07.95.3 1.46.27.87-.05 1.07-.19 1.01-1.07-.09-1.44-.28-2.86-.44-4.29-.88-7.99-1.71-15.98-2.58-23.97C8.56 31.72 7.84 24.6 7 17.48c-.15-1.3-.26-2.61-.39-3.92-.1-1.02.16-1.31 1.16-1.37.25-.02.5-.01.75-.01h30.32c.52 0 1.07-.09 1.55.22-1.37 4.55-1.28 9.3-1.87 13.96-.78 6.14-1.33 12.3-2.02 18.45-.08.71-.13 1.43-.21 2.14-.08.7-.38 1.02-1.06 1z" fill="#A1CDE9"/><path d="M29.59 85.39c-.15-7.48-.22-14.96-.2-22.44 0-1.28.53-1.81 1.84-1.79 14.52.24 29.05.21 43.58.18.58 0 .87.11.81.76-.06.62-.03 1.25-.04 1.88-1.24.49-2.55.57-3.83.45-2.3-.22-4.59-.11-6.89-.18-6.85.05-13.7.01-20.56.02-1.39 0-1.46.07-1.46 1.51-.01 5.94 0 11.89 0 17.83 0 2.01-.04 2.04-2.05 2.04h-9.95c-.43 0-.88.07-1.25-.26z" fill="#F2F4CD"/><path d="M64.91 63.98c2.03.01 4.06-.05 6.08.12 1.53.12 3.05-.1 4.58-.12.03 4.13.06 8.26.08 12.39.01 2.97.02 5.95.02 8.92 0 1.92-.4 2.32-2.29 2.33l-36.07.09c-1.94 0-3.88-.02-5.82-.02-1.64 0-2.01-.41-1.92-2.09.19-.17.42-.11.63-.11 8.07.13 16.13-.31 24.2-.2 2.53.03 5.07.01 7.6 0 1.35 0 1.39-.03 1.38-1.35-.05-5.79.14-11.58.1-17.37 0-.56-.02-1.13.2-1.66.25-.55.71-.78 1.23-.93z" fill="#C0D34F"/><path d="M64.91 63.98c-.85.52-1.17 1.24-1.17 2.27 0 5.81-.05 11.62-.09 17.42-.01 1.9-.02 1.9-1.94 1.9-10.71.01-21.42.02-32.12.02 0-.07.01-.14.01-.2 4.01 0 8.01-.01 12.01.02.74.01.96-.21.95-.95-.03-6.45 0-12.89-.03-19.34 0-.91.27-1.18 1.17-1.17 7.07.04 14.14.02 21.21.03z" fill="#E0E58E"/><path d="M40.47 12.47H7.98c-1.24 0-1.24.08-1.08 1.28.28 2.03.46 4.08.69 6.11.23 2.1.48 4.2.71 6.3.21 1.98.39 3.96.61 5.94.3 2.75.62 5.5.91 8.25.27 2.6.51 5.2.79 7.8.35 3.21.73 6.42 1.08 9.63.22 2.01.4 4.02.6 6.03.13 1.3.37 2.59.39 3.9.01.56-.17.87-.74.75-.69-.14-1.6.47-2.05-.55-.63-6.65-1.27-13.31-1.88-19.97-.47-5.14-.9-10.28-1.37-15.41-.53-5.7-1.09-11.39-1.64-17.09-.13-1.34-.22-2.68-.39-4.01-.09-.71.09-.89.82-.88 6.32.09 12.65.15 18.97.19 5.54.03 11.08 0 16.62.01 1.39 0 1.39.01 1.29 1.37-.05.13-.12.24-.25.3-.48.13-.97.09-1.46.07-.04 0-.08-.01-.13-.02z" fill="#CCE5F5"/><path d="M34.63 57.61c-.01-2.16-.02-4.31-.05-6.47-.01-.47.12-.71.63-.66.31.03.62.01.94.01 11.13 0 22.27 0 33.4.01.36 0 .75-.14 1.08.15.03 1.96.03 1.97-1.96 1.97-1.53 0-3.06.03-4.58-.01-1.23-.03-2.42.05-3.52.68-.71.15-1.44.09-2.15.09-3.88.01-7.76 0-11.65.01-1.22 0-1.27.06-1.29 1.26-.01.63.01 1.25-.01 1.88-.04 1.11-.24 1.32-1.34 1.33-2.76.02-5.51-.01-8.27.01-.44.01-.86 0-1.23-.26z" fill="#F2F4CD"/><path d="M19.44 71.26c2.25-.01 4.5 0 6.75-.05.68-.01.66.35.66.82.03 4.59.06 9.19.1 13.78 0 .06.01.13 0 .19-.11.55.41 1.32.04 1.57-.44.29-1.2.12-1.82.13-1.91 0-3.81-.01-5.72-.01-.35-.73-.3-1.52-.3-2.28-.03-4.3-.02-8.6-.01-12.91-.01-.44-.06-.89.3-1.24z" fill="#A1CDE9"/><path d="M19.44 71.26c0 4.8 0 9.6-.01 14.41 0 .67.31 1.34.02 2.01-1.93.2-3.87.11-5.8.05-.96-.03-1.31-.61-1.31-1.8-.01-4.29-.02-8.58-.02-12.87 0-1.91 0-1.94 1.89-1.91 1.74.04 3.49-.15 5.23.11z" fill="#CCE5F5"/><path d="M42.16 12.28c.05-.05.1-.11.15-.16-.42 4.37-.84 8.74-1.24 13.11-.33 3.57-.65 7.14-.98 10.7-.03.27-.1.55-.15.82-.29 1.63-.37 3.29-.57 4.94-.12 1.01-.18 2.03-.36 3.04-.06.34-.05.68.13 1 .08 2.25.08 2.25-2.13 2.25-.59 0-1.18-.02-1.77-.03 1.13-.21.8-1.23.88-1.86.46-3.85.79-7.72 1.19-11.58.42-4.07.84-8.15 1.32-12.22.34-2.93.72-5.85.91-8.8.04-.66.58-.73.95-1.02.52-.24 1.13.07 1.67-.19z" fill="#74B8E3"/><path d="M34.63 57.61c.38 0 .76-.01 1.14-.01 1.15.17 2.31.09 3.46.07 6.55-.1 13.11-.28 19.67-.21 1.13.01 1.19-.08 1.21-1.25.01-.66-.01-1.31.01-1.97.02-.45.1-.87.49-1.16.67-.58 1.44-.78 2.33-.76 2.12.04 4.24.02 6.36.01 1.44 0 1.29.09 1.29-1.22 0-.15.03-.31.05-.46.19 2.58.03 5.17.07 7.76.01.55-.41.45-.74.45-3.85 0-7.69.01-11.54-.01-7.6-.04-15.19-.11-22.79-.13-.88-.02-1.26-.22-1.01-1.11z" fill="#C0D34F"/><path d="M6.46 7.94c-2.09.11-2.09.11-2.09-1.94 0-1.46 0-1.45 1.48-1.46l35.45-.15c1.24-.01 1.24 0 1.24 1.22 0 .34-.02.69-.03 1.03-.84.53-1.82.19-2.7.46-.56.04-1.12.05-1.69.05-9.95 0-19.89 0-29.84-.01-.74-.01-1.45 0-1.82.8z" fill="#CCE5F5"/><path d="M6.46 7.94c-.02-.6-.1-1.13.86-1.13 10.87.04 21.73.03 32.6.03-.04.62-.5.94-.94 1.27-8.31 0-16.62 0-24.93-.02-2.54 0-5.06-.09-7.59-.15z" fill="#A1CDE9"/><path d="M38.98 8.12c.18-.52.64-.84.94-1.28.84-.32 1.72-.19 2.59-.21.08 1.52.08 1.52-1.38 1.51-.72.01-1.44-.01-2.15-.02z" fill="#74B8E3"/><path d="M39.13 45.73c-.45-.25-.37-.68-.32-1.07.37-2.62.7-5.25.91-7.89.01-.08.05-.15.08-.22.04.07.09.14.13.21-.16 2.99-.5 5.98-.8 8.97z" fill="#8EC0DF"/><path d="M11.79 41.25c.1-2.86.84-5.38 1.83-7.84.81-2.02 1.77-3.97 2.83-5.86.88-1.57 2.2-1.69 3.29-.28 1.88 2.44 3.53 5.01 4.7 7.87.3.74.59.8 1.31.53 2.42-.89 4.98-1.2 7.52-1.54 1.13-.15 2.05.87 1.79 1.97-.62 2.68-1.39 5.31-2.78 7.71-.43.74-.93 1.44-1.54 2.05-1.81 1.81-3.99 2.18-6.26 1-.53-.27-.87-.34-1.39.07-2.38 1.88-5.01 2.15-7.71.82-2.73-1.36-3.51-3.86-3.59-6.5zM43.82 77.44c.01-2.13.64-4.12 1.41-6.07.63-1.59 1.38-3.11 2.22-4.6.86-1.54 2.11-1.64 3.19-.22 1.38 1.8 2.6 3.71 3.5 5.79.25.58.46.77 1.14.54 1.75-.61 3.58-.89 5.41-1.08 1.55-.16 2.27.71 1.9 2.23-.42 1.73-.93 3.42-1.72 5.02-.44.88-.95 1.7-1.64 2.4-1.45 1.46-3.21 1.81-5.06.96-.46-.21-.75-.26-1.2.06-2.02 1.47-4.2 1.61-6.38.43-2.14-1.16-2.78-3.17-2.77-5.46z" fill="#1E1E1C"/><path d="M42.16 12.28c-.52.39-1.12.11-1.68.19.52-.37 1.12-.09 1.68-.19z" fill="#A1CDE9"/><path d="M60.59 53.08c-.4 1.22-.19 2.48-.18 3.73.01.72-.17.97-.93.97-7.58-.02-15.15-.01-22.73-.01-.33 0-.7.09-.99-.17 2.81-.01 5.63-.04 8.44 0 .8.01 1.04-.24.99-1.01-.06-.9.01-1.81-.03-2.72-.03-.6.17-.82.79-.82 4.89.02 9.76.02 14.64.03z" fill="#E0E58E"/><path d="M18.32 30.36c2.13 3.14 3.95 6.21 4.55 9.85.41 2.45-1.12 4.77-3.53 5.33-2.25.52-4.36-1.25-4.53-3.79-.11-1.59.22-3.12.67-4.62.38-1.26.87-2.48 1.37-3.7.41-.98.92-1.92 1.47-3.07z" fill="#778E35"/><path d="M26.98 44.53c-1.14-.02-1.51-.49-1.2-1.53.34-1.16.21-2.34.1-3.5-.05-.5.1-.72.51-.89 1.46-.62 3.01-.81 4.55-1.12.38-.08.68.07.53.52-.7 2.17-1.38 4.36-3.14 5.97-.47.43-.85.56-1.35.55zM49.28 69.63c1.59 2.6 3.21 4.99 3.21 8.03 0 2.2-2.06 3.63-4.11 2.87-.97-.36-1.45-1.12-1.56-2.15-.26-2.45.6-4.64 1.52-6.82.25-.6.56-1.17.94-1.93zM59.31 74.96c-.44 1.46-.93 2.72-1.68 3.86-.29.44-.65.81-1.15 1.04-.35.16-.68.11-1-.07-.44-.24-.11-.57-.05-.82.15-.76.28-1.5.06-2.27-.15-.51-.02-.85.55-1.02 1.02-.31 2.05-.56 3.27-.72z" fill="#758E35"/></g><defs><clipPath id="clip0"><path fill="#fff" d="M0 0h80.02v92.12H0z"/></clipPath></defs></svg>