<svg width="35" height="32" fill="none" xmlns="http://www.w3.org/2000/svg"><g filter="url(#filter0_d)"><path d="M30.69 11.305c-.416 3.662-2.598 5.353-5.945 8.593-2.765 2.677-2.904 2.818-7.19 7.044-3.732-3.663-4.285-4.085-7.188-7.044-2.903-2.958-5.253-4.508-6.083-8.593 0-5.16 2.798-7.475 6.913-7.467 2.903 0 3.732.986 6.359 3.381 1.935-1.831 3.456-3.386 6.083-3.381 4.05.008 7.05 2.356 7.05 7.467zm-24.194 0c.691 3.099 2.9 4.786 5.668 7.607 2.212 2.254 1.106.986 5.392 5.306 4.424-4.32 4.119-4.01 5.391-5.306 2.765-2.817 5.53-4.79 5.807-7.607.381-3.888-1.936-5.495-5.115-5.495-2.35 0-3.733 1.973-6.083 4.368-2.489-2.395-4.51-4.368-6.36-4.368-3.18 0-5.391 2.395-4.7 5.495z" fill="#fff"/></g><defs><filter id="filter0_d" x=".284" y=".838" width="34.405" height="31.104" filterUnits="userSpaceOnUse" color-interpolation-filters="sRGB"><feFlood flood-opacity="0" result="BackgroundImageFix"/><feColorMatrix in="SourceAlpha" values="0 0 0 0 0 0 0 0 0 0 0 0 0 0 0 0 0 0 127 0"/><feOffset dy="1"/><feGaussianBlur stdDeviation="2"/><feColorMatrix values="0 0 0 0 0 0 0 0 0 0 0 0 0 0 0 0 0 0 1 0"/><feBlend in2="BackgroundImageFix" result="effect1_dropShadow"/><feBlend in="SourceGraphic" in2="effect1_dropShadow" result="shape"/></filter></defs></svg>