<svg width="30" height="21" fill="none" xmlns="http://www.w3.org/2000/svg"><path d="M13.043 7.96l.516 2.33h3.687V7.96h-4.202zM19.272 7.96l-.012 2.33h3.518l.612-2.33h-4.118zM13.734 15.906a2.336 2.336 0 00-2.335 2.335 2.341 2.341 0 002.335 2.341 2.333 2.333 0 002.335-2.34 2.328 2.328 0 00-2.335-2.336zM22.534 15.906a2.341 2.341 0 00-2.34 2.335 2.342 2.342 0 002.34 2.341 2.333 2.333 0 002.335-2.34 2.332 2.332 0 00-2.335-2.336z" fill="#0F5628"/><path d="M28.46 2.369a1.159 1.159 0 00-1.443.776l-.158.522H9.757l-.613-2.48A1.147 1.147 0 008.028.3H2.054a1.158 1.158 0 100 2.317h5.064L9.854 13.71c.127.516.594.88 1.122.88h14.167c.51 0 .964-.34 1.11-.825l2.984-9.959a1.151 1.151 0 00-.776-1.437zm-4.111 9.673l-.073.237h-12.39l-1.553-6.302h15.835l-1.82 6.065z" fill="#0F5628"/></svg>