<svg width="13" height="18" fill="none" xmlns="http://www.w3.org/2000/svg"><path d="M6.877 0c-3.314 0-6 2.797-6 6.247 0 .592.081 1.165.23 1.708.09.335.19.667.348.968C2.685 11.269 6.877 18 6.877 18s4.192-6.732 5.422-9.077c.157-.3.257-.632.349-.967a6.49 6.49 0 00.229-1.709c0-3.45-2.687-6.247-6-6.247zm0 8.998a2.6 2.6 0 01-2.068-1.042 2.807 2.807 0 01-.574-1.709c0-1.517 1.185-2.75 2.642-2.75 1.457 0 2.642 1.234 2.642 2.75 0 .646-.215 1.24-.574 1.709a2.604 2.604 0 01-2.068 1.042z" fill="#0F5628" fill-opacity=".91"/></svg>