<svg width="68" height="82" fill="none" xmlns="http://www.w3.org/2000/svg"><g clip-path="url(#clip0)"><path d="M1.458 11.53s-1.16 4.32-.69 12.09 3.05 21.21 6.82 28.97c3.77 7.76 5.9 11.43 6.98 12.97 1.09 1.56 8.44 9.54 10.44 11.12 2.85 2.25 6.12 3.53 6.71 3.65.59.12 4.53.94 7.71-1.18 1.45-.97 6.05-4.02 9.35-7.94 4.24-5.03 7.59-10.24 10.06-16.06 4.1-9.66 6.09-17.38 7.15-25.5 1.04-7.95 1.14-16.54.2-17.36-.94-.82-20.95-7.26-22.36-7.62-1.41-.35-9.7-3.32-10.06-3.32-.35 0-14.41 4.15-15.35 4.38-.94.24-17.07 4.97-16.96 5.8z" fill="#fff" stroke="#000" stroke-miterlimit="10"/><path d="M33.718 3.03c-.01 0-.02-.01-.04 0-.89.35-30.58 8.76-30.91 9.53-.71 1.65-1.42 20.11 5.76 38.18 4.39 11.04 11.41 21.35 21.41 27.24 8.78 5.17 21.53-10.65 28-25.47 8.48-19.43 6.82-39.12 6.82-39.12L33.718 3.03z" fill="#99C4B8" stroke="#5F9994" stroke-width="3" stroke-miterlimit="10"/><path d="M33.948 4.44l-.71 73.88s14.12-5.88 18.82-14.82c4.7-8.94 11.76-30.35 12.24-40.24.48-9.89.47-9.88.47-9.88l-30.82-8.94z" fill="#5F9994"/><path d="M23.538 29.2s-5.82-2.21-6.88 1.94c-.64 2.49-.35 4.41 3.88 6.44 3.86 1.85 4.85 7.59-4.32 7.41M37.919 29.291s-5.82-2.21-6.88 1.94c-.64 2.49-.35 4.41 3.88 6.44 3.86 1.85 4.85 7.59-4.32 7.41M47.178 28.73l.09 15.84c0 .26.21.46.47.46l6.28-.08" stroke="#fff" stroke-width="3" stroke-miterlimit="10" stroke-linecap="round"/></g><defs><clipPath id="clip0"><path fill="#fff" transform="translate(.158 .85)" d="M0 0h67.16v80.23H0z"/></clipPath></defs></svg>