<svg width="105" height="84" fill="none" xmlns="http://www.w3.org/2000/svg"><path d="M103.32 26.499c-.969-4.457-4.575-12.155-13.295-16.957-2.658 12.445-17.515 50.283-43.999 68.802.142.414.27.739.377.953.525 1.064 1.164 1.99 1.776 2.557.155.145.31.262.465.36.747.455 2.086 1.36 5.248.98 2.45-.297 9.73-2.204 16.99-6.142 7.26-3.932 13.605-9.129 17.292-12.563 3.688-3.434 9.387-8.243 13.464-16.929 3.418-7.262 3.539-12.528 1.682-21.061z" fill="#325825"/><path d="M90.025 9.55a33.727 33.727 0 00-1.568-.809c-10.96-5.224-19.196-2.64-24.014-.2-3.506 1.776-6.823 3.462-11.856 9.5-6.042 7.256-7.886 19.825-8.855 27.924-.968 8.098-.37 19.658.074 22.968.37 2.785 1.48 7.255 2.22 9.411 26.485-18.511 41.341-56.357 44-68.794z" fill="#2F6528"/><path d="M61.388 36.276c-.747-5.044-1.73-12.444-6.325-20.854C51.127 8.215 44.95 5.252 44.95 5.252s.915-2.91-2.537-4.7c-3.452-1.796-5.935 1.396-5.935 1.396S27.61-2.177 15.734 4.982a52.39 52.39 0 00-1.299.932c4.2 3.366 11.52 10.345 19.796 23.176C42.897 42.53 49.62 64.904 53.28 80.03c.202-.055.39-.118.551-.2.794-.388 2.275-1.03 3.728-3.946 1.124-2.26 3.62-9.529 4.455-17.91.827-8.361.12-16.653-.626-21.698z" fill="#537A2C"/><path d="M14.436 5.92c-7.63 5.674-8.97 10.345-9.346 10.455-.774.229-3.008.014-4.26 3.435-1.251 3.42 1.622 5.825 1.622 5.825S.662 32.22 4.033 41.106c3.371 8.893 11.372 17.6 17.447 22.9 6.076 5.3 15.846 11.18 18.8 12.63 2.954 1.452 8.458 3.338 9.911 3.51 1.164.139 2.275.105 3.075-.11-3.66-15.126-10.382-37.5-19.048-50.94-8.263-12.838-15.584-19.81-19.782-23.175z" fill="#426829"/><path d="M34.01 15.444c-.996.103-1.817.912-1.952 1.934-.06.443.014.864.175 1.237.229-.539.78-.926 1.42-.926.848 0 1.534.67 1.534 1.493 0 .214-.047.415-.128.601.808-.332 1.373-1.147 1.373-2.094 0-1.326-1.11-2.377-2.423-2.245zM15.95 28.724c-.06-.816.572-1.527 1.413-1.596.249-.021.525.041.76.152-.094-.546-1.103-1.12-1.944-1.058-1.171.09-2.052 1.058-1.972 2.156.081 1.099 1.097 1.914 2.268 1.825.235-.021.45-.083.652-.166-.639-.132-1.13-.65-1.177-1.313zM27.496 23.66c-.047.02-2.093.745-4.252 2.735-2.154 1.99 1.372 3.255 1.372 3.255l3.136 1.3c1.13.352 1.473.227 1.695 0 .222-.229.357-.65.552-1.196.188-.546 1.063-3.22 1.662-4.402.208-.408.491-1.133-.141-1.962-.633-.83-1.817-.429-1.884-.415-.559.11-1.259.325-2.14.684zM20.048 39.324c-.095-.049-.047-.194.06-.173 1.487.283 5.457.891 7.49-.228 2.53-1.396 3.047-2.75 3.047-4.042 0-1.292-.141-1.859-.12-1.928.02-.07 1.029.78 1.937.912.908.124 3.068.318 4.818-1.16 1.75-1.48 2.429-2.475 2.698-3.069.269-.594.578-1.61.7-1.755.12-.145.269-.297.43-.124.162.165.04.615 0 .891s-.363 1.797-1.44 3.344c-1.056 1.514-.66 2.71-.66 2.771 0 .062 2.12 6.724 2.188 7.041.262 1.306.881 1.293-1.568 2.834 0 0-1.07.974-1.689 0-.619-.975-4.28-7.373-4.697-7.74-.188-.165-.127-.373-.74-.02-.228.186-.47.276-.35.635.122.36 4.287 7.56 4.287 7.56s.639.898.558 1.091c-.08.194-1.05.975-1.568 1.334-.518.36-1.11.574-1.877 0-.767-.573-6.325-5.935-6.325-5.935s-.41-.512-.74-.643c-.33-.124-1.75-.02-2.678-.235-.828-.194-2.375-.629-3.761-1.361z" fill="#fff"/></svg>